SplineFontDB: 3.2
FontName: HEJI2
FullName: HEJI2
FamilyName: HEJI2
Weight: Normal

StartChar: exclam
Encoding: 33 33 1
Width: 215
Flags: W
HStem: 0 275
VStem: 70 25<0 131>
LayerCount: 2
Fore
SplineSet
95 131 m 1
 95 0 l 1
 70 0 l 1
 70 131 l 1
 0 100 l 1
 82.5 275 l 1
 165 100 l 5
 95 131 l 1
EndSplineSet
Validated: 1
EndChar

StartChar: quotedbl
Encoding: 34 34 2
Width: 215
Flags: W
HStem: 377 20G<73.0714 91.9286>
VStem: 70 25<0 131>
LayerCount: 2
Fore
SplineSet
95 131 m 1
 95 0 l 1
 70 0 l 1
 70 131 l 1
 0 100 l 1
 70 253 l 1
 0 222 l 1
 82.5 397 l 5
 165 222 l 1
 95 253 l 1
 165 100 l 1
 95 131 l 1
EndSplineSet
Validated: 1
EndChar

StartChar: numbersign
Encoding: 35 35 3
Width: 215
Flags: W
HStem: 346 21G<9.42857 45.1613> 501 20G<73.0714 91.9286>
VStem: 70 25<0 131>
LayerCount: 2
Fore
SplineSet
165 222 m 1
 95 253 l 1
 165 100 l 1
 95 131 l 1
 95 0 l 1
 70 0 l 1
 70 131 l 1
 0 100 l 1
 70 253 l 1
 0 222 l 1
 70 377 l 1
 0 346 l 1
 82.5 521 l 1
 165 346 l 1
 95 377 l 1
 165 222 l 1
EndSplineSet
Validated: 1
EndChar

StartChar: dollar
Encoding: 36 36 4
Width: 215
Flags: W
VStem: 70 25<-132 0>
LayerCount: 2
Fore
SplineSet
165 -346 m 1
 82.5 -521 l 5
 0 -346 l 1
 70 -378 l 1
 0 -222 l 1
 70 -254 l 1
 0 -100 l 1
 70 -132 l 1
 70 0 l 1
 95 0 l 1
 95 -132 l 1
 165 -100 l 1
 95 -254 l 1
 165 -222 l 1
 95 -378 l 1
 165 -346 l 1
EndSplineSet
Validated: 1
EndChar

StartChar: percent
Encoding: 37 37 5
Width: 215
Flags: W
VStem: 70 25<-132 0>
LayerCount: 2
Fore
SplineSet
165 -222 m 1
 82.5 -397 l 1
 0 -222 l 1
 70 -254 l 1
 0 -100 l 1
 70 -132 l 1
 70 0 l 1
 95 0 l 1
 95 -132 l 1
 165 -100 l 1
 95 -254 l 1
 165 -222 l 1
EndSplineSet
Validated: 1
EndChar

StartChar: ampersand
Encoding: 38 38 6
Width: 215
Flags: W
HStem: -275 275
VStem: 70 25<-132 0>
LayerCount: 2
Fore
SplineSet
165 -100 m 1
 82.5 -275 l 5
 0 -100 l 1
 70 -132 l 1
 70 0 l 1
 95 0 l 1
 95 -132 l 1
 165 -100 l 1
EndSplineSet
Validated: 1
EndChar

StartChar: parenleft
Encoding: 40 40 7
Width: 190
Flags: W
VStem: 0 28<-88.5937 87.3296>
LayerCount: 2
Fore
SplineSet
113 213 m 1
 121 205 l 1
 111 197 100.5 187.833333333 89.5 177.5 c 0
 78.5 167.166666667 68.5 154.166666667 59.5 138.5 c 0
 50.5 122.833333333 43 104 37 82 c 0
 31 60 28 33.3333333333 28 2 c 0
 28 -26 30.3333333333 -50.5 35 -71.5 c 0
 39.6666666667 -92.5 46.1666666667 -111.166666667 54.5 -127.5 c 0
 62.8333333333 -143.833333333 72.5 -158.333333333 83.5 -171 c 0
 94.5 -183.666666667 106.666666667 -195.333333333 120 -206 c 1
 113 -214 l 1
 91 -200.666666667 72.8333333333 -185.333333333 58.5 -168 c 0
 44.1666666667 -150.666666667 32.6666666667 -132.666666667 24 -114 c 0
 15.3333333333 -95.3333333333 9.16666666667 -76.5 5.5 -57.5 c 0
 1.83333333333 -38.5 0 -20.3333333333 0 -3 c 0
 0 29.6666666667 4 58 12 82 c 0
 20 106 29.8333333333 126.5 41.5 143.5 c 0
 53.1666666667 160.5 65.5 174.5 78.5 185.5 c 0
 91.5 196.5 103 205.666666667 113 213 c 1
EndSplineSet
Validated: 1
EndChar

StartChar: parenright
Encoding: 41 41 8
Width: 190
Flags: W
VStem: 92 28<-89.0427 87.5974>
LayerCount: 2
Fore
SplineSet
8 -214 m 1
 0 -206 l 1
 9.33333333333 -198 19.5 -188.666666667 30.5 -178 c 0
 41.5 -167.333333333 51.5 -154.333333333 60.5 -139 c 0
 69.5 -123.666666667 77 -105 83 -83 c 0
 89 -61 92 -34.3333333333 92 -3 c 0
 92 25 89.6666666667 49.5 85 70.5 c 0
 80.3333333333 91.5 73.8333333333 110 65.5 126 c 0
 57.1666666667 142 47.5 156.333333333 36.5 169 c 0
 25.5 181.666666667 13.6666666667 193.666666667 1 205 c 1
 8 213 l 1
 29.3333333333 199.666666667 47.1666666667 184.5 61.5 167.5 c 0
 75.8333333333 150.5 87.3333333333 132.5 96 113.5 c 0
 104.666666667 94.5 110.833333333 75.3333333333 114.5 56 c 0
 118.166666667 36.6666666667 120 18.3333333333 120 1 c 0
 120 -31.6666666667 116 -59.8333333333 108 -83.5 c 0
 100 -107.166666667 90.1666666667 -127.5 78.5 -144.5 c 0
 66.8333333333 -161.5 54.5 -175.5 41.5 -186.5 c 0
 28.5 -197.5 17.3333333333 -206.666666667 8 -214 c 1
EndSplineSet
Validated: 1
EndChar

StartChar: asterisk
Encoding: 42 42 9
Width: 258
Flags: W
HStem: -88 175
VStem: 0 198
LayerCount: 2
Fore
SplineSet
198 -88 m 5
 0 40 l 1
 0 87 l 1
 198 -40 l 5
 198 -88 l 5
EndSplineSet
Validated: 1
EndChar

StartChar: plus
Encoding: 43 43 10
Width: 270
VWidth: 1199
Flags: W
HStem: 47 30<0 90 120 210>
VStem: 90 30<-49 47 77 173>
LayerCount: 2
Fore
SplineSet
120 47 m 1
 120 -49 l 1
 90 -49 l 1
 90 47 l 1
 0 47 l 1
 0 77 l 1
 90 77 l 1
 90 173 l 1
 120 173 l 1
 120 77 l 1
 210 77 l 5
 210 47 l 1
 120 47 l 1
EndSplineSet
Validated: 1
EndChar

StartChar: comma
Encoding: 44 44 11
Width: 231
Flags: W
VStem: 0 171<-193 -138 -23 32> 0 25<-138 -81 32 312>
LayerCount: 2
Fore
SplineSet
171 90 m 1x80
 171 -23 l 1x80
 25 -81 l 1
 25 -138 l 1x40
 171 -80 l 1
 171 -193 l 1x80
 0 -264 l 1
 0 312 l 1
 25 312 l 1
 25 32 l 1x40
 171 90 l 1x80
EndSplineSet
Validated: 1
EndChar

StartChar: hyphen
Encoding: 45 45 12
Width: 258
VWidth: 1199
Flags: W
HStem: -76 30<0 198>
VStem: 0 198<-76 -46>
LayerCount: 2
Fore
SplineSet
198 -46 m 1
 198 -76 l 1
 0 -76 l 1
 0 -46 l 1
 198 -46 l 1
EndSplineSet
Validated: 1
EndChar

StartChar: period
Encoding: 46 46 13
Width: 231
Flags: W
VStem: 0 171<-32 22 137 192> 0 25<-312 -32 80 137>
LayerCount: 2
Fore
SplineSet
25 -32 m 1x40
 25 -312 l 1
 0 -312 l 1
 0 263 l 1x40
 171 192 l 1
 171 79 l 1x80
 25 137 l 1
 25 80 l 1x40
 171 22 l 1
 171 -90 l 1x80
 25 -32 l 1x40
EndSplineSet
Validated: 1
EndChar

StartChar: slash
Encoding: 47 47 14
Width: 258
Flags: W
HStem: -88 175
VStem: 0 198
LayerCount: 2
Fore
SplineSet
0 -40 m 1
 198 87 l 5
 198 40 l 5
 0 -88 l 1
 0 -40 l 1
EndSplineSet
Validated: 1
EndChar

StartChar: zero
Encoding: 48 48 15
Width: 345
Flags: W
HStem: 119 39<76.0509 127 152 187.744> 403 20G<123 152> 403 20G<123 152 211 240>
VStem: 0 56<-3.74426 104.249> 127 25<8 117 157.5 423> 215 25<112 384> 221 19<-122.56 74.2496>
LayerCount: 2
Fore
SplineSet
240 -177 m 1xda
 238 -177 l 1
 230 -168 220 -160 208 -151 c 0
 197 -142 184 -134 171 -125 c 0
 158 -116 144 -108 130 -99 c 0
 117 -90 104 -82 91 -73 c 0
 59 -49 36 -26 22 -4 c 0
 8 18 1 39 0 60 c 0
 0 74 3 87 9 99 c 0
 15 111 23 121 34 130 c 0
 45 139 57 146 71 150 c 0
 85 156 99.6666666667 158 115 158 c 2
 123 158 l 2
 124.333333333 158 125.5 157.833333333 126.5 157.5 c 0
 127.5 157.166666667 127.666666667 157 127 157 c 2
 123 423 l 1
 152 423 l 1
 152 153 l 1
 166 149.666666667 178.833333333 144.333333333 190.5 137 c 0
 202.166666667 129.666666667 210.333333333 121.333333333 215 112 c 1
 211 384 l 1
 240 384 l 1xdc
 240 -177 l 1xda
213 75 m 0
 206.333333333 88.3333333333 197.666666667 98.1666666667 187 104.5 c 0
 176.333333333 110.833333333 164.666666667 115 152 117 c 1
 155 -80 l 1
 160.333333333 -87.3333333333 169.5 -95.6666666667 182.5 -105 c 0
 195.5 -114.333333333 207 -120.333333333 217 -123 c 1
 219 -113.666666667 220.333333333 -100.333333333 221 -83 c 0x9a
 221.666666667 -65.6666666667 222.333333333 -45 223 -21 c 0
 223 -7 222.5 8.5 221.5 25.5 c 0
 220.5 42.5 217.666666667 59 213 75 c 0
56 63 m 0
 56 55.6666666667 56.6666666667 47.6666666667 58 39 c 0
 59.3333333333 30.3333333333 62.5 20.6666666667 67.5 10 c 0
 72.5 -0.666666666667 80.1666666667 -12.3333333333 90.5 -25 c 0
 100.833333333 -37.6666666667 114.666666667 -51.3333333333 132 -66 c 1
 127 119 l 1
 104.333333333 120.333333333 87.1666666667 115.166666667 75.5 103.5 c 0
 63.8333333333 91.8333333333 57.3333333333 78.3333333333 56 63 c 0
EndSplineSet
Validated: 37
EndChar

StartChar: one
Encoding: 49 49 16
Width: 313
Flags: W
VStem: 176 32<-417 -145> 183 25<-339.286 -117.694 -90 81.2837>
LayerCount: 2
Fore
SplineSet
185 -90 m 1x00
 188.116210938 -71.68359375 188.958007812 26.68359375 178 84 c 1
 64 -14 l 1
 185 -90 l 1x00
183 -145 m 2x40
 183.041015625 -131.525390625 182.405273438 -121.6171875 176 -117.497070312 c 2x80
 12 -12 l 2
 10 -11 0 -5 0 1 c 0
 0 1.60546875 2 6 5 8 c 0
 84 77 184 166 208 184 c 1x40
 208 -417 l 1
 176 -417 l 1x80
 183 -145 l 2x40
208 -79 m 1024x40
EndSplineSet
Validated: 33
EndChar

StartChar: two
Encoding: 50 50 17
Width: 303
VWidth: 1290
Flags: W
VStem: 69 25<-77 161> 157 25<-77 161>
LayerCount: 2
Fore
SplineSet
-0.5244140625 160.630859375 m 1
 125.430664062 341.3984375 l 1
 252.920898438 160.630859375 l 1
 182 185 l 1
 182 -77 l 1
 157 -77 l 1
 157 161 l 2
 157 161 149 202 127 202 c 31
 104 202 94 161 94 161 c 2
 94 -77 l 1
 69 -77 l 1
 69 185 l 1
 -0.5244140625 160.630859375 l 1
EndSplineSet
Validated: 1
EndChar

StartChar: three
Encoding: 51 51 18
Width: 215
Flags: W
HStem: 331 20G<72.6286 91.4857>
VStem: 70 25<-34 211>
LayerCount: 2
Fore
SplineSet
95 211 m 1
 95 -34 l 1
 70 -34 l 1
 70 211 l 1
 0 176 l 1
 82 351 l 1
 165 176 l 5
 95 211 l 1
EndSplineSet
Validated: 1
EndChar

StartChar: four
Encoding: 52 52 19
Width: 286
Flags: W
VStem: 95 25<-326 -60 60 328>
LayerCount: 2
Fore
SplineSet
120 -48 m 1
 120 -326 l 1
 95 -326 l 1
 95 -60 l 1
 0 -108 l 1
 0 0 l 1
 95 48 l 1
 95 328 l 1
 120 328 l 1
 120 60 l 1
 216 107 l 1
 216 0 l 1
 120 -48 l 1
EndSplineSet
Validated: 1
EndChar

StartChar: five
Encoding: 53 53 20
Width: 335
Flags: W
HStem: 113 40<94.0572 177.125> 399 20G<197 229> 399 20G<197 229>
VStem: 0 80<-7.78387 99.8506> 197 32<104 419> 204.5 24.5<-124.56 69.2229 104 335>
LayerCount: 2
Fore
SplineSet
229 -182 m 1xd4
 205 -164 181.5 -146.666666667 158.5 -130 c 0
 135.5 -113.333333333 112 -96 88 -78 c 0
 57.3333333333 -54 35.1666666667 -30.8333333333 21.5 -8.5 c 0
 7.83333333333 13.8333333333 0.666666666667 35 0 55 c 0
 0 69 3 82 9 94 c 0
 15 106 23 116.333333333 33 125 c 0
 43 133.666666667 54.6666666667 140.5 68 145.5 c 0
 81.3333333333 150.5 95.6666666667 153 111 153 c 0
 153 153 184 136.666666667 204 104 c 1
 197 419 l 1
 229 419 l 1xd8
 229 -182 l 1xd4
136 113 m 0
 119.333333333 113 105.833333333 107.833333333 95.5 97.5 c 0
 85.1666666667 87.1666666667 80 74.3333333333 80 59 c 0
 80 46.3333333333 83.8333333333 31.1666666667 91.5 13.5 c 0
 99.1666666667 -4.16666666667 108.833333333 -22 120.5 -40 c 0
 132.166666667 -58 145.166666667 -74.6666666667 159.5 -90 c 0
 173.833333333 -105.333333333 187.666666667 -117 201 -125 c 1
 202.333333333 -115.666666667 203.5 -102.666666667 204.5 -86 c 0x94
 205.5 -69.3333333333 206 -49.3333333333 206 -26 c 0
 206 0.666666666667 204 33 200 71 c 1
 184.666666667 99 163.333333333 113 136 113 c 0
EndSplineSet
Validated: 1
EndChar

StartChar: six
Encoding: 54 54 21
Width: 215
Flags: W
VStem: 70 25<-211 34>
LayerCount: 2
Fore
SplineSet
165 -176 m 1
 82 -351 l 1
 0 -176 l 1
 70 -211 l 1
 70 34 l 1
 95 34 l 1
 95 -211 l 1
 165 -176 l 1
EndSplineSet
Validated: 1
EndChar

StartChar: seven
Encoding: 55 55 22
Width: 302
VWidth: 1290
Flags: W
HStem: -341 21G<111 139.222> 57 20G<69 94 157 182>
VStem: 69 25<-161 77> 157 25<-161 77>
LayerCount: 2
Fore
SplineSet
-1 -161 m 1
 69 -185 l 1
 69 77 l 1
 94 77 l 1
 94 -161 l 2
 94 -161 104 -202 127 -202 c 27
 149 -202 157 -161 157 -161 c 2
 157 77 l 1
 182 77 l 1
 182 -185 l 1
 253 -161 l 1
 125 -341 l 1
 -1 -161 l 1
EndSplineSet
Validated: 1
EndChar

StartChar: eight
Encoding: 56 56 23
Width: 268
Flags: W
VStem: 77 25<-326 -101.13 -49.8008 5.66699 99.4355 99.4355>
LayerCount: 2
Fore
SplineSet
0.5 -157 m 1
 0.5 -122 l 1
 77 -67.4560546875 l 1
 77 21.3330078125 l 1
 0.5 69 l 1
 0.5 152 l 1
 77 99.435546875 l 1
 77 327.999023438 l 1
 83.7138671875 328.609375 90.1064453125 327.592773438 102 327.999023438 c 1
 102 82.220703125 l 1
 198 16 l 2
 199.823242188 14.7451171875 210 9 210 3 c 0
 210 2.39453125 211.180664062 -1.6181640625 203 -8 c 0
 184.6640625 -22.3046875 138.642578125 -55.97265625 102 -82.8369140625 c 1
 102 -326 l 1
 77 -326 l 1
 77 -101.129882812 l 1
 31.091796875 -134.659179688 0.5 -157 0.5 -157 c 1
102 -49.80078125 m 1
 144 -20 l 1
 102 5.6669921875 l 1
 102 -49.80078125 l 1
EndSplineSet
Validated: 1
EndChar

StartChar: nine
Encoding: 57 57 24
Width: 286
Flags: W
HStem: -341 21G<51 76> 324 20G<139 164> 324 20G<139 164>
VStem: 51 25<-341 -82 38 312> 139 25<-310 -37 81 344>
LayerCount: 2
Fore
SplineSet
51 -341 m 1xd8
 51 -82 l 1
 0 -108 l 1
 0 2 l 1
 51 25 l 1
 51 312 l 1
 76 312 l 1
 76 38 l 1
 139 69 l 1
 139 344 l 1
 164 344 l 1
 164 81 l 1
 216 107 l 1
 216 0 l 1
 164 -25 l 1
 164 -310 l 1
 139 -310 l 1
 139 -37 l 1
 76 -69 l 1
 76 -341 l 1
 51 -341 l 1xd8
EndSplineSet
Validated: 1
EndChar

StartChar: colon
Encoding: 58 58 25
Width: 258
Flags: W
VStem: 0 198
LayerCount: 2
Fore
SplineSet
198 -174 m 1
 0 -46 l 1
 0 2 l 1
 198 -126 l 1
 198 -174 l 1
198 -1 m 1
 0 126 l 1
 0 174 l 1
 198 47 l 1
 198 -1 l 1
EndSplineSet
Validated: 1
EndChar

StartChar: semicolon
Encoding: 59 59 26
Width: 258
Flags: W
VStem: 0 198
LayerCount: 2
Fore
SplineSet
0 -126 m 1
 198 2 l 5
 198 -46 l 5
 0 -174 l 1
 0 -126 l 1
0 46 m 1
 198 174 l 1
 198 126 l 1
 0 -2 l 1
 0 46 l 1
EndSplineSet
Validated: 1
EndChar

StartChar: less
Encoding: 60 60 27
Width: 231
Flags: W
VStem: 0 25<32 312>
LayerCount: 2
Fore
SplineSet
171 -23 m 1
 0 -94 l 1
 0 312 l 1
 25 312 l 1
 25 32 l 1
 171 90 l 1
 171 -23 l 1
EndSplineSet
Validated: 1
EndChar

StartChar: equal
Encoding: 61 61 28
Width: 258
Flags: W
HStem: -207.725 19.25<117.57 168.938> -168.125 20.3496<20.0746 71.0252> -100.725 19.25<117.57 168.938> -61.125 20.3496<20.0746 71.0252>
VStem: 0.450195 8.09961<-207.725 -191.629 -100.725 -84.629> 180.45 8.09961<-165.945 -148.325 -58.9449 -41.3252>
LayerCount: 2
Fore
SplineSet
180.450195312 -148.325195312 m 5
 188.549804688 -148.325195312 l 5
 187.650390625 -167.758789062 183.075195312 -182.516601562 174.825195312 -192.599609375 c 4
 166.575195312 -202.68359375 156.75 -207.724609375 145.349609375 -207.724609375 c 4
 139.650390625 -207.724609375 133.799804688 -206.991210938 127.799804688 -205.525390625 c 4
 124.5 -204.05859375 118.875 -201.400390625 110.924804688 -197.549804688 c 4
 102.974609375 -193.700195312 92.5498046875 -188.658203125 79.650390625 -182.424804688 c 4
 61.349609375 -172.891601562 48.4501953125 -168.125 40.9501953125 -168.125 c 4
 32.849609375 -168.125 25.9501953125 -171.241210938 20.25 -177.474609375 c 4
 14.5498046875 -183.708007812 10.650390625 -193.791992188 8.5498046875 -207.724609375 c 5
 0.4501953125 -207.724609375 l 5
 1.349609375 -188.291992188 5.7001953125 -173.44140625 13.5 -163.174804688 c 4
 21.2998046875 -152.908203125 30.599609375 -147.775390625 41.400390625 -147.775390625 c 4
 47.099609375 -147.775390625 52.5 -148.875 57.599609375 -151.075195312 c 4
 63.599609375 -152.908203125 70.5751953125 -155.75 78.525390625 -159.599609375 c 4
 86.474609375 -163.450195312 95.5498046875 -167.94140625 105.75 -173.075195312 c 4
 125.25 -183.341796875 139.200195312 -188.474609375 147.599609375 -188.474609375 c 4
 156.599609375 -188.474609375 163.950195312 -185.083007812 169.650390625 -178.299804688 c 4
 175.349609375 -171.516601562 178.950195312 -161.525390625 180.450195312 -148.325195312 c 5
180.450195312 -41.3251953125 m 5
 188.549804688 -41.3251953125 l 5
 187.650390625 -60.7587890625 183.075195312 -75.5166015625 174.825195312 -85.599609375 c 4
 166.575195312 -95.68359375 156.75 -100.724609375 145.349609375 -100.724609375 c 4
 139.650390625 -100.724609375 133.799804688 -99.9912109375 127.799804688 -98.525390625 c 4
 124.5 -97.05859375 118.875 -94.400390625 110.924804688 -90.5498046875 c 4
 102.974609375 -86.7001953125 92.5498046875 -81.658203125 79.650390625 -75.4248046875 c 4
 61.349609375 -65.8916015625 48.4501953125 -61.125 40.9501953125 -61.125 c 4
 32.849609375 -61.125 25.9501953125 -64.2412109375 20.25 -70.474609375 c 4
 14.5498046875 -76.7080078125 10.650390625 -86.7919921875 8.5498046875 -100.724609375 c 5
 0.4501953125 -100.724609375 l 5
 1.349609375 -81.2919921875 5.7001953125 -66.44140625 13.5 -56.1748046875 c 4
 21.2998046875 -45.908203125 30.599609375 -40.775390625 41.400390625 -40.775390625 c 4
 47.099609375 -40.775390625 52.5 -41.875 57.599609375 -44.0751953125 c 4
 63.599609375 -45.908203125 70.5751953125 -48.75 78.525390625 -52.599609375 c 4
 86.474609375 -56.4501953125 95.5498046875 -60.94140625 105.75 -66.0751953125 c 4
 125.25 -76.341796875 139.200195312 -81.474609375 147.599609375 -81.474609375 c 4
 156.599609375 -81.474609375 163.950195312 -78.0830078125 169.650390625 -71.2998046875 c 4
 175.349609375 -64.5166015625 178.950195312 -54.525390625 180.450195312 -41.3251953125 c 5
EndSplineSet
Validated: 1
EndChar

StartChar: greater
Encoding: 62 62 29
Width: 231
Flags: W
VStem: 0 25<-312 -32>
LayerCount: 2
Fore
SplineSet
171 -90 m 1
 25 -32 l 1
 25 -312 l 1
 0 -312 l 1
 0 93 l 1
 171 22 l 1
 171 -90 l 1
EndSplineSet
Validated: 1
EndChar

StartChar: question
Encoding: 63 63 30
Width: 258
Flags: W
HStem: 41.2754 19.25<117.57 168.938> 80.875 20.3496<20.0746 71.0252> 148.275 19.25<117.57 168.938> 187.875 20.3496<20.0746 71.0252>
VStem: 0.450195 8.09961<41.2754 57.371 148.275 164.371> 180.45 8.09961<83.0551 100.675 190.055 207.675>
LayerCount: 2
Fore
SplineSet
180.450195312 100.674804688 m 5
 188.549804688 100.674804688 l 5
 187.650390625 81.2412109375 183.075195312 66.4833984375 174.825195312 56.400390625 c 4
 166.575195312 46.31640625 156.75 41.275390625 145.349609375 41.275390625 c 4
 139.650390625 41.275390625 133.799804688 42.0087890625 127.799804688 43.474609375 c 4
 124.5 44.94140625 118.875 47.599609375 110.924804688 51.4501953125 c 4
 102.974609375 55.2998046875 92.5498046875 60.341796875 79.650390625 66.5751953125 c 4
 61.349609375 76.1083984375 48.4501953125 80.875 40.9501953125 80.875 c 4
 32.849609375 80.875 25.9501953125 77.7587890625 20.25 71.525390625 c 4
 14.5498046875 65.2919921875 10.650390625 55.2080078125 8.5498046875 41.275390625 c 5
 0.4501953125 41.275390625 l 5
 1.349609375 60.7080078125 5.7001953125 75.55859375 13.5 85.8251953125 c 4
 21.2998046875 96.091796875 30.599609375 101.224609375 41.400390625 101.224609375 c 4
 47.099609375 101.224609375 52.5 100.125 57.599609375 97.9248046875 c 4
 63.599609375 96.091796875 70.5751953125 93.25 78.525390625 89.400390625 c 4
 86.474609375 85.5498046875 95.5498046875 81.05859375 105.75 75.9248046875 c 4
 125.25 65.658203125 139.200195312 60.525390625 147.599609375 60.525390625 c 4
 156.599609375 60.525390625 163.950195312 63.9169921875 169.650390625 70.7001953125 c 4
 175.349609375 77.4833984375 178.950195312 87.474609375 180.450195312 100.674804688 c 5
180.450195312 207.674804688 m 5
 188.549804688 207.674804688 l 5
 187.650390625 188.241210938 183.075195312 173.483398438 174.825195312 163.400390625 c 4
 166.575195312 153.31640625 156.75 148.275390625 145.349609375 148.275390625 c 4
 139.650390625 148.275390625 133.799804688 149.008789062 127.799804688 150.474609375 c 4
 124.5 151.94140625 118.875 154.599609375 110.924804688 158.450195312 c 4
 102.974609375 162.299804688 92.5498046875 167.341796875 79.650390625 173.575195312 c 4
 61.349609375 183.108398438 48.4501953125 187.875 40.9501953125 187.875 c 4
 32.849609375 187.875 25.9501953125 184.758789062 20.25 178.525390625 c 4
 14.5498046875 172.291992188 10.650390625 162.208007812 8.5498046875 148.275390625 c 5
 0.4501953125 148.275390625 l 5
 1.349609375 167.708007812 5.7001953125 182.55859375 13.5 192.825195312 c 4
 21.2998046875 203.091796875 30.599609375 208.224609375 41.400390625 208.224609375 c 4
 47.099609375 208.224609375 52.5 207.125 57.599609375 204.924804688 c 4
 63.599609375 203.091796875 70.5751953125 200.25 78.525390625 196.400390625 c 4
 86.474609375 192.549804688 95.5498046875 188.05859375 105.75 182.924804688 c 4
 125.25 172.658203125 139.200195312 167.525390625 147.599609375 167.525390625 c 4
 156.599609375 167.525390625 163.950195312 170.916992188 169.650390625 177.700195312 c 4
 175.349609375 184.483398438 178.950195312 194.474609375 180.450195312 207.674804688 c 5
EndSplineSet
Validated: 1
EndChar

StartChar: at
Encoding: 64 64 31
Width: 215
Flags: W
VStem: 70 25<-65 180>
LayerCount: 2
Fore
SplineSet
165 -30 m 1
 82 -205 l 1
 0 -30 l 1
 70 -65 l 1
 70 180 l 1
 95 180 l 1
 95 -65 l 1
 165 -30 l 1
EndSplineSet
Validated: 1
EndChar

StartChar: A
Encoding: 65 65 32
Width: 502
Flags: W
HStem: 113 40<51.6314 134.36 253.69 337.73> 399 20G<203 235> 399 20G<203 235> 425 25<-70 0 25 95>
VStem: 0 25<-124.56 69.2231 104 425> 203 32<118 419> 203 23<-124.56 -14.9688 118 349> 352 80<-6.7618 99.5883>
LayerCount: 2
Fore
SplineSet
95 425 m 1xdb
 25 425 l 1
 25 104 l 1
 45 136.666992188 76 153 118 153 c 0
 151.333007812 153 179.666992188 141.333007812 203 118 c 1
 203 419 l 1
 235 419 l 1xdd
 228 104 l 1
 246.666992188 136.666992188 277.666992188 153 321 153 c 0
 335.666992188 153 349.833007812 150.5 363.5 145.5 c 0
 377.166992188 140.5 389 133.666992188 399 125 c 0
 409 116.333007812 417 106 423 94 c 0
 429 82 432 69 432 55 c 0
 431.333007812 35 424.166992188 13.8330078125 410.5 -8.5 c 0
 396.833007812 -30.8330078125 374.666992188 -54 344 -78 c 0
 320 -95.3330078125 296.5 -112.333007812 273.5 -129 c 0
 250.5 -145.666992188 227 -163.333007812 203 -182 c 1
 203 -14 l 1
 195 -26 183.666992188 -38.8330078125 169 -52.5 c 0
 154.333007812 -66.1669921875 137.833007812 -80.3330078125 119.5 -95 c 0
 101.166992188 -109.666992188 81.6669921875 -124.333007812 61 -139 c 0
 40.3330078125 -153.666992188 20 -168 0 -182 c 1
 0 425 l 1
 -70 425 l 1
 -70 450 l 1
 95 450 l 1
 95 425 l 1xdb
296 113 m 0
 268 113 246.666992188 99 232 71 c 1
 228 33 226 1 226 -25 c 0x9b
 226 -49 226.5 -69.3330078125 227.5 -86 c 0
 228.5 -102.666992188 229.666992188 -115.666992188 231 -125 c 1
 243.666992188 -117 257.166992188 -105.166992188 271.5 -89.5 c 0
 285.833007812 -73.8330078125 299 -57 311 -39 c 0
 323 -21 332.833007812 -3.1669921875 340.5 14.5 c 0
 348.166992188 32.1669921875 352 47 352 59 c 0
 352 74.3330078125 346.666992188 87.1669921875 336 97.5 c 0
 325.333007812 107.833007812 312 113 296 113 c 0
93 113 m 0
 65 113 43.6669921875 99 29 71 c 1
 25 33 23 1 23 -25 c 0
 23 -49 23.5 -69.3330078125 24.5 -86 c 0
 25.5 -102.666992188 26.6669921875 -115.666992188 28 -125 c 1
 41.3330078125 -117 55.1669921875 -105.166992188 69.5 -89.5 c 0
 83.8330078125 -73.8330078125 96.8330078125 -57 108.5 -39 c 0
 120.166992188 -21 129.833007812 -3.1669921875 137.5 14.5 c 0
 145.166992188 32.1669921875 149 47 149 59 c 0
 149 74.3330078125 143.666992188 87.1669921875 133 97.5 c 0
 122.333007812 107.833007812 109 113 93 113 c 0
EndSplineSet
Validated: 1
EndChar

StartChar: B
Encoding: 66 66 33
Width: 503
Flags: W
HStem: 113 40<51.6314 134.618 254.631 337.988> 399 20G<0 32 203 235> 399 20G<0 32 203 235>
VStem: 0 32<104 419> 0 23<-124.56 69.2229 104 349> 203 32<118 419> 203 25<-345 -153.78 -124.56 -14.4137 118 329> 352 80<-7.74264 99.8506>
LayerCount: 2
Fore
SplineSet
298 -556 m 1xc3
 216 -731 l 1
 133 -556 l 1
 203 -591 l 1
 133 -433 l 1
 203 -468 l 1
 133 -310 l 1
 203 -345 l 1
 203 -14 l 1
 195 -26 183.666992188 -38.8330078125 169 -52.5 c 0
 154.333007812 -66.1669921875 137.833007812 -80.3330078125 119.5 -95 c 0
 101.166992188 -109.666992188 81.6669921875 -124.333007812 61 -139 c 0
 40.3330078125 -153.666992188 20 -168 0 -182 c 1xcb
 0 419 l 1
 32 419 l 1
 25 104 l 1
 45 136.666992188 76 153 118 153 c 0
 151.333007812 153 179.666992188 141.333007812 203 118 c 1
 203 419 l 1
 235 419 l 1xd5
 228 104 l 1
 248 136.666992188 279 153 321 153 c 0
 335.666992188 153 349.833007812 150.5 363.5 145.5 c 0
 377.166992188 140.5 389 133.666992188 399 125 c 0
 409 116.333007812 417 106 423 94 c 0
 429 82 432 69 432 55 c 0
 431.333007812 35 424.166992188 13.8330078125 410.5 -8.5 c 0
 396.833007812 -30.8330078125 374.666992188 -54 344 -78 c 0
 324 -92.6669921875 304.5 -106.666992188 285.5 -120 c 0
 266.5 -133.333007812 247.333007812 -147.666992188 228 -163 c 1
 228 -345 l 1
 298 -310 l 1
 228 -468 l 1
 298 -433 l 1
 228 -591 l 1
 298 -556 l 1xc3
296 113 m 0
 268 113 246.666992188 99 232 71 c 1
 228 33 226 0.6669921875 226 -26 c 0
 226 -49.3330078125 226.5 -69.3330078125 227.5 -86 c 0
 228.5 -102.666992188 229.666992188 -115.666992188 231 -125 c 1
 244.333007812 -117 258.166992188 -105.166992188 272.5 -89.5 c 0
 286.833007812 -73.8330078125 299.833007812 -57.1669921875 311.5 -39.5 c 0
 323.166992188 -21.8330078125 332.833007812 -4.1669921875 340.5 13.5 c 0
 348.166992188 31.1669921875 352 46.3330078125 352 59 c 0
 352 74.3330078125 346.833007812 87.1669921875 336.5 97.5 c 0
 326.166992188 107.833007812 312.666992188 113 296 113 c 0
93 113 m 0
 65 113 43.6669921875 99 29 71 c 1
 25 33 23 0.6669921875 23 -26 c 0
 23 -49.3330078125 23.5 -69.3330078125 24.5 -86 c 0
 25.5 -102.666992188 26.6669921875 -115.666992188 28 -125 c 1
 41.3330078125 -117 55.1669921875 -105.166992188 69.5 -89.5 c 0
 83.8330078125 -73.8330078125 96.8330078125 -57.1669921875 108.5 -39.5 c 0
 120.166992188 -21.8330078125 129.833007812 -4.1669921875 137.5 13.5 c 0
 145.166992188 31.1669921875 149 46.3330078125 149 59 c 0
 149 74.3330078125 143.833007812 87.1669921875 133.5 97.5 c 0
 123.166992188 107.833007812 109.666992188 113 93 113 c 0
EndSplineSet
Validated: 1
EndChar

StartChar: C
Encoding: 67 67 34
Width: 503
Flags: W
HStem: 113 40<51.6314 134.618 254.631 337.988> 399 20G<0 32 203 235> 399 20G<0 32 203 235>
VStem: 0 32<104 419> 0 23<-124.56 69.2229 104 349> 203 32<118 419> 203 25<-345 -153.78 -124.56 -14.4137 118 329> 352 80<-7.74264 99.8506>
LayerCount: 2
Fore
SplineSet
298 -433 m 1xc3
 216 -608 l 1
 133 -433 l 1
 203 -468 l 1
 133 -310 l 1
 203 -345 l 1
 203 -14 l 1
 195 -26 183.666992188 -38.8330078125 169 -52.5 c 0
 154.333007812 -66.1669921875 137.833007812 -80.3330078125 119.5 -95 c 0
 101.166992188 -109.666992188 81.6669921875 -124.333007812 61 -139 c 0
 40.3330078125 -153.666992188 20 -168 0 -182 c 1xcb
 0 419 l 1
 32 419 l 1
 25 104 l 1
 45 136.666992188 76 153 118 153 c 0
 151.333007812 153 179.666992188 141.333007812 203 118 c 1
 203 419 l 1
 235 419 l 1xd5
 228 104 l 1
 248 136.666992188 279 153 321 153 c 0
 335.666992188 153 349.833007812 150.5 363.5 145.5 c 0
 377.166992188 140.5 389 133.666992188 399 125 c 0
 409 116.333007812 417 106 423 94 c 0
 429 82 432 69 432 55 c 0
 431.333007812 35 424.166992188 13.8330078125 410.5 -8.5 c 0
 396.833007812 -30.8330078125 374.666992188 -54 344 -78 c 0
 324 -92.6669921875 304.5 -106.666992188 285.5 -120 c 0
 266.5 -133.333007812 247.333007812 -147.666992188 228 -163 c 1
 228 -345 l 1
 298 -310 l 1
 228 -468 l 1
 298 -433 l 1xc3
296 113 m 0
 268 113 246.666992188 99 232 71 c 1
 228 33 226 0.6669921875 226 -26 c 0
 226 -49.3330078125 226.5 -69.3330078125 227.5 -86 c 0
 228.5 -102.666992188 229.666992188 -115.666992188 231 -125 c 1
 244.333007812 -117 258.166992188 -105.166992188 272.5 -89.5 c 0
 286.833007812 -73.8330078125 299.833007812 -57.1669921875 311.5 -39.5 c 0
 323.166992188 -21.8330078125 332.833007812 -4.1669921875 340.5 13.5 c 0
 348.166992188 31.1669921875 352 46.3330078125 352 59 c 0
 352 74.3330078125 346.833007812 87.1669921875 336.5 97.5 c 0
 326.166992188 107.833007812 312.666992188 113 296 113 c 0
93 113 m 0
 65 113 43.6669921875 99 29 71 c 1
 25 33 23 0.6669921875 23 -26 c 0
 23 -49.3330078125 23.5 -69.3330078125 24.5 -86 c 0
 25.5 -102.666992188 26.6669921875 -115.666992188 28 -125 c 1
 41.3330078125 -117 55.1669921875 -105.166992188 69.5 -89.5 c 0
 83.8330078125 -73.8330078125 96.8330078125 -57.1669921875 108.5 -39.5 c 0
 120.166992188 -21.8330078125 129.833007812 -4.1669921875 137.5 13.5 c 0
 145.166992188 31.1669921875 149 46.3330078125 149 59 c 0
 149 74.3330078125 143.833007812 87.1669921875 133.5 97.5 c 0
 123.166992188 107.833007812 109.666992188 113 93 113 c 0
EndSplineSet
Validated: 1
EndChar

StartChar: D
Encoding: 68 68 35
Width: 503
Flags: W
HStem: 113 40<51.6314 134.618 254.631 337.988> 399 20G<0 32 203 235> 399 20G<0 32 203 235>
VStem: 0 32<104 419> 0 23<-124.56 69.2229 104 349> 203 32<118 419> 203 25<-345 -153.78 -124.56 -14.4137 118 329> 352 80<-7.74264 99.8506>
LayerCount: 2
Fore
SplineSet
298 -310 m 1xc3
 216 -485 l 1
 133 -310 l 1
 203 -345 l 1
 203 -14 l 1
 195 -26 183.666992188 -38.8330078125 169 -52.5 c 0
 154.333007812 -66.1669921875 137.833007812 -80.3330078125 119.5 -95 c 0
 101.166992188 -109.666992188 81.6669921875 -124.333007812 61 -139 c 0
 40.3330078125 -153.666992188 20 -168 0 -182 c 1xcb
 0 419 l 1
 32 419 l 1
 25 104 l 1
 45 136.666992188 76 153 118 153 c 0
 151.333007812 153 179.666992188 141.333007812 203 118 c 1
 203 419 l 1
 235 419 l 1xd5
 228 104 l 1
 248 136.666992188 279 153 321 153 c 0
 335.666992188 153 349.833007812 150.5 363.5 145.5 c 0
 377.166992188 140.5 389 133.666992188 399 125 c 0
 409 116.333007812 417 106 423 94 c 0
 429 82 432 69 432 55 c 0
 431.333007812 35 424.166992188 13.8330078125 410.5 -8.5 c 0
 396.833007812 -30.8330078125 374.666992188 -54 344 -78 c 0
 324 -92.6669921875 304.5 -106.666992188 285.5 -120 c 0
 266.5 -133.333007812 247.333007812 -147.666992188 228 -163 c 1
 228 -345 l 1
 298 -310 l 1xc3
296 113 m 0
 268 113 246.666992188 99 232 71 c 1
 228 33 226 0.6669921875 226 -26 c 0
 226 -49.3330078125 226.5 -69.3330078125 227.5 -86 c 0
 228.5 -102.666992188 229.666992188 -115.666992188 231 -125 c 1
 244.333007812 -117 258.166992188 -105.166992188 272.5 -89.5 c 0
 286.833007812 -73.8330078125 299.833007812 -57.1669921875 311.5 -39.5 c 0
 323.166992188 -21.8330078125 332.833007812 -4.1669921875 340.5 13.5 c 0
 348.166992188 31.1669921875 352 46.3330078125 352 59 c 0
 352 74.3330078125 346.833007812 87.1669921875 336.5 97.5 c 0
 326.166992188 107.833007812 312.666992188 113 296 113 c 0
93 113 m 0
 65 113 43.6669921875 99 29 71 c 1
 25 33 23 0.6669921875 23 -26 c 0
 23 -49.3330078125 23.5 -69.3330078125 24.5 -86 c 0
 25.5 -102.666992188 26.6669921875 -115.666992188 28 -125 c 1
 41.3330078125 -117 55.1669921875 -105.166992188 69.5 -89.5 c 0
 83.8330078125 -73.8330078125 96.8330078125 -57.1669921875 108.5 -39.5 c 0
 120.166992188 -21.8330078125 129.833007812 -4.1669921875 137.5 13.5 c 0
 145.166992188 31.1669921875 149 46.3330078125 149 59 c 0
 149 74.3330078125 143.833007812 87.1669921875 133.5 97.5 c 0
 123.166992188 107.833007812 109.666992188 113 93 113 c 0
EndSplineSet
Validated: 1
EndChar

StartChar: E
Encoding: 69 69 36
Width: 502
Flags: W
HStem: 113 40<50.6314 133.618 253.631 336.988> 399 20G<-1 31 202 234> 399 20G<-1 31 202 234>
VStem: -1 32<104 419> -1 23<-124.56 69.2229 104 349> 202 32<118 419> 202 23<-124.56 -14.4137 118 349> 351 80<-7.74264 99.8506>
LayerCount: 2
Fore
SplineSet
295 113 m 0x83
 267 113 245.666992188 99 231 71 c 1
 227 33 225 0.6669921875 225 -26 c 0
 225 -49.3330078125 225.5 -69.3330078125 226.5 -86 c 0
 227.5 -102.666992188 228.666992188 -115.666992188 230 -125 c 1
 243.333007812 -117 257.166992188 -105.166992188 271.5 -89.5 c 0
 285.833007812 -73.8330078125 298.833007812 -57.1669921875 310.5 -39.5 c 0
 322.166992188 -21.8330078125 331.833007812 -4.1669921875 339.5 13.5 c 0
 347.166992188 31.1669921875 351 46.3330078125 351 59 c 0
 351 74.3330078125 345.833007812 87.1669921875 335.5 97.5 c 0
 325.166992188 107.833007812 311.666992188 113 295 113 c 0x83
-1 419 m 1xd1
 31 419 l 1
 24 104 l 1
 44 136.666992188 75 153 117 153 c 0
 150.333007812 153 178.666992188 141.333007812 202 118 c 1
 202 419 l 1
 234 419 l 1xd5
 227 104 l 1
 247 136.666992188 278 153 320 153 c 0
 334.666992188 153 348.833007812 150.5 362.5 145.5 c 0
 376.166992188 140.5 388 133.666992188 398 125 c 0
 408 116.333007812 416 106 422 94 c 0
 428 82 431 69 431 55 c 0
 430.333007812 35 423.166992188 13.8330078125 409.5 -8.5 c 0
 395.833007812 -30.8330078125 373.666992188 -54 343 -78 c 0
 319 -96 295.5 -113.333007812 272.5 -130 c 0
 249.5 -146.666992188 226 -164 202 -182 c 1
 202 -14 l 1
 194 -26 182.666992188 -38.8330078125 168 -52.5 c 0
 153.333007812 -66.1669921875 136.833007812 -80.3330078125 118.5 -95 c 0
 100.166992188 -109.666992188 80.6669921875 -124.333007812 60 -139 c 0
 39.3330078125 -153.666992188 19 -168 -1 -182 c 1xcb
 -1 419 l 1xd1
92 113 m 0
 64 113 42.6669921875 99 28 71 c 1
 24 33 22 0.6669921875 22 -26 c 0x89
 22 -49.3330078125 22.5 -69.3330078125 23.5 -86 c 0
 24.5 -102.666992188 25.6669921875 -115.666992188 27 -125 c 1
 40.3330078125 -117 54.1669921875 -105.166992188 68.5 -89.5 c 0
 82.8330078125 -73.8330078125 95.8330078125 -57.1669921875 107.5 -39.5 c 0
 119.166992188 -21.8330078125 128.833007812 -4.1669921875 136.5 13.5 c 0
 144.166992188 31.1669921875 148 46.3330078125 148 59 c 0
 148 74.3330078125 142.833007812 87.1669921875 132.5 97.5 c 0
 122.166992188 107.833007812 108.666992188 113 92 113 c 0
EndSplineSet
Validated: 1
EndChar

StartChar: F
Encoding: 70 70 37
Width: 503
Flags: W
HStem: 113 40<50.6896 134.103 253.69 337.139> 399 20G<2.62857 21.4857 203 235>
VStem: 0 25<-124.56 69.2229 104 345> 203 32<118 419> 203 23<-124.56 -14.4137 118 349> 352 80<-6.7618 99.3248>
LayerCount: 2
Fore
SplineSet
95 310 m 1xec
 25 345 l 1
 25 104 l 1
 43.6669921875 136.666992188 74.6669921875 153 118 153 c 0
 151.333007812 153 179.666992188 141.333007812 203 118 c 1
 203 419 l 1
 235 419 l 1xf4
 228 104 l 1
 246.666992188 136.666992188 277.666992188 153 321 153 c 0
 335.666992188 153 349.833007812 150.5 363.5 145.5 c 0
 377.166992188 140.5 389 133.666992188 399 125 c 0
 409 116.333007812 417 106 423 94 c 0
 429 82 432 69 432 55 c 0
 431.333007812 35 424 13.8330078125 410 -8.5 c 0
 396 -30.8330078125 374 -54 344 -78 c 0
 320 -96 296.5 -113.333007812 273.5 -130 c 0
 250.5 -146.666992188 227 -164 203 -182 c 1
 203 -14 l 1
 195 -26 183.666992188 -38.8330078125 169 -52.5 c 0
 154.333007812 -66.1669921875 137.833007812 -80.3330078125 119.5 -95 c 0
 101.166992188 -109.666992188 81.6669921875 -124.333007812 61 -139 c 0
 40.3330078125 -153.666992188 20 -168 0 -182 c 1
 0 345 l 1
 -70 310 l 1
 12 485 l 1
 95 310 l 1xec
296 113 m 0
 268 113 246.666992188 99 232 71 c 1
 228 33 226 0.6669921875 226 -26 c 0xec
 226 -49.3330078125 226.5 -69.3330078125 227.5 -86 c 0
 228.5 -102.666992188 229.666992188 -115.666992188 231 -125 c 1
 243.666992188 -117 257.166992188 -105.166992188 271.5 -89.5 c 0
 285.833007812 -73.8330078125 299 -57 311 -39 c 0
 323 -21 332.833007812 -3.1669921875 340.5 14.5 c 0
 348.166992188 32.1669921875 352 47 352 59 c 0
 352 74.3330078125 346.5 87.1669921875 335.5 97.5 c 0
 324.5 107.833007812 311.333007812 113 296 113 c 0
93 113 m 0
 65 113 43.6669921875 99 29 71 c 1
 25 33 23 0.6669921875 23 -26 c 0
 23 -49.3330078125 23.5 -69.3330078125 24.5 -86 c 0
 25.5 -102.666992188 26.6669921875 -115.666992188 28 -125 c 1
 40.6669921875 -117 54.1669921875 -105.166992188 68.5 -89.5 c 0
 82.8330078125 -73.8330078125 96 -57 108 -39 c 0
 120 -21 129.833007812 -3.1669921875 137.5 14.5 c 0
 145.166992188 32.1669921875 149 47 149 59 c 0
 149 74.3330078125 143.5 87.1669921875 132.5 97.5 c 0
 121.5 107.833007812 108.333007812 113 93 113 c 0
EndSplineSet
Validated: 1
EndChar

StartChar: G
Encoding: 71 71 38
Width: 503
Flags: W
HStem: 113 40<50.6896 134.103 253.69 337.139> 399 20G<3.51429 22.3714 203 235>
VStem: 0 25<-124.56 69.2229 104 345> 203 32<118 419> 203 23<-124.56 -14.4137 118 349> 352 80<-6.7618 99.3248>
LayerCount: 2
Fore
SplineSet
95 310 m 1xec
 25 345 l 1
 25 104 l 1
 43.6669921875 136.666992188 74.6669921875 153 118 153 c 0
 151.333007812 153 179.666992188 141.333007812 203 118 c 1
 203 419 l 1
 235 419 l 1xf4
 228 104 l 1
 246.666992188 136.666992188 277.666992188 153 321 153 c 0
 335.666992188 153 349.833007812 150.5 363.5 145.5 c 0
 377.166992188 140.5 389 133.666992188 399 125 c 0
 409 116.333007812 417 106 423 94 c 0
 429 82 432 69 432 55 c 0
 431.333007812 35 424 13.8330078125 410 -8.5 c 0
 396 -30.8330078125 374 -54 344 -78 c 0
 320 -96 296.5 -113.333007812 273.5 -130 c 0
 250.5 -146.666992188 227 -164 203 -182 c 1
 203 -14 l 1
 195 -26 183.666992188 -38.8330078125 169 -52.5 c 0
 154.333007812 -66.1669921875 137.833007812 -80.3330078125 119.5 -95 c 0
 101.166992188 -109.666992188 81.6669921875 -124.333007812 61 -139 c 0
 40.3330078125 -153.666992188 20 -168 0 -182 c 1
 0 345 l 1
 -70 310 l 1
 0 468 l 1
 -70 433 l 1
 13 608 l 1
 95 433 l 1
 25 468 l 1
 95 310 l 1xec
296 113 m 0
 268 113 246.666992188 99 232 71 c 1
 228 33 226 0.6669921875 226 -26 c 0xec
 226 -49.3330078125 226.5 -69.3330078125 227.5 -86 c 0
 228.5 -102.666992188 229.666992188 -115.666992188 231 -125 c 1
 243.666992188 -117 257.166992188 -105.166992188 271.5 -89.5 c 0
 285.833007812 -73.8330078125 299 -57 311 -39 c 0
 323 -21 332.833007812 -3.1669921875 340.5 14.5 c 0
 348.166992188 32.1669921875 352 47 352 59 c 0
 352 74.3330078125 346.5 87.1669921875 335.5 97.5 c 0
 324.5 107.833007812 311.333007812 113 296 113 c 0
93 113 m 0
 65 113 43.6669921875 99 29 71 c 1
 25 33 23 0.6669921875 23 -26 c 0
 23 -49.3330078125 23.5 -69.3330078125 24.5 -86 c 0
 25.5 -102.666992188 26.6669921875 -115.666992188 28 -125 c 1
 40.6669921875 -117 54.1669921875 -105.166992188 68.5 -89.5 c 0
 82.8330078125 -73.8330078125 96 -57 108 -39 c 0
 120 -21 129.833007812 -3.1669921875 137.5 14.5 c 0
 145.166992188 32.1669921875 149 47 149 59 c 0
 149 74.3330078125 143.5 87.1669921875 132.5 97.5 c 0
 121.5 107.833007812 108.333007812 113 93 113 c 0
EndSplineSet
Validated: 1
EndChar

StartChar: H
Encoding: 72 72 39
Width: 503
Flags: W
HStem: 113 40<50.6896 134.103 253.69 337.139> 399 20G<-40 -8.86076 3.51429 22.3714 203 235> 556 21G<-60.5143 -30 55 85.6286>
VStem: 0 25<-124.56 69.2229 104 345> 203 32<118 419> 203 23<-124.56 -14.4137 118 349> 352 80<-6.7618 99.3248>
LayerCount: 2
Fore
SplineSet
95 310 m 1xf6
 25 345 l 1
 25 104 l 1
 43.6669921875 136.666992188 74.6669921875 153 118 153 c 0
 151.333007812 153 179.666992188 141.333007812 203 118 c 1
 203 419 l 1
 235 419 l 1xfa
 228 104 l 1
 246.666992188 136.666992188 277.666992188 153 321 153 c 0
 335.666992188 153 349.833007812 150.5 363.5 145.5 c 0
 377.166992188 140.5 389 133.666992188 399 125 c 0
 409 116.333007812 417 106 423 94 c 0
 429 82 432 69 432 55 c 0
 431.333007812 35 424 13.8330078125 410 -8.5 c 0
 396 -30.8330078125 374 -54 344 -78 c 0
 320 -96 296.5 -113.333007812 273.5 -130 c 0
 250.5 -146.666992188 227 -164 203 -182 c 1
 203 -14 l 1
 195 -26 183.666992188 -38.8330078125 169 -52.5 c 0
 154.333007812 -66.1669921875 137.833007812 -80.3330078125 119.5 -95 c 0
 101.166992188 -109.666992188 81.6669921875 -124.333007812 61 -139 c 0
 40.3330078125 -153.666992188 20 -168 0 -182 c 1
 0 345 l 1
 -70 310 l 1
 0 468 l 1
 -70 433 l 1
 0 591 l 1
 -70 556 l 1
 13 731 l 1
 95 556 l 1
 25 591 l 1
 95 433 l 1
 25 468 l 1
 95 310 l 1xf6
296 113 m 0
 268 113 246.666992188 99 232 71 c 1
 228 33 226 0.6669921875 226 -26 c 0xf6
 226 -49.3330078125 226.5 -69.3330078125 227.5 -86 c 0
 228.5 -102.666992188 229.666992188 -115.666992188 231 -125 c 1
 243.666992188 -117 257.166992188 -105.166992188 271.5 -89.5 c 0
 285.833007812 -73.8330078125 299 -57 311 -39 c 0
 323 -21 332.833007812 -3.1669921875 340.5 14.5 c 0
 348.166992188 32.1669921875 352 47 352 59 c 0
 352 74.3330078125 346.5 87.1669921875 335.5 97.5 c 0
 324.5 107.833007812 311.333007812 113 296 113 c 0
93 113 m 0
 65 113 43.6669921875 99 29 71 c 1
 25 33 23 0.6669921875 23 -26 c 0
 23 -49.3330078125 23.5 -69.3330078125 24.5 -86 c 0
 25.5 -102.666992188 26.6669921875 -115.666992188 28 -125 c 1
 40.6669921875 -117 54.1669921875 -105.166992188 68.5 -89.5 c 0
 82.8330078125 -73.8330078125 96 -57 108 -39 c 0
 120 -21 129.833007812 -3.1669921875 137.5 14.5 c 0
 145.166992188 32.1669921875 149 47 149 59 c 0
 149 74.3330078125 143.5 87.1669921875 132.5 97.5 c 0
 121.5 107.833007812 108.333007812 113 93 113 c 0
EndSplineSet
Validated: 1
EndChar

StartChar: I
Encoding: 73 73 40
Width: 503
Flags: W
HStem: -844 21G<206.514 225.371> 113 40<51.6314 134.618 254.631 337.988> 399 20G<0 32 203 235> 399 20G<0 32 203 235>
VStem: 0 32<104 419> 0 23<-124.56 69.2229 104 349> 203 32<118 419> 203 25<-345 -153.78 -124.56 -14.4137 118 329> 352 80<-7.74264 99.8506>
LayerCount: 2
Fore
SplineSet
0 -182 m 1xe580
 0 419 l 1
 32 419 l 1
 25 104 l 1
 45 136.666992188 76 153 118 153 c 0
 151.333007812 153 179.666992188 141.333007812 203 118 c 1
 203 419 l 1
 235 419 l 1xea80
 228 104 l 1
 248 136.666992188 279 153 321 153 c 0
 335.666992188 153 349.833007812 150.5 363.5 145.5 c 0
 377.166992188 140.5 389 133.666992188 399 125 c 0
 409 116.333007812 417 106 423 94 c 0
 429 82 432 69 432 55 c 0
 431.333007812 35 424.166992188 13.8330078125 410.5 -8.5 c 0
 396.833007812 -30.8330078125 374.666992188 -54 344 -78 c 0
 324 -92.6669921875 304.5 -106.666992188 285.5 -120 c 0
 266.5 -133.333007812 247.333007812 -147.666992188 228 -163 c 1
 228 -345 l 1
 298 -310 l 1
 228 -468 l 1
 298 -433 l 1
 228 -591 l 1
 298 -556 l 1
 229 -704 l 1
 298 -669 l 1
 216 -844 l 1
 133 -669 l 1
 203 -704 l 1
 133 -556 l 1
 203 -591 l 1
 133 -433 l 1
 203 -468 l 1
 133 -310 l 1
 203 -345 l 1
 203 -14 l 1
 195 -26 183.666992188 -38.8330078125 169 -52.5 c 0
 154.333007812 -66.1669921875 137.833007812 -80.3330078125 119.5 -95 c 0
 101.166992188 -109.666992188 81.6669921875 -124.333007812 61 -139 c 0
 40.3330078125 -153.666992188 20 -168 0 -182 c 1xe580
296 113 m 0
 268 113 246.666992188 99 232 71 c 1
 228 33 226 0.6669921875 226 -26 c 0
 226 -49.3330078125 226.5 -69.3330078125 227.5 -86 c 0
 228.5 -102.666992188 229.666992188 -115.666992188 231 -125 c 1
 244.333007812 -117 258.166992188 -105.166992188 272.5 -89.5 c 0
 286.833007812 -73.8330078125 299.833007812 -57.1669921875 311.5 -39.5 c 0
 323.166992188 -21.8330078125 332.833007812 -4.1669921875 340.5 13.5 c 0
 348.166992188 31.1669921875 352 46.3330078125 352 59 c 0
 352 74.3330078125 346.833007812 87.1669921875 336.5 97.5 c 0
 326.166992188 107.833007812 312.666992188 113 296 113 c 0
93 113 m 0
 65 113 43.6669921875 99 29 71 c 1
 25 33 23 0.6669921875 23 -26 c 0xc480
 23 -49.3330078125 23.5 -69.3330078125 24.5 -86 c 0
 25.5 -102.666992188 26.6669921875 -115.666992188 28 -125 c 1
 41.3330078125 -117 55.1669921875 -105.166992188 69.5 -89.5 c 0
 83.8330078125 -73.8330078125 96.8330078125 -57.1669921875 108.5 -39.5 c 0
 120.166992188 -21.8330078125 129.833007812 -4.1669921875 137.5 13.5 c 0
 145.166992188 31.1669921875 149 46.3330078125 149 59 c 0
 149 74.3330078125 143.833007812 87.1669921875 133.5 97.5 c 0
 123.166992188 107.833007812 109.666992188 113 93 113 c 0
EndSplineSet
Validated: 1
EndChar

StartChar: J
Encoding: 74 74 41
Width: 503
Flags: W
HStem: 113 40<50.9564 134.103 253.956 337.083> 399 20G<-40 -8.86076 203 235> 433 21G<55 86.1392> 577 102G<-60.5143 -30 55 86.1392>
VStem: 0 25<-124.56 69.2229 104 345> 203 32<118 419> 203 23<-124.56 -14.4137 118 349> 352 80<-6.90401 99.3479>
LayerCount: 2
Fore
SplineSet
118 153 m 0xfb
 151.333007812 153 179.666992188 141.333007812 203 118 c 1
 203 419 l 1
 235 419 l 1xfd
 228 104 l 1
 238 121.333007812 251.166992188 133.833007812 267.5 141.5 c 0
 283.833007812 149.166992188 301.666992188 153 321 153 c 0
 335 153 348.666992188 150.666992188 362 146 c 0
 375.333007812 141.333007812 387.166992188 134.833007812 397.5 126.5 c 0
 407.833007812 118.166992188 416.166992188 107.833007812 422.5 95.5 c 0
 428.833007812 83.1669921875 432 69.6669921875 432 55 c 0
 432 39.6669921875 428 24.3330078125 420 9 c 0
 412 -6.3330078125 401.333007812 -21.3330078125 388 -36 c 0
 374.666992188 -50.6669921875 359.666992188 -65 343 -79 c 0
 326.333007812 -93 309.5 -106.166992188 292.5 -118.5 c 0
 275.5 -130.833007812 259.166992188 -142.333007812 243.5 -153 c 0
 227.833007812 -163.666992188 214.333007812 -173.333007812 203 -182 c 1
 203 -14 l 1
 193.666992188 -27.3330078125 180.5 -41.8330078125 163.5 -57.5 c 0
 146.5 -73.1669921875 128.166992188 -88.5 108.5 -103.5 c 0
 88.8330078125 -118.5 69.3330078125 -132.833007812 50 -146.5 c 0
 30.6669921875 -160.166992188 14 -172 0 -182 c 1
 0 345 l 1
 -70 310 l 1
 0 468 l 1
 -70 433 l 1
 0 591 l 1
 -70 556 l 1
 5 714 l 1
 0 714 l 1
 -70 679 l 1
 13 854 l 1
 95 679 l 1
 25 714 l 1
 21 714 l 1
 95 556 l 1
 25 591 l 1
 95 433 l 1
 25 468 l 1
 95 310 l 1
 25 345 l 1
 25 104 l 1
 35 121.333007812 48.1669921875 133.833007812 64.5 141.5 c 0
 80.8330078125 149.166992188 98.6669921875 153 118 153 c 0xfb
29 71 m 1
 25 33 23 0.6669921875 23 -26 c 0
 23 -49.3330078125 23.5 -69.3330078125 24.5 -86 c 0
 25.5 -102.666992188 26.6669921875 -115.666992188 28 -125 c 1
 40.6669921875 -117 54.1669921875 -105.166992188 68.5 -89.5 c 0
 82.8330078125 -73.8330078125 96 -57 108 -39 c 0
 120 -21 129.833007812 -3.1669921875 137.5 14.5 c 0
 145.166992188 32.1669921875 149 47 149 59 c 0
 149 74.3330078125 143.5 87.1669921875 132.5 97.5 c 0
 121.5 107.833007812 108.333007812 113 93 113 c 0
 65 113 43.6669921875 99 29 71 c 1
232 71 m 1
 228 33 226 0.6669921875 226 -26 c 0xfb
 226 -49.3330078125 226.5 -69.3330078125 227.5 -86 c 0
 228.5 -102.666992188 229.666992188 -115.666992188 231 -125 c 1
 243.666992188 -117 257.166992188 -105.166992188 271.5 -89.5 c 0
 285.833007812 -73.8330078125 299 -57 311 -39 c 0
 323 -21 332.833007812 -3.1669921875 340.5 14.5 c 0
 348.166992188 32.1669921875 352 47 352 59 c 0
 352 74.3330078125 346.5 87.1669921875 335.5 97.5 c 0
 324.5 107.833007812 311.333007812 113 296 113 c 0
 268 113 246.666992188 99 232 71 c 1
EndSplineSet
Validated: 1
EndChar

StartChar: K
Encoding: 75 75 42
Width: 299
Flags: W
HStem: -844 21G<2.62857 21.4857> 113 40<50.6896 134.139> 399 20G<0 32> 399 20G<0 32>
VStem: 0 32<104 419> 0 25<-345 -163 -124.56 69.2229 104 329> 149 80<-6.73151 99.3248>
LayerCount: 2
Fore
SplineSet
118 153 m 0xe6
 132.666992188 153 146.833007812 150.5 160.5 145.5 c 0
 174.166992188 140.5 186 133.666992188 196 125 c 0
 206 116.333007812 214 106 220 94 c 0
 226 82 229 69 229 55 c 0
 227.666992188 35.6669921875 220.5 14.5 207.5 -8.5 c 0
 194.5 -31.5 172.333007812 -54.6669921875 141 -78 c 2
 25 -163 l 1
 25 -345 l 1
 95 -310 l 1
 25 -468 l 1
 95 -433 l 1
 25 -591 l 1
 95 -556 l 1
 25 -704 l 1
 95 -669 l 1
 12 -844 l 1
 -70 -669 l 1
 -1 -704 l 1
 -70 -556 l 1
 0 -591 l 1
 -70 -433 l 1
 0 -468 l 1
 -70 -310 l 1
 0 -345 l 1xe6
 0 419 l 1
 32 419 l 1xea
 25 104 l 1
 43.6669921875 136.666992188 74.6669921875 153 118 153 c 0xe6
93 113 m 0
 65 113 43.6669921875 99 29 71 c 1
 25 33 23 0.6669921875 23 -26 c 0
 23 -49.3330078125 23.5 -69.3330078125 24.5 -86 c 0
 25.5 -102.666992188 26.6669921875 -115.666992188 28 -125 c 1
 40.6669921875 -117 54.1669921875 -105.166992188 68.5 -89.5 c 0
 82.8330078125 -73.8330078125 96 -57 108 -39 c 0
 120 -21 129.833007812 -3.1669921875 137.5 14.5 c 0
 145.166992188 32.1669921875 149 47 149 59 c 0
 149 74.3330078125 143.5 87.1669921875 132.5 97.5 c 0
 121.5 107.833007812 108.333007812 113 93 113 c 0
EndSplineSet
Validated: 1
EndChar

StartChar: L
Encoding: 76 76 43
Width: 299
Flags: W
HStem: 113 40<50.6896 134.139> 433 21G<55 86.1392> 448 20G<-40 -8.86076> 577 102G<-60.5143 -30 55 86.1392>
VStem: 0 25<-124.56 69.2229 104 345> 149 80<-6.73151 99.3248>
LayerCount: 2
Fore
SplineSet
118 153 m 0xbc
 132.666992188 153 146.833007812 150.5 160.5 145.5 c 0
 174.166992188 140.5 186 133.666992188 196 125 c 0
 206 116.333007812 214 106 220 94 c 0
 226 82 229 69 229 55 c 0
 227.666992188 35.6669921875 220.5 14.5 207.5 -8.5 c 0
 194.5 -31.5 172.333007812 -54.6669921875 141 -78 c 2
 0 -182 l 1
 0 345 l 1
 -70 310 l 1
 0 468 l 1xbc
 -70 433 l 1
 0 591 l 1
 -70 556 l 1
 5 714 l 1
 0 714 l 1
 -70 679 l 1
 13 854 l 1
 95 679 l 1
 25 714 l 1
 21 714 l 1
 95 556 l 1
 25 591 l 1
 95 433 l 1xdc
 25 468 l 1
 95 310 l 1
 25 345 l 1
 25 104 l 1
 43.6669921875 136.666992188 74.6669921875 153 118 153 c 0xbc
93 113 m 0
 65 113 43.6669921875 99 29 71 c 1
 25 33 23 0.6669921875 23 -26 c 0
 23 -49.3330078125 23.5 -69.3330078125 24.5 -86 c 0
 25.5 -102.666992188 26.6669921875 -115.666992188 28 -125 c 1
 40.6669921875 -117 54.1669921875 -105.166992188 68.5 -89.5 c 0
 82.8330078125 -73.8330078125 96 -57 108 -39 c 0
 120 -21 129.833007812 -3.1669921875 137.5 14.5 c 0
 145.166992188 32.1669921875 149 47 149 59 c 0
 149 74.3330078125 143.5 87.1669921875 132.5 97.5 c 0
 121.5 107.833007812 108.333007812 113 93 113 c 0
EndSplineSet
Validated: 1
EndChar

StartChar: M
Encoding: 77 77 44
Width: 269
Flags: W
HStem: 323 20G<0 25> 323 20G<0 25>
VStem: 0 25<-105 61 142 343> 153 25<-345 -140 -59 108>
LayerCount: 2
Fore
SplineSet
173 -714 m 1xb0
 177 -714 l 1
 247 -679 l 1
 165 -854 l 1
 82 -679 l 1
 152 -714 l 1
 157 -714 l 1
 82 -556 l 1
 152 -591 l 1
 82 -433 l 1
 152 -468 l 1
 82 -310 l 1
 152 -345 l 1
 153 -140 l 1
 0 -193 l 1
 0 343 l 1
 25 343 l 1
 25 142 l 1
 178 196 l 1
 177 -345 l 1
 247 -310 l 1
 177 -468 l 1
 247 -433 l 1
 177 -591 l 1
 247 -556 l 1
 173 -714 l 1xb0
25 -105 m 1
 153 -59 l 1
 153 108 l 1
 25 61 l 1
 25 -105 l 1
EndSplineSet
Validated: 1
EndChar

StartChar: N
Encoding: 78 78 45
Width: 269
Flags: W
HStem: -340 21G<153 178> 433 21G<55 86.1392> 448 20G<-40 -8.86076> 556 21G<-60.6757 -30 55 86.1392>
VStem: 0 25<-105 61 142 345> 153 25<-340 -140 -59 108>
LayerCount: 2
Fore
SplineSet
25 345 m 1xbc
 25 142 l 1
 178 196 l 1
 178 -340 l 1
 153 -340 l 1
 153 -140 l 1
 0 -193 l 1
 0 345 l 1
 -70 310 l 1
 0 468 l 1xbc
 -70 433 l 1
 0 591 l 1
 -70 556 l 1
 -1 704 l 1
 -70 669 l 1
 12 844 l 1
 95 669 l 1
 25 704 l 1
 95 556 l 1
 25 591 l 1
 95 433 l 1xdc
 25 468 l 1
 95 310 l 1
 25 345 l 1xbc
25 -105 m 1
 153 -59 l 1
 153 108 l 1
 25 61 l 1
 25 -105 l 1
EndSplineSet
Validated: 1
EndChar

StartChar: O
Encoding: 79 79 46
Width: 320
Flags: W
HStem: -844 21G<175.629 194.486> 324 20G<173 198> 324 20G<173 198>
VStem: 52 25<-263 -199 -101 64 162 312> 173 25<-345 -160 -62 103 201 344>
LayerCount: 2
Fore
SplineSet
198 -704 m 1xd8
 268 -669 l 1
 185 -844 l 1
 103 -669 l 1
 172 -704 l 1
 103 -556 l 1
 173 -591 l 1
 103 -433 l 1
 173 -468 l 1
 103 -310 l 1
 173 -345 l 1
 173 -160 l 1
 77 -191 l 1
 77 -263 l 1
 52 -263 l 1
 52 -199 l 1
 0 -215 l 1
 0 -125 l 1
 52 -107 l 1
 52 64 l 1
 0 47 l 1
 0 138 l 1
 52 155 l 1
 52 312 l 1
 77 312 l 1
 77 162 l 1
 173 194 l 1
 173 344 l 1
 198 344 l 1
 198 201 l 1
 250 218 l 1
 250 127 l 1
 198 110 l 1
 198 -62 l 1
 250 -44 l 1
 250 -136 l 1
 198 -152 l 1
 198 -345 l 1
 268 -310 l 1
 198 -468 l 1
 268 -433 l 1
 198 -591 l 1
 268 -556 l 1
 198 -704 l 1xd8
173 103 m 1
 77 71 l 1
 77 -101 l 1
 173 -68 l 1
 173 103 l 1
EndSplineSet
Validated: 1
EndChar

StartChar: P
Encoding: 80 80 47
Width: 320
Flags: W
HStem: 433 21G<107 138.139> 556 21G<-8.66667 22 107 138.139>
VStem: 52 25<-342 -199 -101 64 162 345> 173 25<-310 -160 -62 103 201 264>
LayerCount: 2
Fore
SplineSet
77 345 m 1
 77 162 l 1
 173 194 l 1
 173 264 l 1
 198 264 l 1
 198 201 l 1
 250 218 l 1
 250 127 l 1
 198 110 l 1
 198 -62 l 1
 250 -45 l 1
 250 -136 l 1
 198 -153 l 1
 198 -310 l 1
 173 -310 l 1
 173 -160 l 1
 77 -192 l 1
 77 -342 l 1
 52 -342 l 1
 52 -199 l 1
 0 -216 l 1
 0 -125 l 1
 52 -108 l 1
 52 64 l 1
 0 47 l 1
 0 138 l 1
 52 155 l 1
 52 345 l 1
 -18 310 l 1
 52 468 l 1
 -18 433 l 1
 52 591 l 1
 -18 556 l 1
 45 691 l 1
 -18 659 l 1
 64 834 l 5
 147 659 l 1
 83 691 l 1
 147 556 l 1
 77 591 l 1
 147 433 l 1
 77 468 l 1
 147 310 l 1
 77 345 l 1
173 103 m 1
 77 71 l 1
 77 -101 l 1
 173 -69 l 1
 173 103 l 1
EndSplineSet
Validated: 1
EndChar

StartChar: Q
Encoding: 81 81 48
Width: 323
Flags: W
HStem: -126 73<0 71.3394 182.741 253> 51 73<0 73 180 253> 448 20G<73 104.139> 556 21G<52.4595 83 168.571 198.629>
VStem: 0 73<-126 -53.7393 51.7393 124> 113 25<160 345> 180 73<-126 -55.9219 53.9219 124>
LayerCount: 2
Fore
SplineSet
208 433 m 1
 138 468 l 1
 208 310 l 1
 138 345 l 1
 138 160 l 1
 113 160 l 1
 113 345 l 1
 43 310 l 1
 113 468 l 1
 43 433 l 1
 113 591 l 1
 43 556 l 1
 113 704 l 1
 43 669 l 1
 126 844 l 1
 208 669 l 1
 139 704 l 1
 208 556 l 1
 138 591 l 1
 208 433 l 1
253 124 m 1
 253 51 l 1
 245 51 l 2
 211 51 176.666992188 34 142 0 c 1
 175.333007812 -33.3330078125 212.333007812 -51 253 -53 c 1
 253 -126 l 1
 180 -126 l 1
 180 -88 162 -51 126 -15 c 1
 90.6669921875 -50.3330078125 73 -87.3330078125 73 -126 c 1
 0 -126 l 1
 0 -53 l 1
 37.3330078125 -53 74.3330078125 -35.3330078125 111 0 c 1
 75.6669921875 34 38.6669921875 51 0 51 c 1
 0 124 l 1
 73 124 l 1
 73 85.3330078125 90.6669921875 48.3330078125 126 13 c 1
 162 49 180 86 180 124 c 1
 253 124 l 1
EndSplineSet
Validated: 1
EndChar

StartChar: R
Encoding: 82 82 49
Width: 323
Flags: W
HStem: -844 21G<116.514 135.371> -124 73<0 73 180 253> 53 73<0 72.2607 182.741 253>
VStem: 0 73<-124 -51.7393 53.7393 126> 113 25<-345 -160> 180 73<-124 -53.9219 55.9219 126>
LayerCount: 2
Fore
SplineSet
139 -704 m 1
 208 -669 l 1
 126 -844 l 1
 43 -669 l 1
 113 -704 l 1
 43 -556 l 1
 113 -591 l 1
 43 -433 l 1
 113 -468 l 1
 43 -310 l 1
 113 -345 l 1
 113 -160 l 1
 138 -160 l 1
 138 -345 l 1
 208 -310 l 1
 138 -468 l 1
 208 -433 l 1
 138 -591 l 1
 208 -556 l 1
 139 -704 l 1
180 -124 m 1
 180 -86 162 -49 126 -13 c 1
 90.6669921875 -48.3330078125 73 -85.3330078125 73 -124 c 1
 0 -124 l 1
 0 -51 l 1
 38.6669921875 -51 75.6669921875 -34 111 0 c 1
 75.6669921875 35.3330078125 38.6669921875 53 0 53 c 1
 0 126 l 1
 73 126 l 1
 73 87.3330078125 90.6669921875 50.3330078125 126 15 c 1
 162 51 180 88 180 126 c 1
 253 126 l 1
 253 53 l 1
 212.333007812 51 175.333007812 33.3330078125 142 0 c 1
 176.666992188 -34 211 -51 245 -51 c 2
 253 -51 l 1
 253 -124 l 1
 180 -124 l 1
EndSplineSet
Validated: 1
EndChar

StartChar: S
Encoding: 83 83 50
Width: 323
Flags: W
HStem: -124 73<0 73 180 253> 53 73<0 72.2607 182.741 253>
VStem: 0 73<-124 -51.7393 53.7393 126> 113 25<-345 -160> 180 73<-124 -53.9219 55.9219 126>
LayerCount: 2
Fore
SplineSet
208 -556 m 1
 126 -731 l 1
 43 -556 l 1
 113 -591 l 1
 43 -433 l 1
 113 -468 l 1
 43 -310 l 1
 113 -345 l 1
 113 -160 l 1
 138 -160 l 1
 138 -345 l 1
 208 -310 l 1
 138 -468 l 1
 208 -433 l 1
 138 -591 l 1
 208 -556 l 1
180 -124 m 1
 180 -86 162 -49 126 -13 c 1
 90.6669921875 -48.3330078125 73 -85.3330078125 73 -124 c 1
 0 -124 l 1
 0 -51 l 1
 38.6669921875 -51 75.6669921875 -34 111 0 c 1
 75.6669921875 35.3330078125 38.6669921875 53 0 53 c 1
 0 126 l 1
 73 126 l 1
 73 87.3330078125 90.6669921875 50.3330078125 126 15 c 1
 162 51 180 88 180 126 c 1
 253 126 l 1
 253 53 l 1
 212.333007812 51 175.333007812 33.3330078125 142 0 c 1
 176.666992188 -34 211 -51 245 -51 c 2
 253 -51 l 1
 253 -124 l 1
 180 -124 l 1
EndSplineSet
Validated: 1
EndChar

StartChar: T
Encoding: 84 84 51
Width: 323
Flags: W
HStem: -124 73<0 73 180 253> 53 73<0 72.2607 182.741 253>
VStem: 0 73<-124 -51.7393 53.7393 126> 113 25<-345 -160> 180 73<-124 -53.9219 55.9219 126>
LayerCount: 2
Fore
SplineSet
180 -124 m 1
 180 -86 162 -49 126 -13 c 1
 90.6669921875 -48.3330078125 73 -85.3330078125 73 -124 c 1
 0 -124 l 1
 0 -51 l 1
 38.6669921875 -51 75.6669921875 -34 111 0 c 1
 75.6669921875 35.3330078125 38.6669921875 53 0 53 c 1
 0 126 l 1
 73 126 l 1
 73 87.3330078125 90.6669921875 50.3330078125 126 15 c 1
 162 51 180 88 180 126 c 1
 253 126 l 1
 253 53 l 1
 212.333007812 51 175.333007812 33.3330078125 142 0 c 1
 176.666992188 -34 211 -51 245 -51 c 2
 253 -51 l 1
 253 -124 l 1
 180 -124 l 1
208 -433 m 1
 126 -608 l 1
 43 -433 l 1
 113 -468 l 1
 43 -310 l 1
 113 -345 l 1
 113 -160 l 1
 138 -160 l 1
 138 -345 l 1
 208 -310 l 1
 138 -468 l 1
 208 -433 l 1
EndSplineSet
Validated: 1
EndChar

StartChar: U
Encoding: 85 85 52
Width: 323
Flags: W
HStem: -124 73<0 73 180 253> 53 73<0 72.2607 182.741 253>
VStem: 0 73<-124 -51.7393 53.7393 126> 113 25<-345 -160> 180 73<-124 -53.9219 55.9219 126>
LayerCount: 2
Fore
SplineSet
180 -124 m 1
 180 -86 162 -49 126 -13 c 1
 90.6669921875 -48.3330078125 73 -85.3330078125 73 -124 c 1
 0 -124 l 1
 0 -51 l 1
 38.6669921875 -51 75.6669921875 -34 111 0 c 1
 75.6669921875 35.3330078125 38.6669921875 53 0 53 c 1
 0 126 l 1
 73 126 l 1
 73 87.3330078125 90.6669921875 50.3330078125 126 15 c 1
 162 51 180 88 180 126 c 1
 253 126 l 1
 253 53 l 1
 212.333007812 51 175.333007812 33.3330078125 142 0 c 1
 176.666992188 -34 211 -51 245 -51 c 2
 253 -51 l 1
 253 -124 l 1
 180 -124 l 1
208 -310 m 1
 126 -485 l 1
 43 -310 l 1
 113 -345 l 1
 113 -160 l 1
 138 -160 l 1
 138 -345 l 1
 208 -310 l 1
EndSplineSet
Validated: 1
EndChar

StartChar: V
Encoding: 86 86 53
Width: 323
Flags: W
HStem: -127 73<0 72.2607 182.741 253> 50 73<0 73 180 253>
VStem: 0 73<-127 -54.7393 50.7393 123> 180 73<-127 -56.9219 52.9219 123>
LayerCount: 2
Fore
SplineSet
253 123 m 1
 253 50 l 1
 245 50 l 2
 211 50 176.666992188 33 142 -1 c 1
 175.333007812 -34.3330078125 212.333007812 -52 253 -54 c 1
 253 -127 l 1
 180 -127 l 1
 180 -89 162 -52 126 -16 c 1
 90.6669921875 -51.3330078125 73 -88.3330078125 73 -127 c 1
 0 -127 l 1
 0 -54 l 1
 38.6669921875 -54 75.6669921875 -36.3330078125 111 -1 c 1
 75.6669921875 33 38.6669921875 50 0 50 c 1
 0 123 l 1
 73 123 l 1
 73 84.3330078125 90.6669921875 47.3330078125 126 12 c 1
 162 48 180 85 180 123 c 1
 253 123 l 1
EndSplineSet
Validated: 1
EndChar

StartChar: W
Encoding: 87 87 54
Width: 323
Flags: W
HStem: -127 73<0 72.2607 182.741 253> 50 73<0 73 180 253> 465 20G<115.514 134.371>
VStem: 0 73<-127 -54.7393 50.7393 123> 112 25<160 350> 180 73<-127 -56.9219 52.9219 123>
LayerCount: 2
Fore
SplineSet
253 123 m 1
 253 50 l 1
 245 50 l 2
 211 50 176.666992188 33 142 -1 c 1
 175.333007812 -34.3330078125 212.333007812 -52 253 -54 c 1
 253 -127 l 1
 180 -127 l 1
 180 -89 162 -52 126 -16 c 1
 90.6669921875 -51.3330078125 73 -88.3330078125 73 -127 c 1
 0 -127 l 1
 0 -54 l 1
 38.6669921875 -54 75.6669921875 -36.3330078125 111 -1 c 1
 75.6669921875 33 38.6669921875 50 0 50 c 1
 0 123 l 1
 73 123 l 1
 73 84.3330078125 90.6669921875 47.3330078125 126 12 c 1
 162 48 180 85 180 123 c 1
 253 123 l 1
137 350 m 1
 137 160 l 1
 112 160 l 1
 112 350 l 1
 42 310 l 1
 125 485 l 1
 207 310 l 1
 137 350 l 1
EndSplineSet
Validated: 1
EndChar

StartChar: X
Encoding: 88 88 55
Width: 323
Flags: W
HStem: -127 73<0 72.2607 182.741 253> 50 73<0 73 180 253> 433 21G<52.4857 83 168 198.629> 433 21G<52.4857 83 168 198.629> 588 20G<116.514 135.371>
VStem: 0 73<-127 -54.7393 50.7393 123> 113 25<159 345> 180 73<-127 -56.9219 52.9219 123>
LayerCount: 2
Fore
SplineSet
253 123 m 1xcf
 253 50 l 1
 245 50 l 2
 211 50 176.666992188 33 142 -1 c 1
 175.333007812 -34.3330078125 212.333007812 -52 253 -54 c 1
 253 -127 l 1
 180 -127 l 1
 180 -89 162 -52 126 -16 c 1
 90.6669921875 -51.3330078125 73 -88.3330078125 73 -127 c 1
 0 -127 l 1
 0 -54 l 1
 38.6669921875 -54 75.6669921875 -36.3330078125 111 -1 c 1
 75.6669921875 33 38.6669921875 50 0 50 c 1
 0 123 l 1
 73 123 l 1
 73 84.3330078125 90.6669921875 47.3330078125 126 12 c 1
 162 48 180 85 180 123 c 1
 253 123 l 1xcf
138 468 m 1
 208 310 l 1
 138 345 l 1
 138 159 l 1
 113 159 l 1
 113 345 l 1
 43 310 l 1
 113 468 l 1
 43 433 l 1
 126 608 l 1
 208 433 l 1xdf
 138 468 l 1
EndSplineSet
Validated: 1
EndChar

StartChar: Y
Encoding: 89 89 56
Width: 323
Flags: W
HStem: -126 73<0 71.3394 182.741 253> 51 73<0 73 180 253> 448 20G<73 104.139 116.514 135.371 146.861 178> 556 21G<52.4857 83>
VStem: 0 73<-126 -53.7393 51.7393 124> 113 25<160 345> 180 73<-126 -55.9219 53.9219 124>
LayerCount: 2
Fore
SplineSet
138 591 m 1
 208 433 l 1
 138 468 l 1
 208 310 l 1
 138 345 l 1
 138 160 l 1
 113 160 l 1
 113 345 l 1
 43 310 l 1
 113 468 l 1
 43 433 l 1
 113 591 l 1
 43 556 l 1
 126 731 l 1
 208 556 l 1
 138 591 l 1
253 124 m 1
 253 51 l 1
 245 51 l 2
 211 51 176.666992188 34 142 0 c 1
 175.333007812 -33.3330078125 212.333007812 -51 253 -53 c 1
 253 -126 l 1
 180 -126 l 1
 180 -88 162 -51 126 -15 c 1
 90.6669921875 -50.3330078125 73 -87.3330078125 73 -126 c 1
 0 -126 l 1
 0 -53 l 1
 37.3330078125 -53 74.3330078125 -35.3330078125 111 0 c 1
 75.6669921875 34 38.6669921875 51 0 51 c 1
 0 124 l 1
 73 124 l 1
 73 85.3330078125 90.6669921875 48.3330078125 126 13 c 1
 162 49 180 86 180 124 c 1
 253 124 l 1
EndSplineSet
Validated: 1
EndChar

StartChar: Z
Encoding: 90 90 57
Width: 322
Flags: W
HStem: -126 73<0 71.3898 181.741 252> 51 73<0 72 179 252> 285 25<43 113 138 208>
VStem: 0 72<-126 -53.7393 51.7393 124> 113 25<160 285> 179 73<-126 -55.9219 53.9219 124>
LayerCount: 2
Fore
SplineSet
252 124 m 1
 252 51 l 1
 244 51 l 2
 210 51 175.666992188 34 141 0 c 1
 174.333007812 -33.3330078125 211.333007812 -51 252 -53 c 1
 252 -126 l 1
 179 -126 l 1
 179 -88 161 -51 125 -15 c 1
 89.6669921875 -50.3330078125 72 -87.3330078125 72 -126 c 1
 0 -126 l 1
 0 -53 l 1
 38 -53 74.6669921875 -35.3330078125 110 0 c 1
 74.6669921875 34 38 51 0 51 c 1
 0 124 l 1
 72 124 l 1
 72 85.3330078125 89.6669921875 48.3330078125 125 13 c 1
 161 49 179 86 179 124 c 1
 252 124 l 1
208 285 m 1
 138 285 l 1
 138 160 l 1
 113 160 l 1
 113 285 l 1
 43 285 l 1
 43 310 l 1
 208 310 l 1
 208 285 l 1
EndSplineSet
Validated: 1
EndChar

StartChar: bracketleft
Encoding: 91 91 58
Width: 178
Flags: W
HStem: -219 19<37 108> 200 19<37 108>
VStem: 0 37<-200 200>
LayerCount: 2
Fore
SplineSet
108 -219 m 1
 0 -219 l 1
 0 219 l 1
 108 219 l 1
 108 200 l 1
 37 200 l 1
 37 -200 l 1
 108 -200 l 1
 108 -219 l 1
EndSplineSet
Validated: 1
EndChar

StartChar: backslash
Encoding: 92 92 59
Width: 258
Flags: W
HStem: -96 191
VStem: 0 198
LayerCount: 2
Fore
SplineSet
198 -96 m 5
 0 48 l 5
 0 95 l 5
 198 -48 l 5
 198 -96 l 5
EndSplineSet
Validated: 1
EndChar

StartChar: bracketright
Encoding: 93 93 60
Width: 176
Flags: W
HStem: -219 19<0 69> 200 19<0 69>
VStem: 69 37<-200 200>
LayerCount: 2
Fore
SplineSet
0 219 m 1
 106 219 l 1
 106 -219 l 1
 0 -219 l 1
 0 -200 l 1
 69 -200 l 1
 69 200 l 1
 0 200 l 1
 0 219 l 1
EndSplineSet
Validated: 1
EndChar

StartChar: asciicircum
Encoding: 94 94 61
Width: 215
Flags: W
VStem: 70 25<-351 -106>
LayerCount: 2
Fore
SplineSet
95 -106 m 5
 95 -351 l 5
 70 -351 l 5
 70 -106 l 5
 0 -141 l 5
 82 34 l 5
 165 -141 l 5
 95 -106 l 5
EndSplineSet
Validated: 1
EndChar

StartChar: underscore
Encoding: 95 95 62
Width: 215
Flags: W
HStem: 331 20G<70 95>
VStem: 70 25<106 351>
LayerCount: 2
Fore
SplineSet
165 141 m 5
 82 -34 l 5
 0 141 l 5
 70 106 l 5
 70 351 l 5
 95 351 l 5
 95 106 l 5
 165 141 l 5
EndSplineSet
Validated: 1
EndChar

StartChar: grave
Encoding: 96 96 63
Width: 258
Flags: W
VStem: 0 198
LayerCount: 2
Fore
SplineSet
198 -239 m 5
 0 -111 l 1
 0 -63 l 1
 198 -191 l 5
 198 -239 l 5
198 -83 m 5
 0 45 l 1
 0 93 l 1
 198 -35 l 5
 198 -83 l 5
198 73 m 5
 0 201 l 1
 0 249 l 1
 198 121 l 5
 198 73 l 5
EndSplineSet
Validated: 1
EndChar

StartChar: a
Encoding: 97 97 64
Width: 298
Flags: W
HStem: 113 40<50.5924 133.988> 425 25<-70 0 25 95>
VStem: 0 25<-124.56 69.2229 104 425> 148 80<-7.96951 99.8506>
LayerCount: 2
Fore
SplineSet
95 425 m 1
 25 425 l 1
 25 104 l 1
 43.6669921875 136.666992188 74.3330078125 153 117 153 c 0
 131.666992188 153 145.833007812 150.5 159.5 145.5 c 0
 173.166992188 140.5 185 133.666992188 195 125 c 0
 205 116.333007812 213 106 219 94 c 0
 225 82 228 69 228 55 c 0
 226.666992188 35.6669921875 219.666992188 14.3330078125 207 -9 c 0
 194.333007812 -32.3330078125 172 -55.3330078125 140 -78 c 2
 0 -182 l 1
 0 425 l 1
 -70 425 l 1
 -70 450 l 1
 95 450 l 1
 95 425 l 1
92 113 m 0
 64 113 42.6669921875 99 28 71 c 1
 24 33 22 0.6669921875 22 -26 c 0
 22 -49.3330078125 22.5 -69.3330078125 23.5 -86 c 0
 24.5 -102.666992188 25.6669921875 -115.666992188 27 -125 c 1
 40.3330078125 -117 54.1669921875 -105.166992188 68.5 -89.5 c 0
 82.8330078125 -73.8330078125 95.8330078125 -57.1669921875 107.5 -39.5 c 0
 119.166992188 -21.8330078125 128.833007812 -4.1669921875 136.5 13.5 c 0
 144.166992188 31.1669921875 148 46.3330078125 148 59 c 0
 148 74.3330078125 142.833007812 87.1669921875 132.5 97.5 c 0
 122.166992188 107.833007812 108.666992188 113 92 113 c 0
EndSplineSet
Validated: 1
EndChar

StartChar: b
Encoding: 98 98 65
Width: 299
Flags: W
HStem: 113 40<50.6896 134.139> 399 20G<0 32> 399 20G<0 32>
VStem: 0 32<104 419> 0 25<-345 -163 -124.56 69.2229 104 329> 149 80<-6.73151 99.3248>
LayerCount: 2
Fore
SplineSet
95 -556 m 1xcc
 12 -731 l 1
 -70 -556 l 1
 0 -591 l 1
 -70 -433 l 1
 0 -468 l 1
 -70 -310 l 1
 0 -345 l 1xcc
 0 419 l 1
 32 419 l 1xd4
 25 104 l 1
 43.6669921875 136.666992188 74.6669921875 153 118 153 c 0
 132.666992188 153 146.833007812 150.5 160.5 145.5 c 0
 174.166992188 140.5 186 133.666992188 196 125 c 0
 206 116.333007812 214 106 220 94 c 0
 226 82 229 69 229 55 c 0
 227.666992188 35.6669921875 220.5 14.5 207.5 -8.5 c 0
 194.5 -31.5 172.333007812 -54.6669921875 141 -78 c 2
 25 -163 l 1
 25 -345 l 1
 95 -310 l 1
 25 -468 l 1
 95 -433 l 1
 25 -591 l 1
 95 -556 l 1xcc
93 113 m 0
 65 113 43.6669921875 99 29 71 c 1
 25 33 23 0.6669921875 23 -26 c 0
 23 -49.3330078125 23.5 -69.3330078125 24.5 -86 c 0
 25.5 -102.666992188 26.6669921875 -115.666992188 28 -125 c 1
 40.6669921875 -117 54.1669921875 -105.166992188 68.5 -89.5 c 0
 82.8330078125 -73.8330078125 96 -57 108 -39 c 0
 120 -21 129.833007812 -3.1669921875 137.5 14.5 c 0
 145.166992188 32.1669921875 149 47 149 59 c 0
 149 74.3330078125 143.5 87.1669921875 132.5 97.5 c 0
 121.5 107.833007812 108.333007812 113 93 113 c 0
EndSplineSet
Validated: 1
EndChar

StartChar: c
Encoding: 99 99 66
Width: 299
Flags: W
HStem: 113 40<50.6896 134.139> 399 20G<0 32> 399 20G<0 32>
VStem: 0 32<104 419> 0 25<-345 -163 -124.56 69.2229 104 329> 149 80<-6.73151 99.3248>
LayerCount: 2
Fore
SplineSet
95 -433 m 1xcc
 12 -608 l 1
 -70 -433 l 1
 0 -468 l 1
 -70 -310 l 1
 0 -345 l 1xcc
 0 419 l 1
 32 419 l 1xd4
 25 104 l 1
 43.6669921875 136.666992188 74.6669921875 153 118 153 c 0
 132.666992188 153 146.833007812 150.5 160.5 145.5 c 0
 174.166992188 140.5 186 133.666992188 196 125 c 0
 206 116.333007812 214 106 220 94 c 0
 226 82 229 69 229 55 c 0
 227.666992188 35.6669921875 220.5 14.5 207.5 -8.5 c 0
 194.5 -31.5 172.333007812 -54.6669921875 141 -78 c 2
 25 -163 l 1
 25 -345 l 1
 95 -310 l 1
 25 -468 l 1
 95 -433 l 1xcc
93 113 m 0
 65 113 43.6669921875 99 29 71 c 1
 25 33 23 0.6669921875 23 -26 c 0
 23 -49.3330078125 23.5 -69.3330078125 24.5 -86 c 0
 25.5 -102.666992188 26.6669921875 -115.666992188 28 -125 c 1
 40.6669921875 -117 54.1669921875 -105.166992188 68.5 -89.5 c 0
 82.8330078125 -73.8330078125 96 -57 108 -39 c 0
 120 -21 129.833007812 -3.1669921875 137.5 14.5 c 0
 145.166992188 32.1669921875 149 47 149 59 c 0
 149 74.3330078125 143.5 87.1669921875 132.5 97.5 c 0
 121.5 107.833007812 108.333007812 113 93 113 c 0
EndSplineSet
Validated: 1
EndChar

StartChar: d
Encoding: 100 100 67
Width: 298
Flags: W
HStem: 113 40<49.6896 133.139> 399 20G<0 31> 399 20G<0 31>
VStem: 0 25<-345 -163 -124.56 -86 -26 69.2229 104 104> 148 80<-6.73151 99.3248>
LayerCount: 2
Fore
SplineSet
95 -310 m 1xd8
 12 -485 l 1
 -70 -310 l 1
 0 -345 l 1
 0 419 l 1
 31 419 l 1
 24 104 l 1
 42.6669921875 136.666992188 73.6669921875 153 117 153 c 0
 131.666992188 153 145.833007812 150.5 159.5 145.5 c 0
 173.166992188 140.5 185 133.666992188 195 125 c 0
 205 116.333007812 213 106 219 94 c 0
 225 82 228 69 228 55 c 0
 226.666992188 35.6669921875 219.5 14.5 206.5 -8.5 c 0
 193.5 -31.5 171.333007812 -54.6669921875 140 -78 c 2
 25 -163 l 1
 25 -345 l 1
 95 -310 l 1xd8
92 113 m 0
 64 113 42.6669921875 99 28 71 c 1
 24 33 22 0.6669921875 22 -26 c 0
 22 -49.3330078125 22.5 -69.3330078125 23.5 -86 c 0
 24.5 -102.666992188 25.6669921875 -115.666992188 27 -125 c 1
 39.6669921875 -117 53.1669921875 -105.166992188 67.5 -89.5 c 0
 81.8330078125 -73.8330078125 95 -57 107 -39 c 0
 119 -21 128.833007812 -3.1669921875 136.5 14.5 c 0
 144.166992188 32.1669921875 148 47 148 59 c 0
 148 74.3330078125 142.5 87.1669921875 131.5 97.5 c 0
 120.5 107.833007812 107.333007812 113 92 113 c 0
EndSplineSet
Validated: 1
EndChar

StartChar: e
Encoding: 101 101 68
Width: 299
Flags: W
HStem: 113 40<50.6896 134.139> 399 20G<0 32> 399 20G<0 32>
VStem: 0 32<104 419> 0 23<-124.56 69.2229 104 349> 149 80<-6.73151 99.3248>
LayerCount: 2
Fore
SplineSet
0 419 m 5xd4
 32 419 l 1xd4
 25 104 l 1
 43.6669921875 136.666992188 74.6669921875 153 118 153 c 0
 132.666992188 153 146.833007812 150.5 160.5 145.5 c 0
 174.166992188 140.5 186 133.666992188 196 125 c 0
 206 116.333007812 214 106 220 94 c 0
 226 82 229 69 229 55 c 0
 227.666992188 35.6669921875 220.5 14.5 207.5 -8.5 c 0
 194.5 -31.5 172.333007812 -54.6669921875 141 -78 c 2
 0 -182 l 1xcc
 0 419 l 5xd4
93 113 m 0
 65 113 43.6669921875 99 29 71 c 1
 25 33 23 0.6669921875 23 -26 c 0x8c
 23 -49.3330078125 23.5 -69.3330078125 24.5 -86 c 0
 25.5 -102.666992188 26.6669921875 -115.666992188 28 -125 c 1
 40.6669921875 -117 54.1669921875 -105.166992188 68.5 -89.5 c 0
 82.8330078125 -73.8330078125 96 -57 108 -39 c 0
 120 -21 129.833007812 -3.1669921875 137.5 14.5 c 0
 145.166992188 32.1669921875 149 47 149 59 c 0
 149 74.3330078125 143.5 87.1669921875 132.5 97.5 c 0
 121.5 107.833007812 108.333007812 113 93 113 c 0
EndSplineSet
Validated: 1
EndChar

StartChar: f
Encoding: 102 102 69
Width: 297
Flags: W
HStem: 113 40<50.5924 133.943> 465 20G<2.62857 21.4857>
VStem: 0 25<-124.56 69.2231 104 345> 148 81<-6.96615 99.8506>
LayerCount: 2
Fore
SplineSet
95 310 m 1
 25 345 l 1
 25 104 l 1
 43.6669921875 136.666992188 74.3330078125 153 117 153 c 0
 132.333007812 153 146.666992188 150.5 160 145.5 c 0
 173.333007812 140.5 185 133.666992188 195 125 c 0
 205 116.333007812 213 106 219 94 c 0
 225 82 228.333007812 69 229 55 c 0
 226.333007812 35.6669921875 218.833007812 14.3330078125 206.5 -9 c 0
 194.166992188 -32.3330078125 172 -55.3330078125 140 -78 c 2
 0 -182 l 1
 0 345 l 1
 -70 310 l 1
 12 485 l 1
 95 310 l 1
92 113 m 0
 64 113 42.6669921875 99 28 71 c 1
 24 33 22 1 22 -25 c 0
 22 -49 22.5 -69.3330078125 23.5 -86 c 0
 24.5 -102.666992188 25.6669921875 -115.666992188 27 -125 c 1
 40.3330078125 -117 54.1669921875 -105.166992188 68.5 -89.5 c 0
 82.8330078125 -73.8330078125 95.8330078125 -57 107.5 -39 c 0
 119.166992188 -21 128.833007812 -3.1669921875 136.5 14.5 c 0
 144.166992188 32.1669921875 148 47 148 59 c 0
 148 74.3330078125 142.833007812 87.1669921875 132.5 97.5 c 0
 122.166992188 107.833007812 108.666992188 113 92 113 c 0
EndSplineSet
Validated: 1
EndChar

StartChar: g
Encoding: 103 103 70
Width: 299
Flags: W
HStem: 113 40<50.6896 134.139> 588 20G<2.62857 21.4857>
VStem: 0 25<-124.56 69.2229 104 345> 149 80<-6.73151 99.3248>
LayerCount: 2
Fore
SplineSet
95 310 m 1
 25 345 l 1
 25 104 l 1
 43.6669921875 136.666992188 74.6669921875 153 118 153 c 0
 132.666992188 153 146.833007812 150.5 160.5 145.5 c 0
 174.166992188 140.5 186 133.666992188 196 125 c 0
 206 116.333007812 214 106 220 94 c 0
 226 82 229 69 229 55 c 0
 227.666992188 35.6669921875 220.5 14.5 207.5 -8.5 c 0
 194.5 -31.5 172.333007812 -54.6669921875 141 -78 c 2
 0 -182 l 1
 0 345 l 1
 -70 310 l 1
 0 468 l 1
 -70 433 l 1
 12 608 l 1
 95 433 l 1
 25 468 l 1
 95 310 l 1
93 113 m 0
 65 113 43.6669921875 99 29 71 c 1
 25 33 23 0.6669921875 23 -26 c 0
 23 -49.3330078125 23.5 -69.3330078125 24.5 -86 c 0
 25.5 -102.666992188 26.6669921875 -115.666992188 28 -125 c 1
 40.6669921875 -117 54.1669921875 -105.166992188 68.5 -89.5 c 0
 82.8330078125 -73.8330078125 96 -57 108 -39 c 0
 120 -21 129.833007812 -3.1669921875 137.5 14.5 c 0
 145.166992188 32.1669921875 149 47 149 59 c 0
 149 74.3330078125 143.5 87.1669921875 132.5 97.5 c 0
 121.5 107.833007812 108.333007812 113 93 113 c 0
EndSplineSet
Validated: 1
EndChar

StartChar: h
Encoding: 104 104 71
Width: 299
Flags: W
HStem: 113 40<50.6896 134.139> 448 20G<-40 -8.86076 3.51429 22.3714> 556 21G<-60.5143 -30 55 85.6286>
VStem: 0 25<-124.56 69.2229 104 345> 149 80<-6.73151 99.3248>
LayerCount: 2
Fore
SplineSet
95 310 m 1
 25 345 l 1
 25 104 l 1
 43.6669921875 136.666992188 74.6669921875 153 118 153 c 0
 132.666992188 153 146.833007812 150.5 160.5 145.5 c 0
 174.166992188 140.5 186 133.666992188 196 125 c 0
 206 116.333007812 214 106 220 94 c 0
 226 82 229 69 229 55 c 0
 227.666992188 35.6669921875 220.5 14.5 207.5 -8.5 c 0
 194.5 -31.5 172.333007812 -54.6669921875 141 -78 c 2
 0 -182 l 1
 0 345 l 1
 -70 310 l 1
 0 468 l 1
 -70 433 l 1
 0 591 l 1
 -70 556 l 1
 13 731 l 1
 95 556 l 1
 25 591 l 1
 95 433 l 1
 25 468 l 1
 95 310 l 1
93 113 m 0
 65 113 43.6669921875 99 29 71 c 1
 25 33 23 0.6669921875 23 -26 c 0
 23 -49.3330078125 23.5 -69.3330078125 24.5 -86 c 0
 25.5 -102.666992188 26.6669921875 -115.666992188 28 -125 c 1
 40.6669921875 -117 54.1669921875 -105.166992188 68.5 -89.5 c 0
 82.8330078125 -73.8330078125 96 -57 108 -39 c 0
 120 -21 129.833007812 -3.1669921875 137.5 14.5 c 0
 145.166992188 32.1669921875 149 47 149 59 c 0
 149 74.3330078125 143.5 87.1669921875 132.5 97.5 c 0
 121.5 107.833007812 108.333007812 113 93 113 c 0
EndSplineSet
Validated: 1
EndChar

StartChar: i
Encoding: 105 105 72
Width: 329
Flags: W
HStem: 113 40<94.0572 177.125> 425 25<134 204 229 299>
VStem: 0 80<-9.309 99.8506> 204 25<-124.56 69.2229 104 425>
LayerCount: 2
Fore
SplineSet
134 450 m 1
 299 450 l 5
 299 425 l 1
 229 425 l 1
 229 -182 l 1
 88 -78 l 2
 56 -55.3333333333 33.6666666667 -32.3333333333 21 -9 c 0
 8.33333333333 14.3333333333 1.33333333333 35.6666666667 0 55 c 0
 0 69 3 82 9 94 c 0
 15 106 23 116.333333333 33 125 c 0
 43 133.666666667 54.6666666667 140.5 68 145.5 c 0
 81.3333333333 150.5 95.6666666667 153 111 153 c 0
 153 153 184 136.666666667 204 104 c 1
 204 425 l 1
 134 425 l 1
 134 450 l 1
136 113 m 0
 119.333333333 113 105.833333333 107.833333333 95.5 97.5 c 0
 85.1666666667 87.1666666667 80 74.3333333333 80 59 c 0
 80 47 83.6666666667 32 91 14 c 0
 98.3333333333 -4 107.833333333 -22 119.5 -40 c 0
 131.166666667 -58 144.166666667 -74.6666666667 158.5 -90 c 0
 172.833333333 -105.333333333 187 -117 201 -125 c 1
 202.333333333 -115.666666667 203.5 -102.666666667 204.5 -86 c 0
 205.5 -69.3333333333 206 -49.3333333333 206 -26 c 0
 206 0.666666666667 204 33 200 71 c 1
 184.666666667 99 163.333333333 113 136 113 c 0
EndSplineSet
Validated: 1
EndChar

StartChar: j
Encoding: 106 106 73
Width: 263
Flags: W
HStem: -340 21G<153 178> 425 25<-70 0 25 95>
VStem: 0 25<-105 61 142 425> 153 25<-340 -140 -59 108>
LayerCount: 2
Fore
SplineSet
95 425 m 1
 25 425 l 1
 25 142 l 1
 178 196 l 1
 178 -340 l 1
 153 -340 l 1
 153 -140 l 1
 0 -193 l 1
 0 425 l 1
 -70 425 l 1
 -70 450 l 1
 95 450 l 1
 95 425 l 1
25 -105 m 1
 153 -59 l 1
 153 108 l 1
 25 61 l 1
 25 -105 l 1
EndSplineSet
Validated: 1
EndChar

StartChar: k
Encoding: 107 107 74
Width: 269
Flags: W
HStem: 323 20G<0 25> 323 20G<0 25>
VStem: 0 25<-105 61 142 343> 153 25<-345 -140 -59 108>
LayerCount: 2
Fore
SplineSet
247 -556 m 1xb0
 165 -731 l 1
 82 -556 l 1
 152 -591 l 1
 82 -433 l 1
 152 -468 l 1
 82 -310 l 1
 152 -345 l 1
 153 -140 l 1
 0 -193 l 1
 0 343 l 1
 25 343 l 1
 25 142 l 1
 178 196 l 1
 177 -345 l 1
 247 -310 l 1
 177 -468 l 1
 247 -433 l 1
 177 -591 l 1
 247 -556 l 1xb0
25 -105 m 1
 153 -59 l 1
 153 108 l 1
 25 61 l 1
 25 -105 l 1
EndSplineSet
Validated: 1
EndChar

StartChar: l
Encoding: 108 108 75
Width: 269
Flags: W
HStem: 323 20G<0 25> 323 20G<0 25>
VStem: 0 25<-105 61 142 343> 153 25<-345 -140 -59 108>
LayerCount: 2
Fore
SplineSet
247 -433 m 1xb0
 165 -608 l 1
 82 -433 l 1
 152 -468 l 1
 82 -310 l 1
 152 -345 l 1
 153 -140 l 1
 0 -193 l 1
 0 343 l 1
 25 343 l 1
 25 142 l 1
 178 196 l 1
 177 -345 l 1
 247 -310 l 1
 177 -468 l 1
 247 -433 l 1xb0
25 -105 m 1
 153 -59 l 1
 153 108 l 1
 25 61 l 1
 25 -105 l 1
EndSplineSet
Validated: 1
EndChar

StartChar: m
Encoding: 109 109 76
Width: 269
Flags: W
HStem: 323 20G<0 25> 323 20G<0 25>
VStem: 0 25<-105 61 142 343> 153 25<-345 -140 -59 108>
LayerCount: 2
Fore
SplineSet
248 -310 m 1xb0
 165 -485 l 1
 83 -310 l 1
 153 -345 l 1
 153 -140 l 1
 0 -193 l 1
 0 343 l 1
 25 343 l 1
 25 142 l 1
 178 196 l 1
 178 -345 l 1
 248 -310 l 1xb0
25 -105 m 1
 153 -59 l 1
 153 108 l 1
 25 61 l 1
 25 -105 l 1
EndSplineSet
Validated: 1
EndChar

StartChar: n
Encoding: 110 110 77
Width: 269
Flags: W
HStem: -340 21G<153 178> 323 20G<0 25> 323 20G<0 25>
VStem: 0 25<-105 61 142 343> 153 25<-340 -140 -59 108>
LayerCount: 2
Fore
SplineSet
153 -340 m 1xd8
 153 -140 l 1
 0 -193 l 5
 0 343 l 1
 25 343 l 1
 25 142 l 1
 178 196 l 1
 178 -340 l 1
 153 -340 l 1xd8
25 -105 m 1
 153 -59 l 1
 153 108 l 1
 25 61 l 1
 25 -105 l 1
EndSplineSet
Validated: 1
EndChar

StartChar: o
Encoding: 111 111 78
Width: 269
Flags: W
HStem: -340 21G<153 178> 464 20G<2.62857 21.4857>
VStem: 0 25<-105 60 141 344> 153 25<-340 -141 -60 107>
LayerCount: 2
Fore
SplineSet
95 309 m 1
 25 344 l 1
 25 141 l 1
 178 195 l 1
 178 -340 l 1
 153 -340 l 1
 153 -141 l 1
 0 -193 l 1
 0 344 l 1
 -70 309 l 1
 12 484 l 1
 95 309 l 1
25 -105 m 1
 153 -60 l 1
 153 107 l 1
 25 60 l 1
 25 -105 l 1
EndSplineSet
Validated: 1
EndChar

StartChar: p
Encoding: 112 112 79
Width: 269
Flags: W
HStem: -340 21G<153 178> 588 20G<2.62857 21.4857>
VStem: 0 25<-105 61 142 345> 153 25<-340 -140 -59 108>
LayerCount: 2
Fore
SplineSet
95 310 m 1
 25 345 l 1
 25 142 l 1
 178 196 l 1
 178 -340 l 1
 153 -340 l 1
 153 -140 l 1
 0 -193 l 1
 0 345 l 1
 -70 310 l 1
 0 468 l 1
 -70 433 l 1
 12 608 l 1
 95 433 l 1
 25 468 l 1
 95 310 l 1
25 -105 m 1
 153 -59 l 1
 153 108 l 1
 25 61 l 1
 25 -105 l 1
EndSplineSet
Validated: 1
EndChar

StartChar: q
Encoding: 113 113 80
Width: 269
Flags: W
HStem: -340 21G<153 178> 448 20G<-40 -8.86076 2.62857 21.4857> 556 21G<-60.6286 -30 55 85.5143>
VStem: 0 25<-105 61 142 345> 153 25<-340 -140 -59 108>
LayerCount: 2
Fore
SplineSet
95 310 m 1
 25 345 l 1
 25 142 l 1
 178 196 l 1
 178 -340 l 1
 153 -340 l 1
 153 -140 l 1
 0 -193 l 1
 0 345 l 1
 -70 310 l 1
 0 468 l 1
 -70 433 l 1
 0 591 l 1
 -70 556 l 1
 12 731 l 1
 95 556 l 1
 25 591 l 1
 95 433 l 1
 25 468 l 1
 95 310 l 1
25 -105 m 1
 153 -59 l 1
 153 108 l 1
 25 61 l 1
 25 -105 l 1
EndSplineSet
Validated: 1
EndChar

StartChar: r
Encoding: 114 114 81
Width: 286
Flags: W
HStem: 425 25<25 95 120 190>
VStem: 95 25<-326 -60 60 425>
LayerCount: 2
Fore
SplineSet
120 -48 m 1
 120 -326 l 1
 95 -326 l 1
 95 -60 l 1
 0 -108 l 1
 0 0 l 1
 95 48 l 1
 95 425 l 1
 25 425 l 1
 25 450 l 1
 190 450 l 1
 190 425 l 1
 120 425 l 1
 120 60 l 1
 216 107 l 1
 216 0 l 1
 120 -48 l 1
EndSplineSet
Validated: 1
EndChar

StartChar: s
Encoding: 115 115 82
Width: 320
Flags: W
HStem: 323 20G<173 198> 323 20G<173 198>
VStem: 52 25<-264 -200 -102 63 161 311> 173 25<-346 -161 -63 102 200 343>
LayerCount: 2
Fore
SplineSet
268 -557 m 5xb0
 185 -732 l 5
 103 -557 l 5
 173 -592 l 5
 103 -434 l 5
 173 -469 l 5
 103 -311 l 5
 173 -346 l 5
 173 -161 l 5
 77 -192 l 5
 77 -264 l 5
 52 -264 l 5
 52 -200 l 5
 0 -216 l 5
 0 -126 l 5
 52 -108 l 5
 52 63 l 5
 0 46 l 5
 0 137 l 5
 52 154 l 5
 52 311 l 5
 77 311 l 5
 77 161 l 5
 173 193 l 5
 173 343 l 5
 198 343 l 5
 198 200 l 5
 250 217 l 5
 250 126 l 5
 198 109 l 5
 198 -63 l 5
 250 -45 l 5
 250 -137 l 5
 198 -153 l 5
 198 -346 l 5
 268 -311 l 5
 198 -469 l 5
 268 -434 l 5
 198 -592 l 5
 268 -557 l 5xb0
173 102 m 5
 77 70 l 5
 77 -102 l 5
 173 -69 l 5
 173 102 l 5
EndSplineSet
Validated: 1
EndChar

StartChar: t
Encoding: 116 116 83
Width: 320
Flags: W
HStem: 323 20G<173 198> 323 20G<173 198>
VStem: 52 25<-264 -200 -102 63 161 311> 173 25<-346 -161 -63 102 200 343>
LayerCount: 2
Fore
SplineSet
268 -434 m 5xb0
 185 -609 l 5
 103 -434 l 5
 173 -469 l 5
 103 -311 l 5
 173 -346 l 5
 173 -161 l 5
 77 -192 l 5
 77 -264 l 5
 52 -264 l 5
 52 -200 l 5
 0 -216 l 5
 0 -126 l 5
 52 -108 l 5
 52 63 l 5
 0 46 l 5
 0 137 l 5
 52 154 l 5
 52 311 l 5
 77 311 l 5
 77 161 l 5
 173 193 l 5
 173 343 l 5
 198 343 l 5
 198 200 l 5
 250 217 l 5
 250 126 l 5
 198 109 l 5
 198 -63 l 5
 250 -45 l 5
 250 -137 l 5
 198 -153 l 5
 198 -346 l 5
 268 -311 l 5
 198 -469 l 5
 268 -434 l 5xb0
173 102 m 5
 77 70 l 5
 77 -102 l 5
 173 -69 l 5
 173 102 l 5
EndSplineSet
Validated: 1
EndChar

StartChar: u
Encoding: 117 117 84
Width: 320
Flags: W
HStem: 323 20G<173 198> 323 20G<173 198>
VStem: 52 25<-264 -200 -102 63 161 311> 173 25<-346 -161 -63 102 200 343>
LayerCount: 2
Fore
SplineSet
268 -311 m 1xb0
 185 -486 l 1
 103 -311 l 1
 173 -346 l 1
 173 -161 l 1
 77 -192 l 1
 77 -264 l 1
 52 -264 l 1
 52 -200 l 1
 0 -216 l 1
 0 -126 l 1
 52 -108 l 1
 52 63 l 1
 0 46 l 5
 0 137 l 1
 52 154 l 1
 52 311 l 1
 77 311 l 1
 77 161 l 1
 173 193 l 1
 173 343 l 1
 198 343 l 1
 198 200 l 1
 250 217 l 1
 250 126 l 1
 198 109 l 1
 198 -63 l 1
 250 -45 l 1
 250 -137 l 1
 198 -154 l 1
 198 -346 l 1
 268 -311 l 1xb0
173 102 m 1
 77 70 l 1
 77 -102 l 1
 173 -69 l 1
 173 102 l 1
EndSplineSet
Validated: 1
EndChar

StartChar: v
Encoding: 118 118 85
Width: 320
Flags: W
HStem: 323 20G<173 198> 323 20G<173 198>
VStem: 52 25<-342 -200 -102 63 161 311> 173 25<-311 -161 -63 102 200 343>
LayerCount: 2
Fore
SplineSet
173 102 m 1x30
 77 70 l 1
 77 -102 l 1
 173 -69 l 1
 173 102 l 1x30
198 343 m 1xb0
 198 200 l 1
 250 217 l 1
 250 126 l 1
 198 109 l 1
 198 -63 l 1
 250 -45 l 1
 250 -137 l 1
 198 -153 l 1
 198 -311 l 1
 173 -311 l 1
 173 -161 l 1
 77 -192 l 1
 77 -342 l 1
 52 -342 l 1
 52 -200 l 1
 0 -216 l 1
 0 -126 l 1
 52 -108 l 1
 52 63 l 1
 0 46 l 5
 0 137 l 1
 52 154 l 1
 52 311 l 1
 77 311 l 1
 77 161 l 1
 173 193 l 1
 173 343 l 1
 198 343 l 1xb0
EndSplineSet
Validated: 1
EndChar

StartChar: w
Encoding: 119 119 86
Width: 320
Flags: W
HStem: 464 20G<54.6286 73.4857>
VStem: 52 25<-343 -200 -102 63 161 344> 173 25<-311 -161 -63 102 200 263>
LayerCount: 2
Fore
SplineSet
147 309 m 1
 77 344 l 1
 77 161 l 1
 173 193 l 1
 173 263 l 1
 198 263 l 1
 198 200 l 1
 250 217 l 1
 250 126 l 1
 198 109 l 1
 198 -63 l 1
 250 -46 l 5
 250 -137 l 1
 198 -154 l 1
 198 -311 l 1
 173 -311 l 1
 173 -161 l 1
 77 -193 l 1
 77 -343 l 1
 52 -343 l 1
 52 -200 l 1
 0 -217 l 1
 0 -126 l 1
 52 -109 l 1
 52 63 l 1
 0 46 l 1
 0 137 l 1
 52 154 l 1
 52 344 l 1
 -18 309 l 1
 64 484 l 1
 147 309 l 1
173 102 m 1
 77 70 l 1
 77 -102 l 1
 173 -70 l 1
 173 102 l 1
EndSplineSet
Validated: 1
EndChar

StartChar: x
Encoding: 120 120 87
Width: 320
Flags: W
HStem: 587 20G<54.6286 73.4857>
VStem: 52 25<-343 -200 -102 63 161 344> 173 25<-311 -161 -63 102 200 263>
LayerCount: 2
Fore
SplineSet
147 309 m 1
 77 344 l 1
 77 161 l 1
 173 193 l 1
 173 263 l 1
 198 263 l 1
 198 200 l 1
 250 217 l 1
 250 126 l 1
 198 109 l 1
 198 -63 l 1
 250 -46 l 1
 250 -137 l 1
 198 -154 l 1
 198 -311 l 1
 173 -311 l 1
 173 -161 l 1
 77 -193 l 1
 77 -343 l 1
 52 -343 l 1
 52 -200 l 1
 0 -217 l 1
 0 -126 l 1
 52 -109 l 1
 52 63 l 1
 0 46 l 1
 0 137 l 1
 52 154 l 1
 52 344 l 1
 -18 309 l 1
 52 467 l 1
 -18 432 l 1
 64 607 l 1
 147 432 l 1
 77 467 l 1
 147 309 l 1
173 102 m 1
 77 70 l 1
 77 -102 l 1
 173 -70 l 1
 173 102 l 1
EndSplineSet
Validated: 1
EndChar

StartChar: y
Encoding: 121 121 88
Width: 320
Flags: W
HStem: 555 21G<-8.62857 22 107 137.514> 710 20G<54.6286 73.4857>
VStem: 52 25<-343 -200 -102 63 161 344> 173 25<-311 -161 -63 102 200 263>
LayerCount: 2
Fore
SplineSet
147 309 m 5
 77 344 l 5
 77 161 l 5
 173 193 l 5
 173 263 l 5
 198 263 l 5
 198 200 l 5
 250 217 l 5
 250 126 l 5
 198 109 l 5
 198 -63 l 5
 250 -46 l 5
 250 -137 l 5
 198 -154 l 5
 198 -311 l 5
 173 -311 l 5
 173 -161 l 5
 77 -193 l 5
 77 -343 l 5
 52 -343 l 5
 52 -200 l 5
 0 -217 l 5
 0 -126 l 5
 52 -109 l 5
 52 63 l 5
 0 46 l 5
 0 137 l 5
 52 154 l 5
 52 344 l 5
 -18 309 l 5
 52 467 l 5
 -18 432 l 5
 52 590 l 5
 -18 555 l 5
 64 730 l 5
 147 555 l 5
 77 590 l 5
 147 432 l 5
 77 467 l 5
 147 309 l 5
173 102 m 5
 77 70 l 5
 77 -102 l 5
 173 -70 l 5
 173 102 l 5
EndSplineSet
Validated: 1
EndChar

StartChar: z
Encoding: 122 122 89
Width: 320
Flags: W
HStem: 323 20G<173 198> 323 20G<173 198> 425 25<-18 52 77 147>
VStem: 52 25<-343 -200 -102 63 161 425> 173 25<-311 -161 -63 102 200 343>
LayerCount: 2
Fore
SplineSet
147 425 m 1xb8
 77 425 l 1
 77 161 l 1
 173 193 l 1
 173 343 l 1
 198 343 l 1
 198 200 l 1
 250 217 l 1
 250 126 l 1
 198 109 l 1
 198 -63 l 1
 250 -46 l 1
 250 -137 l 1
 198 -154 l 1
 198 -311 l 1
 173 -311 l 1
 173 -161 l 1
 77 -193 l 1
 77 -343 l 1
 52 -343 l 1
 52 -200 l 1
 0 -217 l 1
 0 -126 l 1
 52 -109 l 1
 52 63 l 1
 0 46 l 1
 0 137 l 1
 52 154 l 1
 52 425 l 1
 -18 425 l 1
 -18 450 l 1
 147 450 l 5
 147 425 l 1xb8
173 102 m 1
 77 70 l 1
 77 -102 l 1
 173 -70 l 1
 173 102 l 1
EndSplineSet
Validated: 1
EndChar

StartChar: braceleft
Encoding: 123 123 90
Width: 206
Flags: W
HStem: -5 10<0 20.4675>
VStem: 44 36<-185.951 -84.5022 84.2815 185.43> 55 36<-147.624 -36.2555 36.5063 133.467>
LayerCount: 2
Fore
SplineSet
136 -219 m 1xc0
 136 -228 l 1
 108 -224 85.6666666667 -213 69 -195 c 0
 52.3333333333 -176.333333333 44 -156 44 -134 c 0xc0
 44 -127.333333333 44.5 -120.666666667 45.5 -114 c 0
 46.5 -107.333333333 47.6666666667 -100.333333333 49 -93 c 0
 53 -77 55 -65 55 -57 c 0
 55 -45 50.3333333333 -33.8333333333 41 -23.5 c 0
 31.6666666667 -13.1666666667 18 -7 0 -5 c 1
 0 5 l 1
 18 7 31.6666666667 13.1666666667 41 23.5 c 0
 50.3333333333 33.8333333333 55 45 55 57 c 0xa0
 55 65 53 76.6666666667 49 92 c 0
 45.6666666667 108.666666667 44 122.666666667 44 134 c 0
 44 156.666666667 52.3333333333 176.666666667 69 194 c 0
 85.6666666667 212.666666667 108 223.666666667 136 227 c 1
 136 219 l 1
 117.333333333 214.333333333 103.333333333 206.833333333 94 196.5 c 0
 84.6666666667 186.166666667 80 174.666666667 80 162 c 0xc0
 80 152.666666667 82 140 86 124 c 0
 87.3333333333 116.666666667 88.5 109.666666667 89.5 103 c 0
 90.5 96.3333333333 91 90 91 84 c 0
 91 68 85 52.1666666667 73 36.5 c 0
 61 20.8333333333 43.3333333333 9 20 1 c 1
 43.3333333333 -8.33333333333 61 -20.6666666667 73 -36 c 0
 85 -51.3333333333 91 -67.3333333333 91 -84 c 0xa0
 91 -94.6666666667 89.3333333333 -108.333333333 86 -125 c 0
 82 -140.333333333 80 -152.666666667 80 -162 c 0
 80 -174.666666667 84.6666666667 -186.166666667 94 -196.5 c 0
 103.333333333 -206.833333333 117.333333333 -214.333333333 136 -219 c 1xc0
EndSplineSet
Validated: 1
EndChar

StartChar: bar
Encoding: 124 124 91
Width: 259
VWidth: 1052
Flags: W
HStem: 33.2754 19.25<117.57 168.938> 72.875 20.3496<20.0746 71.0252>
VStem: 0.450195 8.09961<33.2754 49.371> 180.45 8.09961<75.0551 92.6748>
LayerCount: 2
Fore
SplineSet
180.450195312 92.6748046875 m 5
 188.549804688 92.6748046875 l 5
 187.650390625 73.2412109375 183.075195312 58.4833984375 174.825195312 48.400390625 c 4
 166.575195312 38.31640625 156.75 33.275390625 145.349609375 33.275390625 c 4
 139.650390625 33.275390625 133.799804688 34.0087890625 127.799804688 35.474609375 c 4
 124.5 36.94140625 118.875 39.599609375 110.924804688 43.4501953125 c 4
 102.974609375 47.2998046875 92.5498046875 52.341796875 79.650390625 58.5751953125 c 4
 61.349609375 68.1083984375 48.4501953125 72.875 40.9501953125 72.875 c 4
 32.849609375 72.875 25.9501953125 69.7587890625 20.25 63.525390625 c 4
 14.5498046875 57.2919921875 10.650390625 47.2080078125 8.5498046875 33.275390625 c 5
 0.4501953125 33.275390625 l 5
 1.349609375 52.7080078125 5.7001953125 67.55859375 13.5 77.8251953125 c 4
 21.2998046875 88.091796875 30.599609375 93.224609375 41.400390625 93.224609375 c 4
 47.099609375 93.224609375 52.5 92.125 57.599609375 89.9248046875 c 4
 63.599609375 88.091796875 70.5751953125 85.25 78.525390625 81.400390625 c 4
 86.474609375 77.5498046875 95.5498046875 73.05859375 105.75 67.9248046875 c 4
 125.25 57.658203125 139.200195312 52.525390625 147.599609375 52.525390625 c 4
 156.599609375 52.525390625 163.950195312 55.9169921875 169.650390625 62.7001953125 c 4
 175.349609375 69.4833984375 178.950195312 79.474609375 180.450195312 92.6748046875 c 5
EndSplineSet
Validated: 1
EndChar

StartChar: braceright
Encoding: 125 125 92
Width: 206
Flags: W
HStem: -5 10<115.443 136>
VStem: 43 37<-147.624 -36.2555 36.8712 147.029> 55 36<-185.43 -85.502 84.5327 185.951>
LayerCount: 2
Fore
SplineSet
0 219 m 1xa0
 0 227 l 1
 26.6666666667 224.333333333 48.6666666667 213.666666667 66 195 c 0
 82.6666666667 176.333333333 91 155.666666667 91 133 c 0xa0
 91 122.333333333 89.3333333333 108.666666667 86 92 c 0
 82 76.6666666667 80 65 80 57 c 0
 80 45 84.8333333333 33.8333333333 94.5 23.5 c 0
 104.166666667 13.1666666667 118 7 136 5 c 1
 136 -5 l 1
 118 -7 104.166666667 -13.1666666667 94.5 -23.5 c 0
 84.8333333333 -33.8333333333 80 -45 80 -57 c 0xc0
 80 -65 82 -77 86 -93 c 0
 87.3333333333 -100.333333333 88.5 -107.333333333 89.5 -114 c 0
 90.5 -120.666666667 91 -127.333333333 91 -134 c 0
 91 -156.666666667 82.6666666667 -176.666666667 66 -194 c 0
 49.3333333333 -212.666666667 27.3333333333 -224 0 -228 c 1
 0 -219 l 1
 20 -214.333333333 34.1666666667 -206.833333333 42.5 -196.5 c 0
 50.8333333333 -186.166666667 55 -174.666666667 55 -162 c 0xa0
 55 -152.666666667 53 -140.333333333 49 -125 c 0
 45 -109 43 -95.6666666667 43 -85 c 0
 43 -67.6666666667 49.1666666667 -51.3333333333 61.5 -36 c 0
 73.8333333333 -20.6666666667 92 -9 116 -1 c 1
 92.6666666667 8.33333333333 74.6666666667 20.6666666667 62 36 c 0
 49.3333333333 51.3333333333 43 67.3333333333 43 84 c 0xc0
 43 95.3333333333 45 108.666666667 49 124 c 0
 53 140 55 152.666666667 55 162 c 0
 55 174.666666667 50.8333333333 186.166666667 42.5 196.5 c 0
 34.1666666667 206.833333333 20 214.333333333 0 219 c 1xa0
EndSplineSet
Validated: 1
EndChar

StartChar: asciitilde
Encoding: 126 126 93
Width: 259
VWidth: 1052
Flags: W
HStem: -93.2246 19.25<117.57 168.938> -53.625 20.3496<20.0746 71.0252>
VStem: 0.450195 8.09961<-93.2246 -77.129> 180.45 8.09961<-51.4449 -33.8252>
LayerCount: 2
Fore
SplineSet
180.450195312 -33.8251953125 m 1
 188.549804688 -33.8251953125 l 1
 187.650390625 -53.2587890625 183.075195312 -68.0166015625 174.825195312 -78.099609375 c 0
 166.575195312 -88.18359375 156.75 -93.224609375 145.349609375 -93.224609375 c 0
 139.650390625 -93.224609375 133.799804688 -92.4912109375 127.799804688 -91.025390625 c 0
 124.5 -89.55859375 118.875 -86.900390625 110.924804688 -83.0498046875 c 0
 102.974609375 -79.2001953125 92.5498046875 -74.158203125 79.650390625 -67.9248046875 c 0
 61.349609375 -58.3916015625 48.4501953125 -53.625 40.9501953125 -53.625 c 0
 32.849609375 -53.625 25.9501953125 -56.7412109375 20.25 -62.974609375 c 0
 14.5498046875 -69.2080078125 10.650390625 -79.2919921875 8.5498046875 -93.224609375 c 1
 0.4501953125 -93.224609375 l 1
 1.349609375 -73.7919921875 5.7001953125 -58.94140625 13.5 -48.6748046875 c 0
 21.2998046875 -38.408203125 30.599609375 -33.275390625 41.400390625 -33.275390625 c 0
 47.099609375 -33.275390625 52.5 -34.375 57.599609375 -36.5751953125 c 0
 63.599609375 -38.408203125 70.5751953125 -41.25 78.525390625 -45.099609375 c 0
 86.474609375 -48.9501953125 95.5498046875 -53.44140625 105.75 -58.5751953125 c 0
 125.25 -68.841796875 139.200195312 -73.974609375 147.599609375 -73.974609375 c 0
 156.599609375 -73.974609375 163.950195312 -70.5830078125 169.650390625 -63.7998046875 c 0
 175.349609375 -57.0166015625 178.950195312 -47.025390625 180.450195312 -33.8251953125 c 1
EndSplineSet
Validated: 1
EndChar

StartChar: Egrave
Encoding: 200 200 94
Width: 514
Flags: W
HStem: -96 191
LayerCount: 2
Fore
SplineSet
194 -96 m 1
 -4 48 l 1
 -4 95 l 1
 194 -48 l 1
 194 -96 l 1
324 -96 m 1
 126 48 l 1
 126 95 l 1
 324 -48 l 1
 324 -96 l 1
454 -96 m 1
 256 48 l 1
 256 95 l 1
 454 -48 l 1
 454 -96 l 1
EndSplineSet
Validated: 1
EndChar

StartChar: Eacute
Encoding: 201 201 95
Width: 520
Flags: W
HStem: -96 191
LayerCount: 2
Fore
SplineSet
0 -48 m 1
 198 95 l 1
 198 48 l 1
 0 -96 l 1
 0 -48 l 1
131 -48 m 1
 329 95 l 1
 329 48 l 1
 131 -96 l 1
 131 -48 l 1
262 -48 m 1
 460 95 l 1
 460 48 l 1
 262 -96 l 1
 262 -48 l 1
EndSplineSet
Validated: 1
EndChar

StartChar: egrave
Encoding: 232 232 96
Width: 324
VWidth: 1330
Flags: W
VStem: 2.0791 251.736
LayerCount: 2
Fore
SplineSet
147.017578125 26.6044921875 m 28
 133.110351562 22.1884765625 122.78515625 22.1884765625 108.876953125 26.6044921875 c 28
 65.4296875 40.5634765625 2.0791015625 108.124023438 2.0791015625 108.124023438 c 1
 127.184570312 -108.479492188 l 1
 253.815429688 108.124023438 l 1
 253.815429688 108.124023438 190.465820312 40.5634765625 147.017578125 26.6044921875 c 28
EndSplineSet
Validated: 41
EndChar

StartChar: eacute
Encoding: 233 233 97
Width: 324
VWidth: 1290
Flags: W
HStem: -108.369 216.768
VStem: 0.475586 253.445
LayerCount: 2
Fore
SplineSet
146.3984375 -34.2158203125 m 24
 132.396484375 -30.01953125 122.000976562 -30.01953125 107.998046875 -34.2158203125 c 24
 64.2548828125 -47.48046875 0.4755859375 -108.369140625 0.4755859375 -108.369140625 c 1
 126.430664062 108.3984375 l 1
 253.920898438 -108.369140625 l 1
 253.920898438 -108.369140625 190.142578125 -47.48046875 146.3984375 -34.2158203125 c 24
EndSplineSet
Validated: 33
EndChar

StartChar: acute
Encoding: 180 180 98
Width: 258
Flags: W
VStem: 0 198
LayerCount: 2
Fore
SplineSet
198 201 m 5
 0 73 l 1
 0 121 l 1
 198 249 l 5
 198 201 l 5
198 45 m 5
 0 -83 l 1
 0 -35 l 1
 198 93 l 5
 198 45 l 5
198 -111 m 5
 0 -239 l 1
 0 -191 l 1
 198 -63 l 5
 198 -111 l 5
EndSplineSet
Validated: 1
EndChar

StartChar: agrave
Encoding: 224 224 99
Width: 318
Flags: W
HStem: -209 48<7.24168 100.845> 85 45<59.5 160.377> 356 20G<192 205>
VStem: 0 80<-27.0417 78.1249> 108 27<-152.382 -95.2907> 184 29<-337.047 62.8165 89 375.047>
LayerCount: 2
Fore
SplineSet
213 360 m 2
 213 -322 l 2
 213 -331 208 -338 202 -338 c 2
 195 -338 l 2
 189 -338 184 -331 184 -322 c 2
 184 19 l 1
 180 51 169 85 121 85 c 0
 108 85 80 73 80 39 c 0
 80 11 100 -25 113 -48 c 0
 132 -83 135 -97 135 -116 c 0
 135 -171 88 -209 43 -209 c 0
 28 -209 20 -207 13 -205 c 0
 5 -205 2 -188 2 -170 c 0
 2 -156 4 -144 7 -145 c 0
 12 -147 27 -157 48 -160 c 0
 51 -161 56 -161 62 -161 c 0
 81 -161 108 -155 108 -128 c 0
 108 -104 85 -81 56 -62 c 0
 25 -42 0 -10 0 41 c 0
 0 85 36 130 83 130 c 0
 122 130 151 121 184 89 c 1
 184 360 l 2
 184 369 189 376 195 376 c 2
 202 376 l 2
 208 376 213 369 213 360 c 2
EndSplineSet
Validated: 1
EndChar

StartChar: aacute
Encoding: 225 225 100
Width: 318
Flags: W
HStem: -130 45<59.5 160.377> 161 48<7.24168 100.845>
VStem: 0 80<-78.1249 27.0417> 108 27<95.2907 152.382> 184 29<-375.047 -89 -62.8165 337.047>
LayerCount: 2
Fore
SplineSet
213 -360 m 2
 213 -369 208 -376 202 -376 c 2
 195 -376 l 2
 189 -376 184 -369 184 -360 c 2
 184 -89 l 1
 151 -121 122 -130 83 -130 c 0
 36 -130 0 -85 0 -41 c 0
 0 10 25 42 56 62 c 0
 85 81 108 104 108 128 c 0
 108 155 81 161 62 161 c 0
 56 161 51 161 48 160 c 0
 27 157 12 147 7 145 c 0
 4 144 2 156 2 170 c 0
 2 188 5 205 13 205 c 0
 20 207 28 209 43 209 c 0
 88 209 135 171 135 116 c 0
 135 97 132 83 113 48 c 0
 100 25 80 -11 80 -39 c 0
 80 -73 108 -85 121 -85 c 0
 169 -85 180 -51 184 -19 c 1
 184 322 l 2
 184 331 189 338 195 338 c 2
 202 338 l 2
 208 338 213 331 213 322 c 2
 213 -360 l 2
EndSplineSet
Validated: 1
EndChar

StartChar: quotesingle
Encoding: 39 39 101
Width: 215
Flags: W
VStem: 70 25<-180 65>
LayerCount: 2
Fore
SplineSet
95 65 m 1
 95 -180 l 1
 70 -180 l 1
 70 65 l 1
 0 30 l 1
 82 205 l 1
 165 30 l 1
 95 65 l 1
EndSplineSet
Validated: 1
EndChar

StartChar: Agrave
Encoding: 192 192 102
Width: 387
Flags: W
HStem: -96 191
VStem: -1 328
LayerCount: 2
Fore
SplineSet
197 -96 m 1
 -1 48 l 1
 -1 95 l 1
 197 -48 l 1
 197 -96 l 1
327 -96 m 1
 129 48 l 1
 129 95 l 1
 327 -48 l 1
 327 -96 l 1
EndSplineSet
Validated: 1
EndChar

StartChar: Aacute
Encoding: 193 193 103
Width: 389
Flags: W
HStem: -96 191
VStem: 0 329
LayerCount: 2
Fore
SplineSet
0 -48 m 1
 198 95 l 1
 198 48 l 1
 0 -96 l 1
 0 -48 l 1
131 -48 m 1
 329 95 l 1
 329 48 l 1
 131 -96 l 1
 131 -48 l 1
EndSplineSet
Validated: 1
EndChar

StartChar: igrave
Encoding: 236 236 104
Width: 246
VWidth: 0
Flags: W
HStem: -235 74<0 146> -88 74<0 146> 323 20G<146 171> 323 20G<146 171>
VStem: 0 171<-235 -161 -88 -14> 146 25<-161 -88 -14 343>
LayerCount: 2
Fore
SplineSet
146 -14 m 1xe4
 146 343 l 1
 171 343 l 1xe4
 171 -235 l 1
 0 -235 l 1
 0 -161 l 1xe8
 146 -161 l 1
 146 -88 l 1xe4
 0 -88 l 1
 0 -14 l 1xe8
 146 -14 l 1xe4
EndSplineSet
Validated: 1
EndChar

StartChar: iacute
Encoding: 237 237 105
Width: 246
VWidth: 0
Flags: W
HStem: 14 74<0 146> 161 75<0 146>
VStem: 0 171<14 88 161 236> 146 25<-342 14 88 161>
LayerCount: 2
Fore
SplineSet
146 14 m 1xd0
 0 14 l 1
 0 88 l 1xe0
 146 88 l 1
 146 161 l 1xd0
 0 161 l 1
 0 236 l 1
 171 236 l 1xe0
 171 -342 l 1
 146 -342 l 1
 146 14 l 1xd0
EndSplineSet
Validated: 1
EndChar

StartChar: uni0085
Encoding: 133 133 106
Width: 500
Flags: W
HStem: -16 32<0 500> 234 32<0 500> 484 32<0 500> 734 32<0 500> 984 32<0 500>
LayerCount: 2
Fore
SplineSet
0 266 m 5
 500 266 l 5
 500 234 l 5
 0 234 l 5
 0 266 l 5
0 -16 m 5
 0 16 l 5
 500 16 l 5
 500 -16 l 5
 0 -16 l 5
0 1016 m 5
 500 1016 l 5
 500 984 l 5
 0 984 l 5
 0 1016 l 5
500 734 m 5
 0 734 l 5
 0 766 l 5
 500 766 l 5
 500 734 l 5
500 484 m 5
 0 484 l 5
 0 516 l 5
 500 516 l 5
 500 484 l 5
EndSplineSet
Validated: 1
EndChar

StartChar: uni0086
Encoding: 134 134 107
Width: 500
Flags: W
HStem: -141 32<0 500> 109 32<0 500> 359 32<0 500> 609 32<0 500> 859 32<0 500> 1109 32<0 500>
LayerCount: 2
Fore
SplineSet
0 1141 m 5
 500 1141 l 5
 500 1109 l 5
 0 1109 l 5
 0 1141 l 5
0 391 m 5
 500 391 l 5
 500 359 l 5
 0 359 l 5
 0 391 l 5
500 109 m 5
 0 109 l 5
 0 141 l 5
 500 141 l 5
 500 109 l 5
0 -141 m 5
 0 -109 l 5
 500 -109 l 5
 500 -141 l 5
 0 -141 l 5
500 859 m 5
 0 859 l 5
 0 891 l 5
 500 891 l 5
 500 859 l 5
500 609 m 5
 0 609 l 5
 0 641 l 5
 500 641 l 5
 500 609 l 5
EndSplineSet
Validated: 1
EndChar

StartChar: uni266D
Encoding: 9837 9837 108
Width: 299
Flags: W
HStem: 113 40<50.6896 134.139> 399 20G<0 32> 399 20G<0 32>
VStem: 0 32<104 419> 0 23<-124.56 69.2229 104 349> 149 80<-6.73151 99.3248>
LayerCount: 2
Fore
SplineSet
0 419 m 5xd4
 32 419 l 1xd4
 25 104 l 1
 43.6669921875 136.666992188 74.6669921875 153 118 153 c 0
 132.666992188 153 146.833007812 150.5 160.5 145.5 c 0
 174.166992188 140.5 186 133.666992188 196 125 c 0
 206 116.333007812 214 106 220 94 c 0
 226 82 229 69 229 55 c 0
 227.666992188 35.6669921875 220.5 14.5 207.5 -8.5 c 0
 194.5 -31.5 172.333007812 -54.6669921875 141 -78 c 2
 0 -182 l 1xcc
 0 419 l 5xd4
93 113 m 0
 65 113 43.6669921875 99 29 71 c 1
 25 33 23 0.6669921875 23 -26 c 0x8c
 23 -49.3330078125 23.5 -69.3330078125 24.5 -86 c 0
 25.5 -102.666992188 26.6669921875 -115.666992188 28 -125 c 1
 40.6669921875 -117 54.1669921875 -105.166992188 68.5 -89.5 c 0
 82.8330078125 -73.8330078125 96 -57 108 -39 c 0
 120 -21 129.833007812 -3.1669921875 137.5 14.5 c 0
 145.166992188 32.1669921875 149 47 149 59 c 0
 149 74.3330078125 143.5 87.1669921875 132.5 97.5 c 0
 121.5 107.833007812 108.333007812 113 93 113 c 0
EndSplineSet
Validated: 1
EndChar

StartChar: uni266E
Encoding: 9838 9838 109
Width: 269
Flags: W
HStem: -340 21G<153 178> 323 20G<0 25> 323 20G<0 25>
VStem: 0 25<-105 61 142 343> 153 25<-340 -140 -59 108>
LayerCount: 2
Fore
SplineSet
153 -340 m 1xd8
 153 -140 l 1
 0 -193 l 5
 0 343 l 1
 25 343 l 1
 25 142 l 1
 178 196 l 1
 178 -340 l 1
 153 -340 l 1xd8
25 -105 m 1
 153 -59 l 1
 153 108 l 1
 25 61 l 1
 25 -105 l 1
EndSplineSet
Validated: 1
EndChar

StartChar: uni266F
Encoding: 9839 9839 110
Width: 320
Flags: W
HStem: 323 20G<173 198> 323 20G<173 198>
VStem: 52 25<-342 -200 -102 63 161 311> 173 25<-311 -161 -63 102 200 343>
LayerCount: 2
Fore
SplineSet
173 102 m 1x30
 77 70 l 1
 77 -102 l 1
 173 -69 l 1
 173 102 l 1x30
198 343 m 1xb0
 198 200 l 1
 250 217 l 1
 250 126 l 1
 198 109 l 1
 198 -63 l 1
 250 -45 l 1
 250 -137 l 1
 198 -153 l 1
 198 -311 l 1
 173 -311 l 1
 173 -161 l 1
 77 -192 l 1
 77 -342 l 1
 52 -342 l 1
 52 -200 l 1
 0 -216 l 1
 0 -126 l 1
 52 -108 l 1
 52 63 l 1
 0 46 l 5
 0 137 l 1
 52 154 l 1
 52 311 l 1
 77 311 l 1
 77 161 l 1
 173 193 l 1
 173 343 l 1
 198 343 l 1xb0
EndSplineSet
Validated: 1
EndChar

StartChar: uniE260
Encoding: 57952 57952 111
Width: 299
Flags: W
HStem: 113 40<50.6896 134.139> 399 20G<0 32> 399 20G<0 32>
VStem: 0 32<104 419> 0 23<-124.56 69.2229 104 349> 149 80<-6.73151 99.3248>
LayerCount: 2
Fore
SplineSet
0 419 m 5xd4
 32 419 l 5xd4
 25 104 l 5
 43.6669921875 136.666992188 74.6669921875 153 118 153 c 4
 132.666992188 153 146.833007812 150.5 160.5 145.5 c 4
 174.166992188 140.5 186 133.666992188 196 125 c 4
 206 116.333007812 214 106 220 94 c 4
 226 82 229 69 229 55 c 4
 227.666992188 35.6669921875 220.5 14.5 207.5 -8.5 c 4
 194.5 -31.5 172.333007812 -54.6669921875 141 -78 c 6
 0 -182 l 5xcc
 0 419 l 5xd4
93 113 m 4
 65 113 43.6669921875 99 29 71 c 5
 25 33 23 0.6669921875 23 -26 c 4x8c
 23 -49.3330078125 23.5 -69.3330078125 24.5 -86 c 4
 25.5 -102.666992188 26.6669921875 -115.666992188 28 -125 c 5
 40.6669921875 -117 54.1669921875 -105.166992188 68.5 -89.5 c 4
 82.8330078125 -73.8330078125 96 -57 108 -39 c 4
 120 -21 129.833007812 -3.1669921875 137.5 14.5 c 4
 145.166992188 32.1669921875 149 47 149 59 c 4
 149 74.3330078125 143.5 87.1669921875 132.5 97.5 c 4
 121.5 107.833007812 108.333007812 113 93 113 c 4
EndSplineSet
Validated: 1
EndChar

StartChar: uniE261
Encoding: 57953 57953 112
Width: 269
Flags: W
HStem: -340 21G<153 178> 323 20G<0 25> 323 20G<0 25>
VStem: 0 25<-105 61 142 343> 153 25<-340 -140 -59 108>
LayerCount: 2
Fore
SplineSet
153 -340 m 1xd8
 153 -140 l 1
 0 -193 l 5
 0 343 l 1
 25 343 l 1
 25 142 l 1
 178 196 l 1
 178 -340 l 1
 153 -340 l 1xd8
25 -105 m 1
 153 -59 l 1
 153 108 l 1
 25 61 l 1
 25 -105 l 1
EndSplineSet
Validated: 1
EndChar

StartChar: uniE262
Encoding: 57954 57954 113
Width: 320
Flags: W
HStem: 323 20G<173 198> 323 20G<173 198>
VStem: 52 25<-342 -200 -102 63 161 311> 173 25<-311 -161 -63 102 200 343>
LayerCount: 2
Fore
SplineSet
173 102 m 5x30
 77 70 l 5
 77 -102 l 5
 173 -69 l 5
 173 102 l 5x30
198 343 m 5xb0
 198 200 l 5
 250 217 l 5
 250 126 l 5
 198 109 l 5
 198 -63 l 5
 250 -45 l 5
 250 -137 l 5
 198 -153 l 5
 198 -311 l 5
 173 -311 l 5
 173 -161 l 5
 77 -192 l 5
 77 -342 l 5
 52 -342 l 5
 52 -200 l 5
 0 -216 l 5
 0 -126 l 5
 52 -108 l 5
 52 63 l 5
 0 46 l 5
 0 137 l 5
 52 154 l 5
 52 311 l 5
 77 311 l 5
 77 161 l 5
 173 193 l 5
 173 343 l 5
 198 343 l 5xb0
EndSplineSet
Validated: 1
EndChar

StartChar: uniE263
Encoding: 57955 57955 114
Width: 323
Flags: W
HStem: -127 73<0 72.2607 182.741 253> 50 73<0 73 180 253>
VStem: 0 73<-127 -54.7393 50.7393 123> 180 73<-127 -56.9219 52.9219 123>
LayerCount: 2
Fore
SplineSet
253 123 m 1
 253 50 l 1
 245 50 l 2
 211 50 176.666992188 33 142 -1 c 1
 175.333007812 -34.3330078125 212.333007812 -52 253 -54 c 1
 253 -127 l 1
 180 -127 l 1
 180 -89 162 -52 126 -16 c 1
 90.6669921875 -51.3330078125 73 -88.3330078125 73 -127 c 1
 0 -127 l 1
 0 -54 l 1
 38.6669921875 -54 75.6669921875 -36.3330078125 111 -1 c 1
 75.6669921875 33 38.6669921875 50 0 50 c 1
 0 123 l 1
 73 123 l 1
 73 84.3330078125 90.6669921875 47.3330078125 126 12 c 1
 162 48 180 85 180 123 c 1
 253 123 l 1
EndSplineSet
Validated: 1
EndChar

StartChar: uniE264
Encoding: 57956 57956 115
Width: 502
Flags: W
HStem: 113 40<50.6314 133.618 253.631 336.988> 399 20G<-1 31 202 234> 399 20G<-1 31 202 234>
VStem: -1 32<104 419> -1 23<-124.56 69.2229 104 349> 202 32<118 419> 202 23<-124.56 -14.4137 118 349> 351 80<-7.74264 99.8506>
LayerCount: 2
Fore
SplineSet
295 113 m 0x83
 267 113 245.666992188 99 231 71 c 1
 227 33 225 0.6669921875 225 -26 c 0
 225 -49.3330078125 225.5 -69.3330078125 226.5 -86 c 0
 227.5 -102.666992188 228.666992188 -115.666992188 230 -125 c 1
 243.333007812 -117 257.166992188 -105.166992188 271.5 -89.5 c 0
 285.833007812 -73.8330078125 298.833007812 -57.1669921875 310.5 -39.5 c 0
 322.166992188 -21.8330078125 331.833007812 -4.1669921875 339.5 13.5 c 0
 347.166992188 31.1669921875 351 46.3330078125 351 59 c 0
 351 74.3330078125 345.833007812 87.1669921875 335.5 97.5 c 0
 325.166992188 107.833007812 311.666992188 113 295 113 c 0x83
-1 419 m 1xd1
 31 419 l 1
 24 104 l 1
 44 136.666992188 75 153 117 153 c 0
 150.333007812 153 178.666992188 141.333007812 202 118 c 1
 202 419 l 1
 234 419 l 1xd5
 227 104 l 1
 247 136.666992188 278 153 320 153 c 0
 334.666992188 153 348.833007812 150.5 362.5 145.5 c 0
 376.166992188 140.5 388 133.666992188 398 125 c 0
 408 116.333007812 416 106 422 94 c 0
 428 82 431 69 431 55 c 0
 430.333007812 35 423.166992188 13.8330078125 409.5 -8.5 c 0
 395.833007812 -30.8330078125 373.666992188 -54 343 -78 c 0
 319 -96 295.5 -113.333007812 272.5 -130 c 0
 249.5 -146.666992188 226 -164 202 -182 c 1
 202 -14 l 1
 194 -26 182.666992188 -38.8330078125 168 -52.5 c 0
 153.333007812 -66.1669921875 136.833007812 -80.3330078125 118.5 -95 c 0
 100.166992188 -109.666992188 80.6669921875 -124.333007812 60 -139 c 0
 39.3330078125 -153.666992188 19 -168 -1 -182 c 1xcb
 -1 419 l 1xd1
92 113 m 0
 64 113 42.6669921875 99 28 71 c 1
 24 33 22 0.6669921875 22 -26 c 0x89
 22 -49.3330078125 22.5 -69.3330078125 23.5 -86 c 0
 24.5 -102.666992188 25.6669921875 -115.666992188 27 -125 c 1
 40.3330078125 -117 54.1669921875 -105.166992188 68.5 -89.5 c 0
 82.8330078125 -73.8330078125 95.8330078125 -57.1669921875 107.5 -39.5 c 0
 119.166992188 -21.8330078125 128.833007812 -4.1669921875 136.5 13.5 c 0
 144.166992188 31.1669921875 148 46.3330078125 148 59 c 0
 148 74.3330078125 142.833007812 87.1669921875 132.5 97.5 c 0
 122.166992188 107.833007812 108.666992188 113 92 113 c 0
EndSplineSet
Validated: 1
EndChar

StartChar: uniE265
Encoding: 57957 57957 116
Width: 607
Flags: W
HStem: -127 73<290 362.261 472.741 543> 50 73<290 363 470 543> 323 20G<173 198> 323 20G<173 198>
VStem: 52 25<-342 -200 -102 63 161 311> 173 25<-311 -161 -63 102 200 343> 290 73<-127 -54.7393 50.7393 123> 470 73<-127 -56.9219 52.9219 123>
LayerCount: 2
Fore
SplineSet
173 102 m 1xcf
 77 70 l 1
 77 -102 l 1
 173 -69 l 1
 173 102 l 1xcf
198 343 m 1xef
 198 200 l 1
 250 217 l 1
 250 126 l 1
 198 109 l 1
 198 -63 l 1
 250 -45 l 1
 250 -137 l 1
 198 -153 l 1
 198 -311 l 1
 173 -311 l 1
 173 -161 l 1
 77 -192 l 1
 77 -342 l 1
 52 -342 l 1
 52 -200 l 1
 0 -216 l 1
 0 -126 l 1
 52 -108 l 1
 52 63 l 1
 0 46 l 1
 0 137 l 1
 52 154 l 1
 52 311 l 1
 77 311 l 1
 77 161 l 1
 173 193 l 1
 173 343 l 1
 198 343 l 1xef
543 123 m 1
 543 50 l 1
 535 50 l 2
 501 50 466.666992188 33 432 -1 c 1
 465.333007812 -34.3330078125 502.333007812 -52 543 -54 c 1
 543 -127 l 1
 470 -127 l 1
 470 -89 452 -52 416 -16 c 1
 380.666992188 -51.3330078125 363 -88.3330078125 363 -127 c 1
 290 -127 l 1
 290 -54 l 1
 328.666992188 -54 365.666992188 -36.3330078125 401 -1 c 1
 365.666992188 33 328.666992188 50 290 50 c 1
 290 123 l 1
 363 123 l 1
 363 84.3330078125 380.666992188 47.3330078125 416 12 c 1
 452 48 470 85 470 123 c 1
 543 123 l 1
EndSplineSet
Validated: 1
EndChar

StartChar: uniE266
Encoding: 57958 57958 117
Width: 690
Flags: W
HStem: 113 40<50.6896 134.139 253.631 336.618 456.631 539.988> 399 20G<0 32 202 234 405 437> 399 20G<0 32 202 234 405 437>
VStem: 0 32<104 419> 0 23<-124.56 69.2229 104 349> 202 27<-8.4931 69 104 419> 202 23<-124.56 2.08047 104 349> 405 32<118 419> 405 23<-124.56 -14.4137 118 349> 554 80<-7.74264 99.8506>
LayerCount: 2
Fore
SplineSet
0 419 m 1xd040
 32 419 l 1xd040
 25 104 l 1
 43.6669921875 136.666992188 74.6669921875 153 118 153 c 0
 132.666992188 153 146.833007812 150.5 160.5 145.5 c 0
 174.166992188 140.5 186 133.666992188 196 125 c 0
 206 116.333007812 214 106 220 94 c 0
 226 82 229 69 229 55 c 0
 227.666992188 35.6669921875 220.5 14.5 207.5 -8.5 c 0
 194.5 -31.5 172.333007812 -54.6669921875 141 -78 c 2
 0 -182 l 1xcc40
 0 419 l 1xd040
93 113 m 0
 65 113 43.6669921875 99 29 71 c 1
 25 33 23 0.6669921875 23 -26 c 0x8840
 23 -49.3330078125 23.5 -69.3330078125 24.5 -86 c 0
 25.5 -102.666992188 26.6669921875 -115.666992188 28 -125 c 1
 40.6669921875 -117 54.1669921875 -105.166992188 68.5 -89.5 c 0
 82.8330078125 -73.8330078125 96 -57 108 -39 c 0
 120 -21 129.833007812 -3.1669921875 137.5 14.5 c 0
 145.166992188 32.1669921875 149 47 149 59 c 0
 149 74.3330078125 143.5 87.1669921875 132.5 97.5 c 0
 121.5 107.833007812 108.333007812 113 93 113 c 0
498 113 m 0
 470 113 448.666992188 99 434 71 c 1
 430 33 428 0.6669921875 428 -26 c 0x80c0
 428 -49.3330078125 428.5 -69.3330078125 429.5 -86 c 0
 430.5 -102.666992188 431.666992188 -115.666992188 433 -125 c 1
 446.333007812 -117 460.166992188 -105.166992188 474.5 -89.5 c 0
 488.833007812 -73.8330078125 501.833007812 -57.1669921875 513.5 -39.5 c 0
 525.166992188 -21.8330078125 534.833007812 -4.1669921875 542.5 13.5 c 0
 550.166992188 31.1669921875 554 46.3330078125 554 59 c 0
 554 74.3330078125 548.833007812 87.1669921875 538.5 97.5 c 0
 528.166992188 107.833007812 514.666992188 113 498 113 c 0
202 419 m 1xc440
 234 419 l 1
 227 104 l 1
 247 136.666992188 278 153 320 153 c 0
 353.333007812 153 381.666992188 141.333007812 405 118 c 1
 405 419 l 1
 437 419 l 1xc540
 430 104 l 1
 450 136.666992188 481 153 523 153 c 0
 537.666992188 153 551.833007812 150.5 565.5 145.5 c 0
 579.166992188 140.5 591 133.666992188 601 125 c 0
 611 116.333007812 619 106 625 94 c 0
 631 82 634 69 634 55 c 0
 633.333007812 35 626.166992188 13.8330078125 612.5 -8.5 c 0
 598.833007812 -30.8330078125 576.666992188 -54 546 -78 c 0
 522 -96 498.5 -113.333007812 475.5 -130 c 0
 452.5 -146.666992188 429 -164 405 -182 c 1
 405 -14 l 1
 397 -26 385.666992188 -38.8330078125 371 -52.5 c 0
 356.333007812 -66.1669921875 339.833007812 -80.3330078125 321.5 -95 c 0
 303.166992188 -109.666992188 283.666992188 -124.333007812 263 -139 c 0
 242.333007812 -153.666992188 222 -168 202 -182 c 1xc2c0
 202 419 l 1xc440
295 113 m 0
 267 113 245.666992188 99 231 71 c 1
 227 33 225 0.6669921875 225 -26 c 0x8240
 225 -49.3330078125 225.5 -69.3330078125 226.5 -86 c 0
 227.5 -102.666992188 228.666992188 -115.666992188 230 -125 c 1
 243.333007812 -117 257.166992188 -105.166992188 271.5 -89.5 c 0
 285.833007812 -73.8330078125 298.833007812 -57.1669921875 310.5 -39.5 c 0
 322.166992188 -21.8330078125 331.833007812 -4.1669921875 339.5 13.5 c 0
 347.166992188 31.1669921875 351 46.3330078125 351 59 c 0
 351 74.3330078125 345.833007812 87.1669921875 335.5 97.5 c 0
 325.166992188 107.833007812 311.666992188 113 295 113 c 0
EndSplineSet
Validated: 5
EndChar

StartChar: uniE26A
Encoding: 57962 57962 118
Width: 190
Flags: W
VStem: 0 28<-88.5937 87.3296>
LayerCount: 2
Fore
SplineSet
113 213 m 1
 121 205 l 1
 111 197 100.5 187.833333333 89.5 177.5 c 0
 78.5 167.166666667 68.5 154.166666667 59.5 138.5 c 0
 50.5 122.833333333 43 104 37 82 c 0
 31 60 28 33.3333333333 28 2 c 0
 28 -26 30.3333333333 -50.5 35 -71.5 c 0
 39.6666666667 -92.5 46.1666666667 -111.166666667 54.5 -127.5 c 0
 62.8333333333 -143.833333333 72.5 -158.333333333 83.5 -171 c 0
 94.5 -183.666666667 106.666666667 -195.333333333 120 -206 c 1
 113 -214 l 1
 91 -200.666666667 72.8333333333 -185.333333333 58.5 -168 c 0
 44.1666666667 -150.666666667 32.6666666667 -132.666666667 24 -114 c 0
 15.3333333333 -95.3333333333 9.16666666667 -76.5 5.5 -57.5 c 0
 1.83333333333 -38.5 0 -20.3333333333 0 -3 c 0
 0 29.6666666667 4 58 12 82 c 0
 20 106 29.8333333333 126.5 41.5 143.5 c 0
 53.1666666667 160.5 65.5 174.5 78.5 185.5 c 0
 91.5 196.5 103 205.666666667 113 213 c 1
EndSplineSet
Validated: 1
EndChar

StartChar: uniE26B
Encoding: 57963 57963 119
Width: 190
Flags: W
VStem: 92 28<-89.0427 87.5974>
LayerCount: 2
Fore
SplineSet
8 -214 m 1
 0 -206 l 1
 9.33333333333 -198 19.5 -188.666666667 30.5 -178 c 0
 41.5 -167.333333333 51.5 -154.333333333 60.5 -139 c 0
 69.5 -123.666666667 77 -105 83 -83 c 0
 89 -61 92 -34.3333333333 92 -3 c 0
 92 25 89.6666666667 49.5 85 70.5 c 0
 80.3333333333 91.5 73.8333333333 110 65.5 126 c 0
 57.1666666667 142 47.5 156.333333333 36.5 169 c 0
 25.5 181.666666667 13.6666666667 193.666666667 1 205 c 1
 8 213 l 1
 29.3333333333 199.666666667 47.1666666667 184.5 61.5 167.5 c 0
 75.8333333333 150.5 87.3333333333 132.5 96 113.5 c 0
 104.666666667 94.5 110.833333333 75.3333333333 114.5 56 c 0
 118.166666667 36.6666666667 120 18.3333333333 120 1 c 0
 120 -31.6666666667 116 -59.8333333333 108 -83.5 c 0
 100 -107.166666667 90.1666666667 -127.5 78.5 -144.5 c 0
 66.8333333333 -161.5 54.5 -175.5 41.5 -186.5 c 0
 28.5 -197.5 17.3333333333 -206.666666667 8 -214 c 1
EndSplineSet
Validated: 1
EndChar

StartChar: uniE26C
Encoding: 57964 57964 120
Width: 178
Flags: W
HStem: -219 19<37 108> 200 19<37 108>
VStem: 0 37<-200 200>
LayerCount: 2
Fore
SplineSet
108 -219 m 1
 0 -219 l 1
 0 219 l 1
 108 219 l 1
 108 200 l 1
 37 200 l 1
 37 -200 l 1
 108 -200 l 1
 108 -219 l 1
EndSplineSet
Validated: 1
EndChar

StartChar: uniE26D
Encoding: 57965 57965 121
Width: 176
Flags: W
HStem: -219 19<0 69> 200 19<0 69>
VStem: 69 37<-200 200>
LayerCount: 2
Fore
SplineSet
0 219 m 1
 106 219 l 1
 106 -219 l 1
 0 -219 l 1
 0 -200 l 1
 69 -200 l 1
 69 200 l 1
 0 200 l 1
 0 219 l 1
EndSplineSet
Validated: 1
EndChar

StartChar: uniE2C0
Encoding: 58048 58048 122
Width: 503
Flags: W
HStem: 113 40<51.6314 134.618 254.631 337.988> 399 20G<0 32 203 235> 399 20G<0 32 203 235>
VStem: 0 32<104 419> 0 23<-124.56 69.2229 104 349> 203 32<118 419> 203 25<-345 -153.78 -124.56 -14.4137 118 329> 352 80<-7.74264 99.8506>
LayerCount: 2
Fore
SplineSet
298 -310 m 1xc3
 216 -485 l 1
 133 -310 l 1
 203 -345 l 1
 203 -14 l 1
 195 -26 183.666992188 -38.8330078125 169 -52.5 c 0
 154.333007812 -66.1669921875 137.833007812 -80.3330078125 119.5 -95 c 0
 101.166992188 -109.666992188 81.6669921875 -124.333007812 61 -139 c 0
 40.3330078125 -153.666992188 20 -168 0 -182 c 1xcb
 0 419 l 1
 32 419 l 1
 25 104 l 1
 45 136.666992188 76 153 118 153 c 0
 151.333007812 153 179.666992188 141.333007812 203 118 c 1
 203 419 l 1
 235 419 l 1xd5
 228 104 l 1
 248 136.666992188 279 153 321 153 c 0
 335.666992188 153 349.833007812 150.5 363.5 145.5 c 0
 377.166992188 140.5 389 133.666992188 399 125 c 0
 409 116.333007812 417 106 423 94 c 0
 429 82 432 69 432 55 c 0
 431.333007812 35 424.166992188 13.8330078125 410.5 -8.5 c 0
 396.833007812 -30.8330078125 374.666992188 -54 344 -78 c 0
 324 -92.6669921875 304.5 -106.666992188 285.5 -120 c 0
 266.5 -133.333007812 247.333007812 -147.666992188 228 -163 c 1
 228 -345 l 1
 298 -310 l 1xc3
296 113 m 0
 268 113 246.666992188 99 232 71 c 1
 228 33 226 0.6669921875 226 -26 c 0
 226 -49.3330078125 226.5 -69.3330078125 227.5 -86 c 0
 228.5 -102.666992188 229.666992188 -115.666992188 231 -125 c 1
 244.333007812 -117 258.166992188 -105.166992188 272.5 -89.5 c 0
 286.833007812 -73.8330078125 299.833007812 -57.1669921875 311.5 -39.5 c 0
 323.166992188 -21.8330078125 332.833007812 -4.1669921875 340.5 13.5 c 0
 348.166992188 31.1669921875 352 46.3330078125 352 59 c 0
 352 74.3330078125 346.833007812 87.1669921875 336.5 97.5 c 0
 326.166992188 107.833007812 312.666992188 113 296 113 c 0
93 113 m 0
 65 113 43.6669921875 99 29 71 c 1
 25 33 23 0.6669921875 23 -26 c 0
 23 -49.3330078125 23.5 -69.3330078125 24.5 -86 c 0
 25.5 -102.666992188 26.6669921875 -115.666992188 28 -125 c 1
 41.3330078125 -117 55.1669921875 -105.166992188 69.5 -89.5 c 0
 83.8330078125 -73.8330078125 96.8330078125 -57.1669921875 108.5 -39.5 c 0
 120.166992188 -21.8330078125 129.833007812 -4.1669921875 137.5 13.5 c 0
 145.166992188 31.1669921875 149 46.3330078125 149 59 c 0
 149 74.3330078125 143.833007812 87.1669921875 133.5 97.5 c 0
 123.166992188 107.833007812 109.666992188 113 93 113 c 0
EndSplineSet
Validated: 1
EndChar

StartChar: uniE2C1
Encoding: 58049 58049 123
Width: 298
Flags: W
HStem: 113 40<49.6896 133.139> 399 20G<0 31> 399 20G<0 31>
VStem: 0 25<-345 -163 -124.56 -86 -26 69.2229 104 104> 148 80<-6.73151 99.3248>
LayerCount: 2
Fore
SplineSet
95 -310 m 1xd8
 12 -485 l 1
 -70 -310 l 1
 0 -345 l 1
 0 419 l 1
 31 419 l 1
 24 104 l 1
 42.6669921875 136.666992188 73.6669921875 153 117 153 c 0
 131.666992188 153 145.833007812 150.5 159.5 145.5 c 0
 173.166992188 140.5 185 133.666992188 195 125 c 0
 205 116.333007812 213 106 219 94 c 0
 225 82 228 69 228 55 c 0
 226.666992188 35.6669921875 219.5 14.5 206.5 -8.5 c 0
 193.5 -31.5 171.333007812 -54.6669921875 140 -78 c 2
 25 -163 l 1
 25 -345 l 1
 95 -310 l 1xd8
92 113 m 0
 64 113 42.6669921875 99 28 71 c 1
 24 33 22 0.6669921875 22 -26 c 0
 22 -49.3330078125 22.5 -69.3330078125 23.5 -86 c 0
 24.5 -102.666992188 25.6669921875 -115.666992188 27 -125 c 1
 39.6669921875 -117 53.1669921875 -105.166992188 67.5 -89.5 c 0
 81.8330078125 -73.8330078125 95 -57 107 -39 c 0
 119 -21 128.833007812 -3.1669921875 136.5 14.5 c 0
 144.166992188 32.1669921875 148 47 148 59 c 0
 148 74.3330078125 142.5 87.1669921875 131.5 97.5 c 0
 120.5 107.833007812 107.333007812 113 92 113 c 0
EndSplineSet
Validated: 1
EndChar

StartChar: uniE2C2
Encoding: 58050 58050 124
Width: 269
Flags: W
HStem: 323 20G<0 25> 323 20G<0 25>
VStem: 0 25<-105 61 142 343> 153 25<-345 -140 -59 108>
LayerCount: 2
Fore
SplineSet
248 -310 m 5xb0
 165 -485 l 5
 83 -310 l 5
 153 -345 l 5
 153 -140 l 5
 0 -193 l 5
 0 343 l 5
 25 343 l 5
 25 142 l 5
 178 196 l 5
 178 -345 l 5
 248 -310 l 5xb0
25 -105 m 5
 153 -59 l 5
 153 108 l 5
 25 61 l 5
 25 -105 l 5
EndSplineSet
Validated: 1
EndChar

StartChar: uniE2C3
Encoding: 58051 58051 125
Width: 320
Flags: W
HStem: 323 20G<173 198> 323 20G<173 198>
VStem: 52 25<-264 -200 -102 63 161 311> 173 25<-346 -161 -63 102 200 343>
LayerCount: 2
Fore
SplineSet
268 -311 m 1xb0
 185 -486 l 1
 103 -311 l 1
 173 -346 l 1
 173 -161 l 1
 77 -192 l 1
 77 -264 l 1
 52 -264 l 1
 52 -200 l 1
 0 -216 l 1
 0 -126 l 1
 52 -108 l 1
 52 63 l 1
 0 46 l 5
 0 137 l 1
 52 154 l 1
 52 311 l 1
 77 311 l 1
 77 161 l 1
 173 193 l 1
 173 343 l 1
 198 343 l 1
 198 200 l 1
 250 217 l 1
 250 126 l 1
 198 109 l 1
 198 -63 l 1
 250 -45 l 1
 250 -137 l 1
 198 -154 l 1
 198 -346 l 1
 268 -311 l 1xb0
173 102 m 1
 77 70 l 1
 77 -102 l 1
 173 -69 l 1
 173 102 l 1
EndSplineSet
Validated: 1
EndChar

StartChar: uniE2C4
Encoding: 58052 58052 126
Width: 323
Flags: W
HStem: -124 73<0 73 180 253> 53 73<0 72.2607 182.741 253>
VStem: 0 73<-124 -51.7393 53.7393 126> 113 25<-345 -160> 180 73<-124 -53.9219 55.9219 126>
LayerCount: 2
Fore
SplineSet
180 -124 m 1
 180 -86 162 -49 126 -13 c 1
 90.6669921875 -48.3330078125 73 -85.3330078125 73 -124 c 1
 0 -124 l 1
 0 -51 l 1
 38.6669921875 -51 75.6669921875 -34 111 0 c 1
 75.6669921875 35.3330078125 38.6669921875 53 0 53 c 1
 0 126 l 1
 73 126 l 1
 73 87.3330078125 90.6669921875 50.3330078125 126 15 c 1
 162 51 180 88 180 126 c 1
 253 126 l 1
 253 53 l 1
 212.333007812 51 175.333007812 33.3330078125 142 0 c 1
 176.666992188 -34 211 -51 245 -51 c 2
 253 -51 l 1
 253 -124 l 1
 180 -124 l 1
208 -310 m 1
 126 -485 l 1
 43 -310 l 1
 113 -345 l 1
 113 -160 l 1
 138 -160 l 1
 138 -345 l 1
 208 -310 l 1
EndSplineSet
Validated: 1
EndChar

StartChar: uniE2C5
Encoding: 58053 58053 127
Width: 503
Flags: W
HStem: 113 40<50.6896 134.103 253.69 337.139> 399 20G<2.62857 21.4857 203 235>
VStem: 0 25<-124.56 69.2229 104 345> 203 32<118 419> 203 23<-124.56 -14.4137 118 349> 352 80<-6.7618 99.3248>
LayerCount: 2
Fore
SplineSet
95 310 m 1xec
 25 345 l 1
 25 104 l 1
 43.6669921875 136.666992188 74.6669921875 153 118 153 c 0
 151.333007812 153 179.666992188 141.333007812 203 118 c 1
 203 419 l 1
 235 419 l 1xf4
 228 104 l 1
 246.666992188 136.666992188 277.666992188 153 321 153 c 0
 335.666992188 153 349.833007812 150.5 363.5 145.5 c 0
 377.166992188 140.5 389 133.666992188 399 125 c 0
 409 116.333007812 417 106 423 94 c 0
 429 82 432 69 432 55 c 0
 431.333007812 35 424 13.8330078125 410 -8.5 c 0
 396 -30.8330078125 374 -54 344 -78 c 0
 320 -96 296.5 -113.333007812 273.5 -130 c 0
 250.5 -146.666992188 227 -164 203 -182 c 1
 203 -14 l 1
 195 -26 183.666992188 -38.8330078125 169 -52.5 c 0
 154.333007812 -66.1669921875 137.833007812 -80.3330078125 119.5 -95 c 0
 101.166992188 -109.666992188 81.6669921875 -124.333007812 61 -139 c 0
 40.3330078125 -153.666992188 20 -168 0 -182 c 1
 0 345 l 1
 -70 310 l 1
 12 485 l 1
 95 310 l 1xec
296 113 m 0
 268 113 246.666992188 99 232 71 c 1
 228 33 226 0.6669921875 226 -26 c 0xec
 226 -49.3330078125 226.5 -69.3330078125 227.5 -86 c 0
 228.5 -102.666992188 229.666992188 -115.666992188 231 -125 c 1
 243.666992188 -117 257.166992188 -105.166992188 271.5 -89.5 c 0
 285.833007812 -73.8330078125 299 -57 311 -39 c 0
 323 -21 332.833007812 -3.1669921875 340.5 14.5 c 0
 348.166992188 32.1669921875 352 47 352 59 c 0
 352 74.3330078125 346.5 87.1669921875 335.5 97.5 c 0
 324.5 107.833007812 311.333007812 113 296 113 c 0
93 113 m 0
 65 113 43.6669921875 99 29 71 c 1
 25 33 23 0.6669921875 23 -26 c 0
 23 -49.3330078125 23.5 -69.3330078125 24.5 -86 c 0
 25.5 -102.666992188 26.6669921875 -115.666992188 28 -125 c 1
 40.6669921875 -117 54.1669921875 -105.166992188 68.5 -89.5 c 0
 82.8330078125 -73.8330078125 96 -57 108 -39 c 0
 120 -21 129.833007812 -3.1669921875 137.5 14.5 c 0
 145.166992188 32.1669921875 149 47 149 59 c 0
 149 74.3330078125 143.5 87.1669921875 132.5 97.5 c 0
 121.5 107.833007812 108.333007812 113 93 113 c 0
EndSplineSet
Validated: 1
EndChar

StartChar: uniE2C6
Encoding: 58054 58054 128
Width: 297
Flags: W
HStem: 113 40<50.5924 133.943> 465 20G<2.62857 21.4857>
VStem: 0 25<-124.56 69.2231 104 345> 148 81<-6.96615 99.8506>
LayerCount: 2
Fore
SplineSet
95 310 m 1
 25 345 l 1
 25 104 l 1
 43.6669921875 136.666992188 74.3330078125 153 117 153 c 0
 132.333007812 153 146.666992188 150.5 160 145.5 c 0
 173.333007812 140.5 185 133.666992188 195 125 c 0
 205 116.333007812 213 106 219 94 c 0
 225 82 228.333007812 69 229 55 c 0
 226.333007812 35.6669921875 218.833007812 14.3330078125 206.5 -9 c 0
 194.166992188 -32.3330078125 172 -55.3330078125 140 -78 c 2
 0 -182 l 1
 0 345 l 1
 -70 310 l 1
 12 485 l 1
 95 310 l 1
92 113 m 0
 64 113 42.6669921875 99 28 71 c 1
 24 33 22 1 22 -25 c 0
 22 -49 22.5 -69.3330078125 23.5 -86 c 0
 24.5 -102.666992188 25.6669921875 -115.666992188 27 -125 c 1
 40.3330078125 -117 54.1669921875 -105.166992188 68.5 -89.5 c 0
 82.8330078125 -73.8330078125 95.8330078125 -57 107.5 -39 c 0
 119.166992188 -21 128.833007812 -3.1669921875 136.5 14.5 c 0
 144.166992188 32.1669921875 148 47 148 59 c 0
 148 74.3330078125 142.833007812 87.1669921875 132.5 97.5 c 0
 122.166992188 107.833007812 108.666992188 113 92 113 c 0
EndSplineSet
Validated: 1
EndChar

StartChar: uniE2C7
Encoding: 58055 58055 129
Width: 269
Flags: W
HStem: -340 21G<153 178> 464 20G<2.62857 21.4857>
VStem: 0 25<-105 60 141 344> 153 25<-340 -141 -60 107>
LayerCount: 2
Fore
SplineSet
95 309 m 1
 25 344 l 1
 25 141 l 1
 178 195 l 1
 178 -340 l 1
 153 -340 l 1
 153 -141 l 1
 0 -193 l 1
 0 344 l 1
 -70 309 l 1
 12 484 l 1
 95 309 l 1
25 -105 m 1
 153 -60 l 1
 153 107 l 1
 25 60 l 1
 25 -105 l 1
EndSplineSet
Validated: 1
EndChar

StartChar: uniE2C8
Encoding: 58056 58056 130
Width: 320
Flags: W
HStem: 464 20G<54.6286 73.4857>
VStem: 52 25<-343 -200 -102 63 161 344> 173 25<-311 -161 -63 102 200 263>
LayerCount: 2
Fore
SplineSet
147 309 m 1
 77 344 l 1
 77 161 l 1
 173 193 l 1
 173 263 l 1
 198 263 l 1
 198 200 l 1
 250 217 l 1
 250 126 l 1
 198 109 l 1
 198 -63 l 1
 250 -46 l 5
 250 -137 l 1
 198 -154 l 1
 198 -311 l 1
 173 -311 l 1
 173 -161 l 1
 77 -193 l 1
 77 -343 l 1
 52 -343 l 1
 52 -200 l 1
 0 -217 l 1
 0 -126 l 1
 52 -109 l 1
 52 63 l 1
 0 46 l 1
 0 137 l 1
 52 154 l 1
 52 344 l 1
 -18 309 l 1
 64 484 l 1
 147 309 l 1
173 102 m 1
 77 70 l 1
 77 -102 l 1
 173 -70 l 1
 173 102 l 1
EndSplineSet
Validated: 1
EndChar

StartChar: uniE2C9
Encoding: 58057 58057 131
Width: 323
Flags: W
HStem: -127 73<0 72.2607 182.741 253> 50 73<0 73 180 253> 465 20G<115.514 134.371>
VStem: 0 73<-127 -54.7393 50.7393 123> 112 25<160 350> 180 73<-127 -56.9219 52.9219 123>
LayerCount: 2
Fore
SplineSet
253 123 m 1
 253 50 l 1
 245 50 l 2
 211 50 176.666992188 33 142 -1 c 1
 175.333007812 -34.3330078125 212.333007812 -52 253 -54 c 1
 253 -127 l 1
 180 -127 l 1
 180 -89 162 -52 126 -16 c 1
 90.6669921875 -51.3330078125 73 -88.3330078125 73 -127 c 1
 0 -127 l 1
 0 -54 l 1
 38.6669921875 -54 75.6669921875 -36.3330078125 111 -1 c 1
 75.6669921875 33 38.6669921875 50 0 50 c 1
 0 123 l 1
 73 123 l 1
 73 84.3330078125 90.6669921875 47.3330078125 126 12 c 1
 162 48 180 85 180 123 c 1
 253 123 l 1
137 350 m 1
 137 160 l 1
 112 160 l 1
 112 350 l 1
 42 310 l 1
 125 485 l 1
 207 310 l 1
 137 350 l 1
EndSplineSet
Validated: 1
EndChar

StartChar: uniE2CA
Encoding: 58058 58058 132
Width: 503
Flags: W
HStem: 113 40<51.6314 134.618 254.631 337.988> 399 20G<0 32 203 235> 399 20G<0 32 203 235>
VStem: 0 32<104 419> 0 23<-124.56 69.2229 104 349> 203 32<118 419> 203 25<-345 -153.78 -124.56 -14.4137 118 329> 352 80<-7.74264 99.8506>
LayerCount: 2
Fore
SplineSet
298 -433 m 1xc3
 216 -608 l 1
 133 -433 l 1
 203 -468 l 1
 133 -310 l 1
 203 -345 l 1
 203 -14 l 1
 195 -26 183.666992188 -38.8330078125 169 -52.5 c 0
 154.333007812 -66.1669921875 137.833007812 -80.3330078125 119.5 -95 c 0
 101.166992188 -109.666992188 81.6669921875 -124.333007812 61 -139 c 0
 40.3330078125 -153.666992188 20 -168 0 -182 c 1xcb
 0 419 l 1
 32 419 l 1
 25 104 l 1
 45 136.666992188 76 153 118 153 c 0
 151.333007812 153 179.666992188 141.333007812 203 118 c 1
 203 419 l 1
 235 419 l 1xd5
 228 104 l 1
 248 136.666992188 279 153 321 153 c 0
 335.666992188 153 349.833007812 150.5 363.5 145.5 c 0
 377.166992188 140.5 389 133.666992188 399 125 c 0
 409 116.333007812 417 106 423 94 c 0
 429 82 432 69 432 55 c 0
 431.333007812 35 424.166992188 13.8330078125 410.5 -8.5 c 0
 396.833007812 -30.8330078125 374.666992188 -54 344 -78 c 0
 324 -92.6669921875 304.5 -106.666992188 285.5 -120 c 0
 266.5 -133.333007812 247.333007812 -147.666992188 228 -163 c 1
 228 -345 l 1
 298 -310 l 1
 228 -468 l 1
 298 -433 l 1xc3
296 113 m 0
 268 113 246.666992188 99 232 71 c 1
 228 33 226 0.6669921875 226 -26 c 0
 226 -49.3330078125 226.5 -69.3330078125 227.5 -86 c 0
 228.5 -102.666992188 229.666992188 -115.666992188 231 -125 c 1
 244.333007812 -117 258.166992188 -105.166992188 272.5 -89.5 c 0
 286.833007812 -73.8330078125 299.833007812 -57.1669921875 311.5 -39.5 c 0
 323.166992188 -21.8330078125 332.833007812 -4.1669921875 340.5 13.5 c 0
 348.166992188 31.1669921875 352 46.3330078125 352 59 c 0
 352 74.3330078125 346.833007812 87.1669921875 336.5 97.5 c 0
 326.166992188 107.833007812 312.666992188 113 296 113 c 0
93 113 m 0
 65 113 43.6669921875 99 29 71 c 1
 25 33 23 0.6669921875 23 -26 c 0
 23 -49.3330078125 23.5 -69.3330078125 24.5 -86 c 0
 25.5 -102.666992188 26.6669921875 -115.666992188 28 -125 c 1
 41.3330078125 -117 55.1669921875 -105.166992188 69.5 -89.5 c 0
 83.8330078125 -73.8330078125 96.8330078125 -57.1669921875 108.5 -39.5 c 0
 120.166992188 -21.8330078125 129.833007812 -4.1669921875 137.5 13.5 c 0
 145.166992188 31.1669921875 149 46.3330078125 149 59 c 0
 149 74.3330078125 143.833007812 87.1669921875 133.5 97.5 c 0
 123.166992188 107.833007812 109.666992188 113 93 113 c 0
EndSplineSet
Validated: 1
EndChar

StartChar: uniE2CB
Encoding: 58059 58059 133
Width: 299
Flags: W
HStem: 113 40<50.6896 134.139> 399 20G<0 32> 399 20G<0 32>
VStem: 0 32<104 419> 0 25<-345 -163 -124.56 69.2229 104 329> 149 80<-6.73151 99.3248>
LayerCount: 2
Fore
SplineSet
95 -433 m 1xcc
 12 -608 l 1
 -70 -433 l 1
 0 -468 l 1
 -70 -310 l 1
 0 -345 l 1xcc
 0 419 l 1
 32 419 l 1xd4
 25 104 l 1
 43.6669921875 136.666992188 74.6669921875 153 118 153 c 0
 132.666992188 153 146.833007812 150.5 160.5 145.5 c 0
 174.166992188 140.5 186 133.666992188 196 125 c 0
 206 116.333007812 214 106 220 94 c 0
 226 82 229 69 229 55 c 0
 227.666992188 35.6669921875 220.5 14.5 207.5 -8.5 c 0
 194.5 -31.5 172.333007812 -54.6669921875 141 -78 c 2
 25 -163 l 1
 25 -345 l 1
 95 -310 l 1
 25 -468 l 1
 95 -433 l 1xcc
93 113 m 0
 65 113 43.6669921875 99 29 71 c 1
 25 33 23 0.6669921875 23 -26 c 0
 23 -49.3330078125 23.5 -69.3330078125 24.5 -86 c 0
 25.5 -102.666992188 26.6669921875 -115.666992188 28 -125 c 1
 40.6669921875 -117 54.1669921875 -105.166992188 68.5 -89.5 c 0
 82.8330078125 -73.8330078125 96 -57 108 -39 c 0
 120 -21 129.833007812 -3.1669921875 137.5 14.5 c 0
 145.166992188 32.1669921875 149 47 149 59 c 0
 149 74.3330078125 143.5 87.1669921875 132.5 97.5 c 0
 121.5 107.833007812 108.333007812 113 93 113 c 0
EndSplineSet
Validated: 1
EndChar

StartChar: uniE2CC
Encoding: 58060 58060 134
Width: 269
Flags: W
HStem: 323 20G<0 25> 323 20G<0 25>
VStem: 0 25<-105 61 142 343> 153 25<-345 -140 -59 108>
LayerCount: 2
Fore
SplineSet
247 -433 m 1xb0
 165 -608 l 1
 82 -433 l 1
 152 -468 l 1
 82 -310 l 1
 152 -345 l 1
 153 -140 l 1
 0 -193 l 1
 0 343 l 1
 25 343 l 1
 25 142 l 1
 178 196 l 1
 177 -345 l 1
 247 -310 l 1
 177 -468 l 1
 247 -433 l 1xb0
25 -105 m 1
 153 -59 l 1
 153 108 l 1
 25 61 l 1
 25 -105 l 1
EndSplineSet
Validated: 1
EndChar

StartChar: uniE2CD
Encoding: 58061 58061 135
Width: 320
Flags: W
HStem: 323 20G<173 198> 323 20G<173 198>
VStem: 52 25<-264 -200 -102 63 161 311> 173 25<-346 -161 -63 102 200 343>
LayerCount: 2
Fore
SplineSet
268 -434 m 5xb0
 185 -609 l 5
 103 -434 l 5
 173 -469 l 5
 103 -311 l 5
 173 -346 l 5
 173 -161 l 5
 77 -192 l 5
 77 -264 l 5
 52 -264 l 5
 52 -200 l 5
 0 -216 l 5
 0 -126 l 5
 52 -108 l 5
 52 63 l 5
 0 46 l 5
 0 137 l 5
 52 154 l 5
 52 311 l 5
 77 311 l 5
 77 161 l 5
 173 193 l 5
 173 343 l 5
 198 343 l 5
 198 200 l 5
 250 217 l 5
 250 126 l 5
 198 109 l 5
 198 -63 l 5
 250 -45 l 5
 250 -137 l 5
 198 -153 l 5
 198 -346 l 5
 268 -311 l 5
 198 -469 l 5
 268 -434 l 5xb0
173 102 m 5
 77 70 l 5
 77 -102 l 5
 173 -69 l 5
 173 102 l 5
EndSplineSet
Validated: 1
EndChar

StartChar: uniE2CE
Encoding: 58062 58062 136
Width: 323
Flags: W
HStem: -124 73<0 73 180 253> 53 73<0 72.2607 182.741 253>
VStem: 0 73<-124 -51.7393 53.7393 126> 113 25<-345 -160> 180 73<-124 -53.9219 55.9219 126>
LayerCount: 2
Fore
SplineSet
180 -124 m 1
 180 -86 162 -49 126 -13 c 1
 90.6669921875 -48.3330078125 73 -85.3330078125 73 -124 c 1
 0 -124 l 1
 0 -51 l 1
 38.6669921875 -51 75.6669921875 -34 111 0 c 1
 75.6669921875 35.3330078125 38.6669921875 53 0 53 c 1
 0 126 l 1
 73 126 l 1
 73 87.3330078125 90.6669921875 50.3330078125 126 15 c 1
 162 51 180 88 180 126 c 1
 253 126 l 1
 253 53 l 1
 212.333007812 51 175.333007812 33.3330078125 142 0 c 1
 176.666992188 -34 211 -51 245 -51 c 2
 253 -51 l 1
 253 -124 l 1
 180 -124 l 1
208 -433 m 1
 126 -608 l 1
 43 -433 l 1
 113 -468 l 1
 43 -310 l 1
 113 -345 l 1
 113 -160 l 1
 138 -160 l 1
 138 -345 l 1
 208 -310 l 1
 138 -468 l 1
 208 -433 l 1
EndSplineSet
Validated: 1
EndChar

StartChar: uniE2CF
Encoding: 58063 58063 137
Width: 503
Flags: W
HStem: 113 40<50.6896 134.103 253.69 337.139> 399 20G<3.51429 22.3714 203 235>
VStem: 0 25<-124.56 69.2229 104 345> 203 32<118 419> 203 23<-124.56 -14.4137 118 349> 352 80<-6.7618 99.3248>
LayerCount: 2
Fore
SplineSet
95 310 m 1xec
 25 345 l 1
 25 104 l 1
 43.6669921875 136.666992188 74.6669921875 153 118 153 c 0
 151.333007812 153 179.666992188 141.333007812 203 118 c 1
 203 419 l 1
 235 419 l 1xf4
 228 104 l 1
 246.666992188 136.666992188 277.666992188 153 321 153 c 0
 335.666992188 153 349.833007812 150.5 363.5 145.5 c 0
 377.166992188 140.5 389 133.666992188 399 125 c 0
 409 116.333007812 417 106 423 94 c 0
 429 82 432 69 432 55 c 0
 431.333007812 35 424 13.8330078125 410 -8.5 c 0
 396 -30.8330078125 374 -54 344 -78 c 0
 320 -96 296.5 -113.333007812 273.5 -130 c 0
 250.5 -146.666992188 227 -164 203 -182 c 1
 203 -14 l 1
 195 -26 183.666992188 -38.8330078125 169 -52.5 c 0
 154.333007812 -66.1669921875 137.833007812 -80.3330078125 119.5 -95 c 0
 101.166992188 -109.666992188 81.6669921875 -124.333007812 61 -139 c 0
 40.3330078125 -153.666992188 20 -168 0 -182 c 1
 0 345 l 1
 -70 310 l 1
 0 468 l 1
 -70 433 l 1
 13 608 l 1
 95 433 l 1
 25 468 l 1
 95 310 l 1xec
296 113 m 0
 268 113 246.666992188 99 232 71 c 1
 228 33 226 0.6669921875 226 -26 c 0xec
 226 -49.3330078125 226.5 -69.3330078125 227.5 -86 c 0
 228.5 -102.666992188 229.666992188 -115.666992188 231 -125 c 1
 243.666992188 -117 257.166992188 -105.166992188 271.5 -89.5 c 0
 285.833007812 -73.8330078125 299 -57 311 -39 c 0
 323 -21 332.833007812 -3.1669921875 340.5 14.5 c 0
 348.166992188 32.1669921875 352 47 352 59 c 0
 352 74.3330078125 346.5 87.1669921875 335.5 97.5 c 0
 324.5 107.833007812 311.333007812 113 296 113 c 0
93 113 m 0
 65 113 43.6669921875 99 29 71 c 1
 25 33 23 0.6669921875 23 -26 c 0
 23 -49.3330078125 23.5 -69.3330078125 24.5 -86 c 0
 25.5 -102.666992188 26.6669921875 -115.666992188 28 -125 c 1
 40.6669921875 -117 54.1669921875 -105.166992188 68.5 -89.5 c 0
 82.8330078125 -73.8330078125 96 -57 108 -39 c 0
 120 -21 129.833007812 -3.1669921875 137.5 14.5 c 0
 145.166992188 32.1669921875 149 47 149 59 c 0
 149 74.3330078125 143.5 87.1669921875 132.5 97.5 c 0
 121.5 107.833007812 108.333007812 113 93 113 c 0
EndSplineSet
Validated: 1
EndChar

StartChar: uniE2D0
Encoding: 58064 58064 138
Width: 299
Flags: W
HStem: 113 40<50.6896 134.139> 588 20G<2.62857 21.4857>
VStem: 0 25<-124.56 69.2229 104 345> 149 80<-6.73151 99.3248>
LayerCount: 2
Fore
SplineSet
95 310 m 1
 25 345 l 1
 25 104 l 1
 43.6669921875 136.666992188 74.6669921875 153 118 153 c 0
 132.666992188 153 146.833007812 150.5 160.5 145.5 c 0
 174.166992188 140.5 186 133.666992188 196 125 c 0
 206 116.333007812 214 106 220 94 c 0
 226 82 229 69 229 55 c 0
 227.666992188 35.6669921875 220.5 14.5 207.5 -8.5 c 0
 194.5 -31.5 172.333007812 -54.6669921875 141 -78 c 2
 0 -182 l 1
 0 345 l 1
 -70 310 l 1
 0 468 l 1
 -70 433 l 1
 12 608 l 1
 95 433 l 1
 25 468 l 1
 95 310 l 1
93 113 m 0
 65 113 43.6669921875 99 29 71 c 1
 25 33 23 0.6669921875 23 -26 c 0
 23 -49.3330078125 23.5 -69.3330078125 24.5 -86 c 0
 25.5 -102.666992188 26.6669921875 -115.666992188 28 -125 c 1
 40.6669921875 -117 54.1669921875 -105.166992188 68.5 -89.5 c 0
 82.8330078125 -73.8330078125 96 -57 108 -39 c 0
 120 -21 129.833007812 -3.1669921875 137.5 14.5 c 0
 145.166992188 32.1669921875 149 47 149 59 c 0
 149 74.3330078125 143.5 87.1669921875 132.5 97.5 c 0
 121.5 107.833007812 108.333007812 113 93 113 c 0
EndSplineSet
Validated: 1
EndChar

StartChar: uniE2D1
Encoding: 58065 58065 139
Width: 269
Flags: W
HStem: -340 21G<153 178> 588 20G<2.62857 21.4857>
VStem: 0 25<-105 61 142 345> 153 25<-340 -140 -59 108>
LayerCount: 2
Fore
SplineSet
95 310 m 1
 25 345 l 1
 25 142 l 1
 178 196 l 1
 178 -340 l 1
 153 -340 l 1
 153 -140 l 1
 0 -193 l 1
 0 345 l 1
 -70 310 l 1
 0 468 l 1
 -70 433 l 1
 12 608 l 1
 95 433 l 1
 25 468 l 1
 95 310 l 1
25 -105 m 1
 153 -59 l 1
 153 108 l 1
 25 61 l 1
 25 -105 l 1
EndSplineSet
Validated: 1
EndChar

StartChar: uniE2D2
Encoding: 58066 58066 140
Width: 320
Flags: W
HStem: 587 20G<54.6286 73.4857>
VStem: 52 25<-343 -200 -102 63 161 344> 173 25<-311 -161 -63 102 200 263>
LayerCount: 2
Fore
SplineSet
147 309 m 1
 77 344 l 1
 77 161 l 1
 173 193 l 1
 173 263 l 1
 198 263 l 1
 198 200 l 1
 250 217 l 1
 250 126 l 1
 198 109 l 1
 198 -63 l 1
 250 -46 l 1
 250 -137 l 1
 198 -154 l 1
 198 -311 l 1
 173 -311 l 1
 173 -161 l 1
 77 -193 l 1
 77 -343 l 1
 52 -343 l 1
 52 -200 l 1
 0 -217 l 1
 0 -126 l 1
 52 -109 l 1
 52 63 l 1
 0 46 l 1
 0 137 l 1
 52 154 l 1
 52 344 l 1
 -18 309 l 1
 52 467 l 1
 -18 432 l 1
 64 607 l 1
 147 432 l 1
 77 467 l 1
 147 309 l 1
173 102 m 1
 77 70 l 1
 77 -102 l 1
 173 -70 l 1
 173 102 l 1
EndSplineSet
Validated: 1
EndChar

StartChar: uniE2D3
Encoding: 58067 58067 141
Width: 323
Flags: W
HStem: -127 73<0 72.2607 182.741 253> 50 73<0 73 180 253> 433 21G<52.4857 83 168 198.629> 433 21G<52.4857 83 168 198.629> 588 20G<116.514 135.371>
VStem: 0 73<-127 -54.7393 50.7393 123> 113 25<159 345> 180 73<-127 -56.9219 52.9219 123>
LayerCount: 2
Fore
SplineSet
253 123 m 1xcf
 253 50 l 1
 245 50 l 2
 211 50 176.666992188 33 142 -1 c 1
 175.333007812 -34.3330078125 212.333007812 -52 253 -54 c 1
 253 -127 l 1
 180 -127 l 1
 180 -89 162 -52 126 -16 c 1
 90.6669921875 -51.3330078125 73 -88.3330078125 73 -127 c 1
 0 -127 l 1
 0 -54 l 1
 38.6669921875 -54 75.6669921875 -36.3330078125 111 -1 c 1
 75.6669921875 33 38.6669921875 50 0 50 c 1
 0 123 l 1
 73 123 l 1
 73 84.3330078125 90.6669921875 47.3330078125 126 12 c 1
 162 48 180 85 180 123 c 1
 253 123 l 1xcf
138 468 m 1
 208 310 l 1
 138 345 l 1
 138 159 l 1
 113 159 l 1
 113 345 l 1
 43 310 l 1
 113 468 l 1
 43 433 l 1
 126 608 l 1
 208 433 l 1xdf
 138 468 l 1
EndSplineSet
Validated: 1
EndChar

StartChar: uniE2D4
Encoding: 58068 58068 142
Width: 503
Flags: W
HStem: 113 40<51.6314 134.618 254.631 337.988> 399 20G<0 32 203 235> 399 20G<0 32 203 235>
VStem: 0 32<104 419> 0 23<-124.56 69.2229 104 349> 203 32<118 419> 203 25<-345 -153.78 -124.56 -14.4137 118 329> 352 80<-7.74264 99.8506>
LayerCount: 2
Fore
SplineSet
298 -556 m 1xc3
 216 -731 l 1
 133 -556 l 1
 203 -591 l 1
 133 -433 l 1
 203 -468 l 1
 133 -310 l 1
 203 -345 l 1
 203 -14 l 1
 195 -26 183.666992188 -38.8330078125 169 -52.5 c 0
 154.333007812 -66.1669921875 137.833007812 -80.3330078125 119.5 -95 c 0
 101.166992188 -109.666992188 81.6669921875 -124.333007812 61 -139 c 0
 40.3330078125 -153.666992188 20 -168 0 -182 c 1xcb
 0 419 l 1
 32 419 l 1
 25 104 l 1
 45 136.666992188 76 153 118 153 c 0
 151.333007812 153 179.666992188 141.333007812 203 118 c 1
 203 419 l 1
 235 419 l 1xd5
 228 104 l 1
 248 136.666992188 279 153 321 153 c 0
 335.666992188 153 349.833007812 150.5 363.5 145.5 c 0
 377.166992188 140.5 389 133.666992188 399 125 c 0
 409 116.333007812 417 106 423 94 c 0
 429 82 432 69 432 55 c 0
 431.333007812 35 424.166992188 13.8330078125 410.5 -8.5 c 0
 396.833007812 -30.8330078125 374.666992188 -54 344 -78 c 0
 324 -92.6669921875 304.5 -106.666992188 285.5 -120 c 0
 266.5 -133.333007812 247.333007812 -147.666992188 228 -163 c 1
 228 -345 l 1
 298 -310 l 1
 228 -468 l 1
 298 -433 l 1
 228 -591 l 1
 298 -556 l 1xc3
296 113 m 0
 268 113 246.666992188 99 232 71 c 1
 228 33 226 0.6669921875 226 -26 c 0
 226 -49.3330078125 226.5 -69.3330078125 227.5 -86 c 0
 228.5 -102.666992188 229.666992188 -115.666992188 231 -125 c 1
 244.333007812 -117 258.166992188 -105.166992188 272.5 -89.5 c 0
 286.833007812 -73.8330078125 299.833007812 -57.1669921875 311.5 -39.5 c 0
 323.166992188 -21.8330078125 332.833007812 -4.1669921875 340.5 13.5 c 0
 348.166992188 31.1669921875 352 46.3330078125 352 59 c 0
 352 74.3330078125 346.833007812 87.1669921875 336.5 97.5 c 0
 326.166992188 107.833007812 312.666992188 113 296 113 c 0
93 113 m 0
 65 113 43.6669921875 99 29 71 c 1
 25 33 23 0.6669921875 23 -26 c 0
 23 -49.3330078125 23.5 -69.3330078125 24.5 -86 c 0
 25.5 -102.666992188 26.6669921875 -115.666992188 28 -125 c 1
 41.3330078125 -117 55.1669921875 -105.166992188 69.5 -89.5 c 0
 83.8330078125 -73.8330078125 96.8330078125 -57.1669921875 108.5 -39.5 c 0
 120.166992188 -21.8330078125 129.833007812 -4.1669921875 137.5 13.5 c 0
 145.166992188 31.1669921875 149 46.3330078125 149 59 c 0
 149 74.3330078125 143.833007812 87.1669921875 133.5 97.5 c 0
 123.166992188 107.833007812 109.666992188 113 93 113 c 0
EndSplineSet
Validated: 1
EndChar

StartChar: uniE2D5
Encoding: 58069 58069 143
Width: 299
Flags: W
HStem: 113 40<50.6896 134.139> 399 20G<0 32> 399 20G<0 32>
VStem: 0 32<104 419> 0 25<-345 -163 -124.56 69.2229 104 329> 149 80<-6.73151 99.3248>
LayerCount: 2
Fore
SplineSet
95 -556 m 1xcc
 12 -731 l 1
 -70 -556 l 1
 0 -591 l 1
 -70 -433 l 1
 0 -468 l 1
 -70 -310 l 1
 0 -345 l 1xcc
 0 419 l 1
 32 419 l 1xd4
 25 104 l 1
 43.6669921875 136.666992188 74.6669921875 153 118 153 c 0
 132.666992188 153 146.833007812 150.5 160.5 145.5 c 0
 174.166992188 140.5 186 133.666992188 196 125 c 0
 206 116.333007812 214 106 220 94 c 0
 226 82 229 69 229 55 c 0
 227.666992188 35.6669921875 220.5 14.5 207.5 -8.5 c 0
 194.5 -31.5 172.333007812 -54.6669921875 141 -78 c 2
 25 -163 l 1
 25 -345 l 1
 95 -310 l 1
 25 -468 l 1
 95 -433 l 1
 25 -591 l 1
 95 -556 l 1xcc
93 113 m 0
 65 113 43.6669921875 99 29 71 c 1
 25 33 23 0.6669921875 23 -26 c 0
 23 -49.3330078125 23.5 -69.3330078125 24.5 -86 c 0
 25.5 -102.666992188 26.6669921875 -115.666992188 28 -125 c 1
 40.6669921875 -117 54.1669921875 -105.166992188 68.5 -89.5 c 0
 82.8330078125 -73.8330078125 96 -57 108 -39 c 0
 120 -21 129.833007812 -3.1669921875 137.5 14.5 c 0
 145.166992188 32.1669921875 149 47 149 59 c 0
 149 74.3330078125 143.5 87.1669921875 132.5 97.5 c 0
 121.5 107.833007812 108.333007812 113 93 113 c 0
EndSplineSet
Validated: 1
EndChar

StartChar: uniE2D6
Encoding: 58070 58070 144
Width: 269
Flags: W
HStem: 323 20G<0 25> 323 20G<0 25>
VStem: 0 25<-105 61 142 343> 153 25<-345 -140 -59 108>
LayerCount: 2
Fore
SplineSet
247 -556 m 1xb0
 165 -731 l 1
 82 -556 l 1
 152 -591 l 1
 82 -433 l 1
 152 -468 l 1
 82 -310 l 1
 152 -345 l 1
 153 -140 l 1
 0 -193 l 1
 0 343 l 1
 25 343 l 1
 25 142 l 1
 178 196 l 1
 177 -345 l 1
 247 -310 l 1
 177 -468 l 1
 247 -433 l 1
 177 -591 l 1
 247 -556 l 1xb0
25 -105 m 1
 153 -59 l 1
 153 108 l 1
 25 61 l 1
 25 -105 l 1
EndSplineSet
Validated: 1
EndChar

StartChar: uniE2D7
Encoding: 58071 58071 145
Width: 320
Flags: W
HStem: 323 20G<173 198> 323 20G<173 198>
VStem: 52 25<-264 -200 -102 63 161 311> 173 25<-346 -161 -63 102 200 343>
LayerCount: 2
Fore
SplineSet
268 -557 m 5xb0
 185 -732 l 5
 103 -557 l 5
 173 -592 l 5
 103 -434 l 5
 173 -469 l 5
 103 -311 l 5
 173 -346 l 5
 173 -161 l 5
 77 -192 l 5
 77 -264 l 5
 52 -264 l 5
 52 -200 l 5
 0 -216 l 5
 0 -126 l 5
 52 -108 l 5
 52 63 l 5
 0 46 l 5
 0 137 l 5
 52 154 l 5
 52 311 l 5
 77 311 l 5
 77 161 l 5
 173 193 l 5
 173 343 l 5
 198 343 l 5
 198 200 l 5
 250 217 l 5
 250 126 l 5
 198 109 l 5
 198 -63 l 5
 250 -45 l 5
 250 -137 l 5
 198 -153 l 5
 198 -346 l 5
 268 -311 l 5
 198 -469 l 5
 268 -434 l 5
 198 -592 l 5
 268 -557 l 5xb0
173 102 m 5
 77 70 l 5
 77 -102 l 5
 173 -69 l 5
 173 102 l 5
EndSplineSet
Validated: 1
EndChar

StartChar: uniE2D8
Encoding: 58072 58072 146
Width: 323
Flags: W
HStem: -124 73<0 73 180 253> 53 73<0 72.2607 182.741 253>
VStem: 0 73<-124 -51.7393 53.7393 126> 113 25<-345 -160> 180 73<-124 -53.9219 55.9219 126>
LayerCount: 2
Fore
SplineSet
208 -556 m 1
 126 -731 l 1
 43 -556 l 1
 113 -591 l 1
 43 -433 l 1
 113 -468 l 1
 43 -310 l 1
 113 -345 l 1
 113 -160 l 1
 138 -160 l 1
 138 -345 l 1
 208 -310 l 1
 138 -468 l 1
 208 -433 l 1
 138 -591 l 1
 208 -556 l 1
180 -124 m 1
 180 -86 162 -49 126 -13 c 1
 90.6669921875 -48.3330078125 73 -85.3330078125 73 -124 c 1
 0 -124 l 1
 0 -51 l 1
 38.6669921875 -51 75.6669921875 -34 111 0 c 1
 75.6669921875 35.3330078125 38.6669921875 53 0 53 c 1
 0 126 l 1
 73 126 l 1
 73 87.3330078125 90.6669921875 50.3330078125 126 15 c 1
 162 51 180 88 180 126 c 1
 253 126 l 1
 253 53 l 1
 212.333007812 51 175.333007812 33.3330078125 142 0 c 1
 176.666992188 -34 211 -51 245 -51 c 2
 253 -51 l 1
 253 -124 l 1
 180 -124 l 1
EndSplineSet
Validated: 1
EndChar

StartChar: uniE2D9
Encoding: 58073 58073 147
Width: 503
Flags: W
HStem: 113 40<50.6896 134.103 253.69 337.139> 399 20G<-40 -8.86076 3.51429 22.3714 203 235> 556 21G<-60.5143 -30 55 85.6286>
VStem: 0 25<-124.56 69.2229 104 345> 203 32<118 419> 203 23<-124.56 -14.4137 118 349> 352 80<-6.7618 99.3248>
LayerCount: 2
Fore
SplineSet
95 310 m 1xf6
 25 345 l 1
 25 104 l 1
 43.6669921875 136.666992188 74.6669921875 153 118 153 c 0
 151.333007812 153 179.666992188 141.333007812 203 118 c 1
 203 419 l 1
 235 419 l 1xfa
 228 104 l 1
 246.666992188 136.666992188 277.666992188 153 321 153 c 0
 335.666992188 153 349.833007812 150.5 363.5 145.5 c 0
 377.166992188 140.5 389 133.666992188 399 125 c 0
 409 116.333007812 417 106 423 94 c 0
 429 82 432 69 432 55 c 0
 431.333007812 35 424 13.8330078125 410 -8.5 c 0
 396 -30.8330078125 374 -54 344 -78 c 0
 320 -96 296.5 -113.333007812 273.5 -130 c 0
 250.5 -146.666992188 227 -164 203 -182 c 1
 203 -14 l 1
 195 -26 183.666992188 -38.8330078125 169 -52.5 c 0
 154.333007812 -66.1669921875 137.833007812 -80.3330078125 119.5 -95 c 0
 101.166992188 -109.666992188 81.6669921875 -124.333007812 61 -139 c 0
 40.3330078125 -153.666992188 20 -168 0 -182 c 1
 0 345 l 1
 -70 310 l 1
 0 468 l 1
 -70 433 l 1
 0 591 l 1
 -70 556 l 1
 13 731 l 1
 95 556 l 1
 25 591 l 1
 95 433 l 1
 25 468 l 1
 95 310 l 1xf6
296 113 m 0
 268 113 246.666992188 99 232 71 c 1
 228 33 226 0.6669921875 226 -26 c 0xf6
 226 -49.3330078125 226.5 -69.3330078125 227.5 -86 c 0
 228.5 -102.666992188 229.666992188 -115.666992188 231 -125 c 1
 243.666992188 -117 257.166992188 -105.166992188 271.5 -89.5 c 0
 285.833007812 -73.8330078125 299 -57 311 -39 c 0
 323 -21 332.833007812 -3.1669921875 340.5 14.5 c 0
 348.166992188 32.1669921875 352 47 352 59 c 0
 352 74.3330078125 346.5 87.1669921875 335.5 97.5 c 0
 324.5 107.833007812 311.333007812 113 296 113 c 0
93 113 m 0
 65 113 43.6669921875 99 29 71 c 1
 25 33 23 0.6669921875 23 -26 c 0
 23 -49.3330078125 23.5 -69.3330078125 24.5 -86 c 0
 25.5 -102.666992188 26.6669921875 -115.666992188 28 -125 c 1
 40.6669921875 -117 54.1669921875 -105.166992188 68.5 -89.5 c 0
 82.8330078125 -73.8330078125 96 -57 108 -39 c 0
 120 -21 129.833007812 -3.1669921875 137.5 14.5 c 0
 145.166992188 32.1669921875 149 47 149 59 c 0
 149 74.3330078125 143.5 87.1669921875 132.5 97.5 c 0
 121.5 107.833007812 108.333007812 113 93 113 c 0
EndSplineSet
Validated: 1
EndChar

StartChar: uniE2DA
Encoding: 58074 58074 148
Width: 299
Flags: W
HStem: 113 40<50.6896 134.139> 448 20G<-40 -8.86076 3.51429 22.3714> 556 21G<-60.5143 -30 55 85.6286>
VStem: 0 25<-124.56 69.2229 104 345> 149 80<-6.73151 99.3248>
LayerCount: 2
Fore
SplineSet
95 310 m 1
 25 345 l 1
 25 104 l 1
 43.6669921875 136.666992188 74.6669921875 153 118 153 c 0
 132.666992188 153 146.833007812 150.5 160.5 145.5 c 0
 174.166992188 140.5 186 133.666992188 196 125 c 0
 206 116.333007812 214 106 220 94 c 0
 226 82 229 69 229 55 c 0
 227.666992188 35.6669921875 220.5 14.5 207.5 -8.5 c 0
 194.5 -31.5 172.333007812 -54.6669921875 141 -78 c 2
 0 -182 l 1
 0 345 l 1
 -70 310 l 1
 0 468 l 1
 -70 433 l 1
 0 591 l 1
 -70 556 l 1
 13 731 l 1
 95 556 l 1
 25 591 l 1
 95 433 l 1
 25 468 l 1
 95 310 l 1
93 113 m 0
 65 113 43.6669921875 99 29 71 c 1
 25 33 23 0.6669921875 23 -26 c 0
 23 -49.3330078125 23.5 -69.3330078125 24.5 -86 c 0
 25.5 -102.666992188 26.6669921875 -115.666992188 28 -125 c 1
 40.6669921875 -117 54.1669921875 -105.166992188 68.5 -89.5 c 0
 82.8330078125 -73.8330078125 96 -57 108 -39 c 0
 120 -21 129.833007812 -3.1669921875 137.5 14.5 c 0
 145.166992188 32.1669921875 149 47 149 59 c 0
 149 74.3330078125 143.5 87.1669921875 132.5 97.5 c 0
 121.5 107.833007812 108.333007812 113 93 113 c 0
EndSplineSet
Validated: 1
EndChar

StartChar: uniE2DB
Encoding: 58075 58075 149
Width: 269
Flags: W
HStem: -340 21G<153 178> 448 20G<-40 -8.86076 2.62857 21.4857> 556 21G<-60.6286 -30 55 85.5143>
VStem: 0 25<-105 61 142 345> 153 25<-340 -140 -59 108>
LayerCount: 2
Fore
SplineSet
95 310 m 1
 25 345 l 1
 25 142 l 1
 178 196 l 1
 178 -340 l 1
 153 -340 l 1
 153 -140 l 1
 0 -193 l 1
 0 345 l 1
 -70 310 l 1
 0 468 l 1
 -70 433 l 1
 0 591 l 1
 -70 556 l 1
 12 731 l 1
 95 556 l 1
 25 591 l 1
 95 433 l 1
 25 468 l 1
 95 310 l 1
25 -105 m 1
 153 -59 l 1
 153 108 l 1
 25 61 l 1
 25 -105 l 1
EndSplineSet
Validated: 1
EndChar

StartChar: uniE2DC
Encoding: 58076 58076 150
Width: 320
Flags: W
HStem: 555 21G<-8.62857 22 107 137.514> 710 20G<54.6286 73.4857>
VStem: 52 25<-343 -200 -102 63 161 344> 173 25<-311 -161 -63 102 200 263>
LayerCount: 2
Fore
SplineSet
147 309 m 5
 77 344 l 5
 77 161 l 5
 173 193 l 5
 173 263 l 5
 198 263 l 5
 198 200 l 5
 250 217 l 5
 250 126 l 5
 198 109 l 5
 198 -63 l 5
 250 -46 l 5
 250 -137 l 5
 198 -154 l 5
 198 -311 l 5
 173 -311 l 5
 173 -161 l 5
 77 -193 l 5
 77 -343 l 5
 52 -343 l 5
 52 -200 l 5
 0 -217 l 5
 0 -126 l 5
 52 -109 l 5
 52 63 l 5
 0 46 l 5
 0 137 l 5
 52 154 l 5
 52 344 l 5
 -18 309 l 5
 52 467 l 5
 -18 432 l 5
 52 590 l 5
 -18 555 l 5
 64 730 l 5
 147 555 l 5
 77 590 l 5
 147 432 l 5
 77 467 l 5
 147 309 l 5
173 102 m 5
 77 70 l 5
 77 -102 l 5
 173 -70 l 5
 173 102 l 5
EndSplineSet
Validated: 1
EndChar

StartChar: uniE2DD
Encoding: 58077 58077 151
Width: 323
Flags: W
HStem: -126 73<0 71.3394 182.741 253> 51 73<0 73 180 253> 448 20G<73 104.139 116.514 135.371 146.861 178> 556 21G<52.4857 83>
VStem: 0 73<-126 -53.7393 51.7393 124> 113 25<160 345> 180 73<-126 -55.9219 53.9219 124>
LayerCount: 2
Fore
SplineSet
138 591 m 1
 208 433 l 1
 138 468 l 1
 208 310 l 1
 138 345 l 1
 138 160 l 1
 113 160 l 1
 113 345 l 1
 43 310 l 1
 113 468 l 1
 43 433 l 1
 113 591 l 1
 43 556 l 1
 126 731 l 1
 208 556 l 1
 138 591 l 1
253 124 m 1
 253 51 l 1
 245 51 l 2
 211 51 176.666992188 34 142 0 c 1
 175.333007812 -33.3330078125 212.333007812 -51 253 -53 c 1
 253 -126 l 1
 180 -126 l 1
 180 -88 162 -51 126 -15 c 1
 90.6669921875 -50.3330078125 73 -87.3330078125 73 -126 c 1
 0 -126 l 1
 0 -53 l 1
 37.3330078125 -53 74.3330078125 -35.3330078125 111 0 c 1
 75.6669921875 34 38.6669921875 51 0 51 c 1
 0 124 l 1
 73 124 l 1
 73 85.3330078125 90.6669921875 48.3330078125 126 13 c 1
 162 49 180 86 180 124 c 1
 253 124 l 1
EndSplineSet
Validated: 1
EndChar

StartChar: uniE2DE
Encoding: 58078 58078 152
Width: 231
Flags: W
VStem: 0 25<32 312>
LayerCount: 2
Fore
SplineSet
171 -23 m 1
 0 -94 l 1
 0 312 l 1
 25 312 l 1
 25 32 l 1
 171 90 l 1
 171 -23 l 1
EndSplineSet
Validated: 1
EndChar

StartChar: uniE2DF
Encoding: 58079 58079 153
Width: 231
Flags: W
VStem: 0 25<-312 -32>
LayerCount: 2
Fore
SplineSet
171 -90 m 1
 25 -32 l 1
 25 -312 l 1
 0 -312 l 1
 0 93 l 1
 171 22 l 1
 171 -90 l 1
EndSplineSet
Validated: 1
EndChar

StartChar: uniE2E0
Encoding: 58080 58080 154
Width: 231
Flags: W
VStem: 0 171<-193 -138 -23 32> 0 25<-138 -81 32 312>
LayerCount: 2
Fore
SplineSet
171 90 m 1x80
 171 -23 l 1x80
 25 -81 l 1
 25 -138 l 1x40
 171 -80 l 1
 171 -193 l 1x80
 0 -264 l 1
 0 312 l 1
 25 312 l 1
 25 32 l 1x40
 171 90 l 1x80
EndSplineSet
Validated: 1
EndChar

StartChar: uniE2E1
Encoding: 58081 58081 155
Width: 231
Flags: W
VStem: 0 171<-32 22 137 192> 0 25<-312 -32 80 137>
LayerCount: 2
Fore
SplineSet
25 -32 m 1x40
 25 -312 l 1
 0 -312 l 1
 0 263 l 1x40
 171 192 l 1
 171 79 l 1x80
 25 137 l 1
 25 80 l 1x40
 171 22 l 1
 171 -90 l 1x80
 25 -32 l 1x40
EndSplineSet
Validated: 1
EndChar

StartChar: uniE2E2
Encoding: 58082 58082 156
Width: 335
Flags: W
HStem: 113 40<94.0572 177.125> 399 20G<197 229> 399 20G<197 229>
VStem: 0 80<-7.78387 99.8506> 197 32<104 419> 204.5 24.5<-124.56 69.2229 104 335>
LayerCount: 2
Fore
SplineSet
229 -182 m 1xd4
 205 -164 181.5 -146.666666667 158.5 -130 c 0
 135.5 -113.333333333 112 -96 88 -78 c 0
 57.3333333333 -54 35.1666666667 -30.8333333333 21.5 -8.5 c 0
 7.83333333333 13.8333333333 0.666666666667 35 0 55 c 0
 0 69 3 82 9 94 c 0
 15 106 23 116.333333333 33 125 c 0
 43 133.666666667 54.6666666667 140.5 68 145.5 c 0
 81.3333333333 150.5 95.6666666667 153 111 153 c 0
 153 153 184 136.666666667 204 104 c 1
 197 419 l 1
 229 419 l 1xd8
 229 -182 l 1xd4
136 113 m 0
 119.333333333 113 105.833333333 107.833333333 95.5 97.5 c 0
 85.1666666667 87.1666666667 80 74.3333333333 80 59 c 0
 80 46.3333333333 83.8333333333 31.1666666667 91.5 13.5 c 0
 99.1666666667 -4.16666666667 108.833333333 -22 120.5 -40 c 0
 132.166666667 -58 145.166666667 -74.6666666667 159.5 -90 c 0
 173.833333333 -105.333333333 187.666666667 -117 201 -125 c 1
 202.333333333 -115.666666667 203.5 -102.666666667 204.5 -86 c 0x94
 205.5 -69.3333333333 206 -49.3333333333 206 -26 c 0
 206 0.666666666667 204 33 200 71 c 1
 184.666666667 99 163.333333333 113 136 113 c 0
EndSplineSet
Validated: 1
EndChar

StartChar: uniE2E3
Encoding: 58083 58083 157
Width: 286
Flags: W
VStem: 95 25<-326 -60 60 328>
LayerCount: 2
Fore
SplineSet
120 -48 m 1
 120 -326 l 1
 95 -326 l 1
 95 -60 l 1
 0 -108 l 1
 0 0 l 1
 95 48 l 1
 95 328 l 1
 120 328 l 1
 120 60 l 1
 216 107 l 1
 216 0 l 1
 120 -48 l 1
EndSplineSet
Validated: 1
EndChar

StartChar: uniE2E4
Encoding: 58084 58084 158
Width: 345
Flags: W
HStem: 119 39<76.0509 127 152 187.744> 403 20G<123 152 211 240>
VStem: 0 56<-3.74426 104.263> 127 25<8 117 157.5 423> 215 25<112 384> 221 19<-122.56 74.2496>
LayerCount: 2
Fore
SplineSet
240 -177 m 1xf4
 238 -177 l 1
 230 -168.333333333 220.166666667 -159.666666667 208.5 -151 c 0
 196.833333333 -142.333333333 184.333333333 -133.666666667 171 -125 c 0
 157.666666667 -116.333333333 144.166666667 -107.666666667 130.5 -99 c 0
 116.833333333 -90.3333333333 103.666666667 -81.6666666667 91 -73 c 0
 59 -49 36 -26 22 -4 c 0
 8 18 0.666666666667 39.3333333333 0 60 c 0
 0 74 3 87 9 99 c 0
 15 111 23.3333333333 121.333333333 34 130 c 0
 44.6666666667 138.666666667 57 145.5 71 150.5 c 0
 85 155.5 99.6666666667 158 115 158 c 2
 123 158 l 2
 124.333333333 158 125.5 157.833333333 126.5 157.5 c 0
 127.5 157.166666667 127.666666667 157 127 157 c 2
 123 423 l 1
 152 423 l 1
 152 153 l 1
 166 149.666666667 178.833333333 144.333333333 190.5 137 c 0
 202.166666667 129.666666667 210.333333333 121.333333333 215 112 c 1
 211 384 l 1
 240 384 l 1xf8
 240 -177 l 1xf4
213 75 m 0
 206.333333333 88.3333333333 197.666666667 98.1666666667 187 104.5 c 0
 176.333333333 110.833333333 164.666666667 115 152 117 c 1
 155 -80 l 1
 160.333333333 -87.3333333333 169.5 -95.6666666667 182.5 -105 c 0
 195.5 -114.333333333 207 -120.333333333 217 -123 c 1
 219 -113.666666667 220.333333333 -100.333333333 221 -83 c 0xf4
 221.666666667 -65.6666666667 222.333333333 -45 223 -21 c 0
 223 -7 222.5 8.5 221.5 25.5 c 0
 220.5 42.5 217.666666667 59 213 75 c 0
56 63 m 0
 56 55.6666666667 56.6666666667 47.6666666667 58 39 c 0
 59.3333333333 30.3333333333 62.5 20.6666666667 67.5 10 c 0
 72.5 -0.666666666667 80.1666666667 -12.3333333333 90.5 -25 c 0
 100.833333333 -37.6666666667 114.666666667 -51.3333333333 132 -66 c 1
 127 119 l 1
 104.333333333 120.333333333 87.1666666667 115.166666667 75.5 103.5 c 0
 63.8333333333 91.8333333333 57.3333333333 78.3333333333 56 63 c 0
EndSplineSet
Validated: 37
EndChar

StartChar: uniE2E5
Encoding: 58085 58085 159
Width: 286
Flags: W
HStem: -341 21G<51 76> 324 20G<139 164> 324 20G<139 164>
VStem: 51 25<-341 -82 38 312> 139 25<-310 -37 81 344>
LayerCount: 2
Fore
SplineSet
51 -341 m 1xd8
 51 -82 l 1
 0 -108 l 1
 0 2 l 1
 51 25 l 1
 51 312 l 1
 76 312 l 1
 76 38 l 1
 139 69 l 1
 139 344 l 1
 164 344 l 1
 164 81 l 1
 216 107 l 1
 216 0 l 1
 164 -25 l 1
 164 -310 l 1
 139 -310 l 1
 139 -37 l 1
 76 -69 l 1
 76 -341 l 1
 51 -341 l 1xd8
EndSplineSet
Validated: 1
EndChar

StartChar: uniE2E6
Encoding: 58086 58086 160
Width: 258
Flags: W
VStem: 0 198
LayerCount: 2
Fore
SplineSet
198 -174 m 1
 0 -46 l 1
 0 2 l 1
 198 -126 l 1
 198 -174 l 1
198 -1 m 1
 0 126 l 1
 0 174 l 1
 198 47 l 1
 198 -1 l 1
EndSplineSet
Validated: 1
EndChar

StartChar: uniE2E7
Encoding: 58087 58087 161
Width: 258
Flags: W
VStem: 0 198
LayerCount: 2
Fore
SplineSet
0 -126 m 1
 198 2 l 5
 198 -46 l 5
 0 -174 l 1
 0 -126 l 1
0 46 m 1
 198 174 l 1
 198 126 l 1
 0 -2 l 1
 0 46 l 1
EndSplineSet
Validated: 1
EndChar

StartChar: uniE2E8
Encoding: 58088 58088 162
Width: 258
Flags: W
HStem: -96 191
VStem: 0 198
LayerCount: 2
Fore
SplineSet
198 -88 m 5
 0 40 l 1
 0 87 l 1
 198 -40 l 5
 198 -88 l 5
EndSplineSet
Validated: 1
EndChar

StartChar: uniE2E9
Encoding: 58089 58089 163
Width: 258
Flags: W
HStem: -96 191
VStem: 0 198
LayerCount: 2
Fore
SplineSet
0 -40 m 1
 198 87 l 5
 198 40 l 5
 0 -88 l 1
 0 -40 l 1
EndSplineSet
Validated: 1
EndChar

StartChar: uniE2EA
Encoding: 58090 58090 164
Width: 215
Flags: W
VStem: 70 25<-211 34>
LayerCount: 2
Fore
SplineSet
165 -176 m 1
 82 -351 l 1
 0 -176 l 1
 70 -211 l 1
 70 34 l 1
 95 34 l 1
 95 -211 l 1
 165 -176 l 1
EndSplineSet
Validated: 1
EndChar

StartChar: uniE2EB
Encoding: 58091 58091 165
Width: 215
Flags: W
HStem: 331 20G<72.6286 91.4857>
VStem: 70 25<-34 211>
LayerCount: 2
Fore
SplineSet
95 211 m 1
 95 -34 l 1
 70 -34 l 1
 70 211 l 1
 0 176 l 1
 82 351 l 1
 165 176 l 5
 95 211 l 1
EndSplineSet
Validated: 1
EndChar

StartChar: uniE2EC
Encoding: 58092 58092 166
Width: 313
Flags: W
VStem: 176 32<-417 -145> 183 25<-339.286 -117.694 -90 81.2837>
LayerCount: 2
Fore
SplineSet
185 -90 m 1x00
 188.116210938 -71.68359375 188.958007812 26.68359375 178 84 c 1
 64 -14 l 1
 185 -90 l 1x00
183 -145 m 2x40
 183.041015625 -131.525390625 182.405273438 -121.6171875 176 -117.497070312 c 2x80
 12 -12 l 2
 10 -11 0 -5 0 1 c 0
 0 1.60546875 2 6 5 8 c 0
 84 77 184 166 208 184 c 1x40
 208 -417 l 1
 176 -417 l 1x80
 183 -145 l 2x40
208 -79 m 1024x40
EndSplineSet
Validated: 33
EndChar

StartChar: uniE2ED
Encoding: 58093 58093 167
Width: 268
Flags: W
VStem: 77 25<-326 -101.13 -49.8008 5.66699 99.4355 99.4355>
LayerCount: 2
Fore
SplineSet
0.5 -157 m 1
 0.5 -122 l 1
 77 -67.4560546875 l 1
 77 21.3330078125 l 1
 0.5 69 l 1
 0.5 152 l 1
 77 99.435546875 l 1
 77 327.999023438 l 1
 83.7138671875 328.609375 90.1064453125 327.592773438 102 327.999023438 c 1
 102 82.220703125 l 1
 198 16 l 2
 199.823242188 14.7451171875 210 9 210 3 c 0
 210 2.39453125 211.180664062 -1.6181640625 203 -8 c 0
 184.6640625 -22.3046875 138.642578125 -55.97265625 102 -82.8369140625 c 1
 102 -326 l 1
 77 -326 l 1
 77 -101.129882812 l 1
 31.091796875 -134.659179688 0.5 -157 0.5 -157 c 1
102 -49.80078125 m 1
 144 -20 l 1
 102 5.6669921875 l 1
 102 -49.80078125 l 1
EndSplineSet
Validated: 1
EndChar

StartChar: uniE2EE
Encoding: 58094 58094 168
Width: 206
Flags: W
HStem: -5 10<0 20.4675>
VStem: 44 36<-185.951 -84.5022 84.2815 185.43> 55 36<-147.624 -36.2555 36.5063 133.467>
LayerCount: 2
Fore
SplineSet
136 -219 m 1xc0
 136 -228 l 1
 108 -224 85.6666666667 -213 69 -195 c 0
 52.3333333333 -176.333333333 44 -156 44 -134 c 0xc0
 44 -127.333333333 44.5 -120.666666667 45.5 -114 c 0
 46.5 -107.333333333 47.6666666667 -100.333333333 49 -93 c 0
 53 -77 55 -65 55 -57 c 0
 55 -45 50.3333333333 -33.8333333333 41 -23.5 c 0
 31.6666666667 -13.1666666667 18 -7 0 -5 c 1
 0 5 l 1
 18 7 31.6666666667 13.1666666667 41 23.5 c 0
 50.3333333333 33.8333333333 55 45 55 57 c 0xa0
 55 65 53 76.6666666667 49 92 c 0
 45.6666666667 108.666666667 44 122.666666667 44 134 c 0
 44 156.666666667 52.3333333333 176.666666667 69 194 c 0
 85.6666666667 212.666666667 108 223.666666667 136 227 c 1
 136 219 l 1
 117.333333333 214.333333333 103.333333333 206.833333333 94 196.5 c 0
 84.6666666667 186.166666667 80 174.666666667 80 162 c 0xc0
 80 152.666666667 82 140 86 124 c 0
 87.3333333333 116.666666667 88.5 109.666666667 89.5 103 c 0
 90.5 96.3333333333 91 90 91 84 c 0
 91 68 85 52.1666666667 73 36.5 c 0
 61 20.8333333333 43.3333333333 9 20 1 c 1
 43.3333333333 -8.33333333333 61 -20.6666666667 73 -36 c 0
 85 -51.3333333333 91 -67.3333333333 91 -84 c 0xa0
 91 -94.6666666667 89.3333333333 -108.333333333 86 -125 c 0
 82 -140.333333333 80 -152.666666667 80 -162 c 0
 80 -174.666666667 84.6666666667 -186.166666667 94 -196.5 c 0
 103.333333333 -206.833333333 117.333333333 -214.333333333 136 -219 c 1xc0
EndSplineSet
Validated: 1
EndChar

StartChar: uniE2EF
Encoding: 58095 58095 169
Width: 206
Flags: W
HStem: -5 10<115.443 136>
VStem: 43 37<-147.624 -36.2555 36.8712 147.029> 55 36<-185.43 -85.502 84.5327 185.951>
LayerCount: 2
Fore
SplineSet
0 219 m 1xa0
 0 227 l 1
 26.6666666667 224.333333333 48.6666666667 213.666666667 66 195 c 0
 82.6666666667 176.333333333 91 155.666666667 91 133 c 0xa0
 91 122.333333333 89.3333333333 108.666666667 86 92 c 0
 82 76.6666666667 80 65 80 57 c 0
 80 45 84.8333333333 33.8333333333 94.5 23.5 c 0
 104.166666667 13.1666666667 118 7 136 5 c 1
 136 -5 l 1
 118 -7 104.166666667 -13.1666666667 94.5 -23.5 c 0
 84.8333333333 -33.8333333333 80 -45 80 -57 c 0xc0
 80 -65 82 -77 86 -93 c 0
 87.3333333333 -100.333333333 88.5 -107.333333333 89.5 -114 c 0
 90.5 -120.666666667 91 -127.333333333 91 -134 c 0
 91 -156.666666667 82.6666666667 -176.666666667 66 -194 c 0
 49.3333333333 -212.666666667 27.3333333333 -224 0 -228 c 1
 0 -219 l 1
 20 -214.333333333 34.1666666667 -206.833333333 42.5 -196.5 c 0
 50.8333333333 -186.166666667 55 -174.666666667 55 -162 c 0xa0
 55 -152.666666667 53 -140.333333333 49 -125 c 0
 45 -109 43 -95.6666666667 43 -85 c 0
 43 -67.6666666667 49.1666666667 -51.3333333333 61.5 -36 c 0
 73.8333333333 -20.6666666667 92 -9 116 -1 c 1
 92.6666666667 8.33333333333 74.6666666667 20.6666666667 62 36 c 0
 49.3333333333 51.3333333333 43 67.3333333333 43 84 c 0xc0
 43 95.3333333333 45 108.666666667 49 124 c 0
 53 140 55 152.666666667 55 162 c 0
 55 174.666666667 50.8333333333 186.166666667 42.5 196.5 c 0
 34.1666666667 206.833333333 20 214.333333333 0 219 c 1xa0
EndSplineSet
Validated: 1
EndChar

StartChar: uniE2F0
Encoding: 58096 58096 170
Width: 502
Flags: W
HStem: 113 40<51.6314 134.36 253.69 337.73> 399 20G<203 235> 399 20G<203 235> 425 25<-70 0 25 95>
VStem: 0 25<-124.56 69.2231 104 425> 203 32<118 419> 203 23<-124.56 -14.9688 118 349> 352 80<-6.7618 99.5883>
LayerCount: 2
Fore
SplineSet
95 425 m 1xdb
 25 425 l 1
 25 104 l 1
 45 136.666992188 76 153 118 153 c 0
 151.333007812 153 179.666992188 141.333007812 203 118 c 1
 203 419 l 1
 235 419 l 1xdd
 228 104 l 1
 246.666992188 136.666992188 277.666992188 153 321 153 c 0
 335.666992188 153 349.833007812 150.5 363.5 145.5 c 0
 377.166992188 140.5 389 133.666992188 399 125 c 0
 409 116.333007812 417 106 423 94 c 0
 429 82 432 69 432 55 c 0
 431.333007812 35 424.166992188 13.8330078125 410.5 -8.5 c 0
 396.833007812 -30.8330078125 374.666992188 -54 344 -78 c 0
 320 -95.3330078125 296.5 -112.333007812 273.5 -129 c 0
 250.5 -145.666992188 227 -163.333007812 203 -182 c 1
 203 -14 l 1
 195 -26 183.666992188 -38.8330078125 169 -52.5 c 0
 154.333007812 -66.1669921875 137.833007812 -80.3330078125 119.5 -95 c 0
 101.166992188 -109.666992188 81.6669921875 -124.333007812 61 -139 c 0
 40.3330078125 -153.666992188 20 -168 0 -182 c 1
 0 425 l 1
 -70 425 l 1
 -70 450 l 1
 95 450 l 1
 95 425 l 1xdb
296 113 m 0
 268 113 246.666992188 99 232 71 c 1
 228 33 226 1 226 -25 c 0x9b
 226 -49 226.5 -69.3330078125 227.5 -86 c 0
 228.5 -102.666992188 229.666992188 -115.666992188 231 -125 c 1
 243.666992188 -117 257.166992188 -105.166992188 271.5 -89.5 c 0
 285.833007812 -73.8330078125 299 -57 311 -39 c 0
 323 -21 332.833007812 -3.1669921875 340.5 14.5 c 0
 348.166992188 32.1669921875 352 47 352 59 c 0
 352 74.3330078125 346.666992188 87.1669921875 336 97.5 c 0
 325.333007812 107.833007812 312 113 296 113 c 0
93 113 m 0
 65 113 43.6669921875 99 29 71 c 1
 25 33 23 1 23 -25 c 0
 23 -49 23.5 -69.3330078125 24.5 -86 c 0
 25.5 -102.666992188 26.6669921875 -115.666992188 28 -125 c 1
 41.3330078125 -117 55.1669921875 -105.166992188 69.5 -89.5 c 0
 83.8330078125 -73.8330078125 96.8330078125 -57 108.5 -39 c 0
 120.166992188 -21 129.833007812 -3.1669921875 137.5 14.5 c 0
 145.166992188 32.1669921875 149 47 149 59 c 0
 149 74.3330078125 143.666992188 87.1669921875 133 97.5 c 0
 122.333007812 107.833007812 109 113 93 113 c 0
EndSplineSet
Validated: 1
EndChar

StartChar: uniE2F1
Encoding: 58097 58097 171
Width: 298
Flags: W
HStem: 113 40<50.5924 133.988> 425 25<-70 0 25 95>
VStem: 0 25<-124.56 69.2229 104 425> 148 80<-7.96951 99.8506>
LayerCount: 2
Fore
SplineSet
95 425 m 1
 25 425 l 1
 25 104 l 1
 43.6669921875 136.666992188 74.3330078125 153 117 153 c 0
 131.666992188 153 145.833007812 150.5 159.5 145.5 c 0
 173.166992188 140.5 185 133.666992188 195 125 c 0
 205 116.333007812 213 106 219 94 c 0
 225 82 228 69 228 55 c 0
 226.666992188 35.6669921875 219.666992188 14.3330078125 207 -9 c 0
 194.333007812 -32.3330078125 172 -55.3330078125 140 -78 c 2
 0 -182 l 1
 0 425 l 1
 -70 425 l 1
 -70 450 l 1
 95 450 l 1
 95 425 l 1
92 113 m 0
 64 113 42.6669921875 99 28 71 c 1
 24 33 22 0.6669921875 22 -26 c 0
 22 -49.3330078125 22.5 -69.3330078125 23.5 -86 c 0
 24.5 -102.666992188 25.6669921875 -115.666992188 27 -125 c 1
 40.3330078125 -117 54.1669921875 -105.166992188 68.5 -89.5 c 0
 82.8330078125 -73.8330078125 95.8330078125 -57.1669921875 107.5 -39.5 c 0
 119.166992188 -21.8330078125 128.833007812 -4.1669921875 136.5 13.5 c 0
 144.166992188 31.1669921875 148 46.3330078125 148 59 c 0
 148 74.3330078125 142.833007812 87.1669921875 132.5 97.5 c 0
 122.166992188 107.833007812 108.666992188 113 92 113 c 0
EndSplineSet
Validated: 1
EndChar

StartChar: uniE2F2
Encoding: 58098 58098 172
Width: 263
Flags: W
HStem: -340 21G<153 178> 425 25<-70 0 25 95>
VStem: 0 25<-105 61 142 425> 153 25<-340 -140 -59 108>
LayerCount: 2
Fore
SplineSet
95 425 m 1
 25 425 l 1
 25 142 l 1
 178 196 l 1
 178 -340 l 1
 153 -340 l 1
 153 -140 l 1
 0 -193 l 1
 0 425 l 1
 -70 425 l 1
 -70 450 l 1
 95 450 l 1
 95 425 l 1
25 -105 m 1
 153 -59 l 1
 153 108 l 1
 25 61 l 1
 25 -105 l 1
EndSplineSet
Validated: 1
EndChar

StartChar: uniE2F3
Encoding: 58099 58099 173
Width: 320
Flags: W
HStem: 323 20G<173 198> 323 20G<173 198> 425 25<-18 52 77 147>
VStem: 52 25<-343 -200 -102 63 161 425> 173 25<-311 -161 -63 102 200 343>
LayerCount: 2
Fore
SplineSet
147 425 m 1xb8
 77 425 l 1
 77 161 l 1
 173 193 l 1
 173 343 l 1
 198 343 l 1
 198 200 l 1
 250 217 l 1
 250 126 l 1
 198 109 l 1
 198 -63 l 1
 250 -46 l 1
 250 -137 l 1
 198 -154 l 1
 198 -311 l 1
 173 -311 l 1
 173 -161 l 1
 77 -193 l 1
 77 -343 l 1
 52 -343 l 1
 52 -200 l 1
 0 -217 l 1
 0 -126 l 1
 52 -109 l 1
 52 63 l 1
 0 46 l 1
 0 137 l 1
 52 154 l 1
 52 425 l 1
 -18 425 l 1
 -18 450 l 1
 147 450 l 5
 147 425 l 1xb8
173 102 m 1
 77 70 l 1
 77 -102 l 1
 173 -70 l 1
 173 102 l 1
EndSplineSet
Validated: 1
EndChar

StartChar: uniE2F4
Encoding: 58100 58100 174
Width: 322
Flags: W
HStem: -126 73<0 71.3898 181.741 252> 51 73<0 72 179 252> 285 25<43 113 138 208>
VStem: 0 72<-126 -53.7393 51.7393 124> 113 25<160 285> 179 73<-126 -55.9219 53.9219 124>
LayerCount: 2
Fore
SplineSet
252 124 m 1
 252 51 l 1
 244 51 l 2
 210 51 175.666992188 34 141 0 c 1
 174.333007812 -33.3330078125 211.333007812 -51 252 -53 c 1
 252 -126 l 1
 179 -126 l 1
 179 -88 161 -51 125 -15 c 1
 89.6669921875 -50.3330078125 72 -87.3330078125 72 -126 c 1
 0 -126 l 1
 0 -53 l 1
 38 -53 74.6669921875 -35.3330078125 110 0 c 1
 74.6669921875 34 38 51 0 51 c 1
 0 124 l 1
 72 124 l 1
 72 85.3330078125 89.6669921875 48.3330078125 125 13 c 1
 161 49 179 86 179 124 c 1
 252 124 l 1
208 285 m 1
 138 285 l 1
 138 160 l 1
 113 160 l 1
 113 285 l 1
 43 285 l 1
 43 310 l 1
 208 310 l 1
 208 285 l 1
EndSplineSet
Validated: 1
EndChar

StartChar: uniE2F5
Encoding: 58101 58101 175
Width: 329
Flags: W
HStem: 113 40<94.0572 177.125> 425 25<134 204 229 299>
VStem: 0 80<-9.309 99.8506> 204 25<-124.56 69.2229 104 425>
LayerCount: 2
Fore
SplineSet
134 450 m 1
 299 450 l 5
 299 425 l 1
 229 425 l 1
 229 -182 l 1
 88 -78 l 2
 56 -55.3333333333 33.6666666667 -32.3333333333 21 -9 c 0
 8.33333333333 14.3333333333 1.33333333333 35.6666666667 0 55 c 0
 0 69 3 82 9 94 c 0
 15 106 23 116.333333333 33 125 c 0
 43 133.666666667 54.6666666667 140.5 68 145.5 c 0
 81.3333333333 150.5 95.6666666667 153 111 153 c 0
 153 153 184 136.666666667 204 104 c 1
 204 425 l 1
 134 425 l 1
 134 450 l 1
136 113 m 0
 119.333333333 113 105.833333333 107.833333333 95.5 97.5 c 0
 85.1666666667 87.1666666667 80 74.3333333333 80 59 c 0
 80 47 83.6666666667 32 91 14 c 0
 98.3333333333 -4 107.833333333 -22 119.5 -40 c 0
 131.166666667 -58 144.166666667 -74.6666666667 158.5 -90 c 0
 172.833333333 -105.333333333 187 -117 201 -125 c 1
 202.333333333 -115.666666667 203.5 -102.666666667 204.5 -86 c 0
 205.5 -69.3333333333 206 -49.3333333333 206 -26 c 0
 206 0.666666666667 204 33 200 71 c 1
 184.666666667 99 163.333333333 113 136 113 c 0
EndSplineSet
Validated: 1
EndChar

StartChar: uniE2F6
Encoding: 58102 58102 176
Width: 286
Flags: W
HStem: 425 25<25 95 120 190>
VStem: 95 25<-326 -60 60 425>
LayerCount: 2
Fore
SplineSet
120 -48 m 1
 120 -326 l 1
 95 -326 l 1
 95 -60 l 1
 0 -108 l 1
 0 0 l 1
 95 48 l 1
 95 425 l 1
 25 425 l 1
 25 450 l 1
 190 450 l 1
 190 425 l 1
 120 425 l 1
 120 60 l 1
 216 107 l 1
 216 0 l 1
 120 -48 l 1
EndSplineSet
Validated: 1
EndChar

StartChar: uniE2F7
Encoding: 58103 58103 177
Width: 258
Flags: W
VStem: 0 198
LayerCount: 2
Fore
SplineSet
198 -239 m 5
 0 -111 l 1
 0 -63 l 1
 198 -191 l 5
 198 -239 l 5
198 -83 m 5
 0 45 l 1
 0 93 l 1
 198 -35 l 5
 198 -83 l 5
198 73 m 5
 0 201 l 1
 0 249 l 1
 198 121 l 5
 198 73 l 5
EndSplineSet
Validated: 1
EndChar

StartChar: uniE2F8
Encoding: 58104 58104 178
Width: 258
Flags: W
VStem: 0 198
LayerCount: 2
Fore
SplineSet
198 201 m 5
 0 73 l 1
 0 121 l 1
 198 249 l 5
 198 201 l 5
198 45 m 5
 0 -83 l 1
 0 -35 l 1
 198 93 l 5
 198 45 l 5
198 -111 m 5
 0 -239 l 1
 0 -191 l 1
 198 -63 l 5
 198 -111 l 5
EndSplineSet
Validated: 1
EndChar

StartChar: uniE2F9
Encoding: 58105 58105 179
Width: 258
Flags: W
HStem: -92.7246 19.25<117.57 168.938> -53.125 20.3496<20.0746 71.0252>
VStem: 0.450195 8.09961<-92.7246 -76.629> 180.45 8.09961<-50.9449 -33.3252>
LayerCount: 2
Fore
SplineSet
180.450195312 -33.3251953125 m 1
 188.549804688 -33.3251953125 l 1
 187.650390625 -52.7587890625 183.075195312 -67.5166015625 174.825195312 -77.599609375 c 0
 166.575195312 -87.68359375 156.75 -92.724609375 145.349609375 -92.724609375 c 0
 139.650390625 -92.724609375 133.799804688 -91.9912109375 127.799804688 -90.525390625 c 0
 124.5 -89.05859375 118.875 -86.400390625 110.924804688 -82.5498046875 c 0
 102.974609375 -78.7001953125 92.5498046875 -73.658203125 79.650390625 -67.4248046875 c 0
 61.349609375 -57.8916015625 48.4501953125 -53.125 40.9501953125 -53.125 c 0
 32.849609375 -53.125 25.9501953125 -56.2412109375 20.25 -62.474609375 c 0
 14.5498046875 -68.7080078125 10.650390625 -78.7919921875 8.5498046875 -92.724609375 c 1
 0.4501953125 -92.724609375 l 1
 1.349609375 -73.2919921875 5.7001953125 -58.44140625 13.5 -48.1748046875 c 0
 21.2998046875 -37.908203125 30.599609375 -32.775390625 41.400390625 -32.775390625 c 0
 47.099609375 -32.775390625 52.5 -33.875 57.599609375 -36.0751953125 c 0
 63.599609375 -37.908203125 70.5751953125 -40.75 78.525390625 -44.599609375 c 0
 86.474609375 -48.4501953125 95.5498046875 -52.94140625 105.75 -58.0751953125 c 0
 125.25 -68.341796875 139.200195312 -73.474609375 147.599609375 -73.474609375 c 0
 156.599609375 -73.474609375 163.950195312 -70.0830078125 169.650390625 -63.2998046875 c 0
 175.349609375 -56.5166015625 178.950195312 -46.525390625 180.450195312 -33.3251953125 c 1
EndSplineSet
Validated: 1
EndChar

StartChar: uniE2FA
Encoding: 58106 58106 180
Width: 258
Flags: W
HStem: -199.725 19.25<117.57 168.938> -160.125 20.3496<20.0746 71.0252> -92.7246 19.25<117.57 168.938> -53.125 20.3496<20.0746 71.0252>
VStem: 0.450195 8.09961<-199.725 -183.629 -92.7246 -76.629> 180.45 8.09961<-157.945 -140.325 -50.9449 -33.3252>
LayerCount: 2
Fore
SplineSet
180.450195312 -140.325195312 m 5
 188.549804688 -140.325195312 l 5
 187.650390625 -159.758789062 183.075195312 -174.516601562 174.825195312 -184.599609375 c 4
 166.575195312 -194.68359375 156.75 -199.724609375 145.349609375 -199.724609375 c 4
 139.650390625 -199.724609375 133.799804688 -198.991210938 127.799804688 -197.525390625 c 4
 124.5 -196.05859375 118.875 -193.400390625 110.924804688 -189.549804688 c 4
 102.974609375 -185.700195312 92.5498046875 -180.658203125 79.650390625 -174.424804688 c 4
 61.349609375 -164.891601562 48.4501953125 -160.125 40.9501953125 -160.125 c 4
 32.849609375 -160.125 25.9501953125 -163.241210938 20.25 -169.474609375 c 4
 14.5498046875 -175.708007812 10.650390625 -185.791992188 8.5498046875 -199.724609375 c 5
 0.4501953125 -199.724609375 l 5
 1.349609375 -180.291992188 5.7001953125 -165.44140625 13.5 -155.174804688 c 4
 21.2998046875 -144.908203125 30.599609375 -139.775390625 41.400390625 -139.775390625 c 4
 47.099609375 -139.775390625 52.5 -140.875 57.599609375 -143.075195312 c 4
 63.599609375 -144.908203125 70.5751953125 -147.75 78.525390625 -151.599609375 c 4
 86.474609375 -155.450195312 95.5498046875 -159.94140625 105.75 -165.075195312 c 4
 125.25 -175.341796875 139.200195312 -180.474609375 147.599609375 -180.474609375 c 4
 156.599609375 -180.474609375 163.950195312 -177.083007812 169.650390625 -170.299804688 c 4
 175.349609375 -163.516601562 178.950195312 -153.525390625 180.450195312 -140.325195312 c 5
180.450195312 -33.3251953125 m 5
 188.549804688 -33.3251953125 l 5
 187.650390625 -52.7587890625 183.075195312 -67.5166015625 174.825195312 -77.599609375 c 4
 166.575195312 -87.68359375 156.75 -92.724609375 145.349609375 -92.724609375 c 4
 139.650390625 -92.724609375 133.799804688 -91.9912109375 127.799804688 -90.525390625 c 4
 124.5 -89.05859375 118.875 -86.400390625 110.924804688 -82.5498046875 c 4
 102.974609375 -78.7001953125 92.5498046875 -73.658203125 79.650390625 -67.4248046875 c 4
 61.349609375 -57.8916015625 48.4501953125 -53.125 40.9501953125 -53.125 c 4
 32.849609375 -53.125 25.9501953125 -56.2412109375 20.25 -62.474609375 c 4
 14.5498046875 -68.7080078125 10.650390625 -78.7919921875 8.5498046875 -92.724609375 c 5
 0.4501953125 -92.724609375 l 5
 1.349609375 -73.2919921875 5.7001953125 -58.44140625 13.5 -48.1748046875 c 4
 21.2998046875 -37.908203125 30.599609375 -32.775390625 41.400390625 -32.775390625 c 4
 47.099609375 -32.775390625 52.5 -33.875 57.599609375 -36.0751953125 c 4
 63.599609375 -37.908203125 70.5751953125 -40.75 78.525390625 -44.599609375 c 4
 86.474609375 -48.4501953125 95.5498046875 -52.94140625 105.75 -58.0751953125 c 4
 125.25 -68.341796875 139.200195312 -73.474609375 147.599609375 -73.474609375 c 4
 156.599609375 -73.474609375 163.950195312 -70.0830078125 169.650390625 -63.2998046875 c 4
 175.349609375 -56.5166015625 178.950195312 -46.525390625 180.450195312 -33.3251953125 c 5
EndSplineSet
Validated: 1
EndChar

StartChar: uniE2FD
Encoding: 58109 58109 181
Width: 259
VWidth: 1052
Flags: W
HStem: 33.2754 19.25<117.57 168.938> 72.875 20.3496<20.0746 71.0252>
VStem: 0.450195 8.09961<33.2754 49.371> 180.45 8.09961<75.0551 92.6748>
LayerCount: 2
Fore
SplineSet
180.450195312 92.6748046875 m 5
 188.549804688 92.6748046875 l 5
 187.650390625 73.2412109375 183.075195312 58.4833984375 174.825195312 48.400390625 c 4
 166.575195312 38.31640625 156.75 33.275390625 145.349609375 33.275390625 c 4
 139.650390625 33.275390625 133.799804688 34.0087890625 127.799804688 35.474609375 c 4
 124.5 36.94140625 118.875 39.599609375 110.924804688 43.4501953125 c 4
 102.974609375 47.2998046875 92.5498046875 52.341796875 79.650390625 58.5751953125 c 4
 61.349609375 68.1083984375 48.4501953125 72.875 40.9501953125 72.875 c 4
 32.849609375 72.875 25.9501953125 69.7587890625 20.25 63.525390625 c 4
 14.5498046875 57.2919921875 10.650390625 47.2080078125 8.5498046875 33.275390625 c 5
 0.4501953125 33.275390625 l 5
 1.349609375 52.7080078125 5.7001953125 67.55859375 13.5 77.8251953125 c 4
 21.2998046875 88.091796875 30.599609375 93.224609375 41.400390625 93.224609375 c 4
 47.099609375 93.224609375 52.5 92.125 57.599609375 89.9248046875 c 4
 63.599609375 88.091796875 70.5751953125 85.25 78.525390625 81.400390625 c 4
 86.474609375 77.5498046875 95.5498046875 73.05859375 105.75 67.9248046875 c 4
 125.25 57.658203125 139.200195312 52.525390625 147.599609375 52.525390625 c 4
 156.599609375 52.525390625 163.950195312 55.9169921875 169.650390625 62.7001953125 c 4
 175.349609375 69.4833984375 178.950195312 79.474609375 180.450195312 92.6748046875 c 5
EndSplineSet
Validated: 1
EndChar

StartChar: uniE2FE
Encoding: 58110 58110 182
Width: 258
Flags: W
HStem: 33.2754 19.25<117.57 168.938> 72.875 20.3496<20.0746 71.0252> 140.275 19.25<117.57 168.938> 179.875 20.3496<20.0746 71.0252>
VStem: 0.450195 8.09961<33.2754 49.371 140.275 156.371> 180.45 8.09961<75.0551 92.6748 182.055 199.675>
LayerCount: 2
Fore
SplineSet
180.450195312 92.6748046875 m 5
 188.549804688 92.6748046875 l 5
 187.650390625 73.2412109375 183.075195312 58.4833984375 174.825195312 48.400390625 c 4
 166.575195312 38.31640625 156.75 33.275390625 145.349609375 33.275390625 c 4
 139.650390625 33.275390625 133.799804688 34.0087890625 127.799804688 35.474609375 c 4
 124.5 36.94140625 118.875 39.599609375 110.924804688 43.4501953125 c 4
 102.974609375 47.2998046875 92.5498046875 52.341796875 79.650390625 58.5751953125 c 4
 61.349609375 68.1083984375 48.4501953125 72.875 40.9501953125 72.875 c 4
 32.849609375 72.875 25.9501953125 69.7587890625 20.25 63.525390625 c 4
 14.5498046875 57.2919921875 10.650390625 47.2080078125 8.5498046875 33.275390625 c 5
 0.4501953125 33.275390625 l 5
 1.349609375 52.7080078125 5.7001953125 67.55859375 13.5 77.8251953125 c 4
 21.2998046875 88.091796875 30.599609375 93.224609375 41.400390625 93.224609375 c 4
 47.099609375 93.224609375 52.5 92.125 57.599609375 89.9248046875 c 4
 63.599609375 88.091796875 70.5751953125 85.25 78.525390625 81.400390625 c 4
 86.474609375 77.5498046875 95.5498046875 73.05859375 105.75 67.9248046875 c 4
 125.25 57.658203125 139.200195312 52.525390625 147.599609375 52.525390625 c 4
 156.599609375 52.525390625 163.950195312 55.9169921875 169.650390625 62.7001953125 c 4
 175.349609375 69.4833984375 178.950195312 79.474609375 180.450195312 92.6748046875 c 5
180.450195312 199.674804688 m 5
 188.549804688 199.674804688 l 5
 187.650390625 180.241210938 183.075195312 165.483398438 174.825195312 155.400390625 c 4
 166.575195312 145.31640625 156.75 140.275390625 145.349609375 140.275390625 c 4
 139.650390625 140.275390625 133.799804688 141.008789062 127.799804688 142.474609375 c 4
 124.5 143.94140625 118.875 146.599609375 110.924804688 150.450195312 c 4
 102.974609375 154.299804688 92.5498046875 159.341796875 79.650390625 165.575195312 c 4
 61.349609375 175.108398438 48.4501953125 179.875 40.9501953125 179.875 c 4
 32.849609375 179.875 25.9501953125 176.758789062 20.25 170.525390625 c 4
 14.5498046875 164.291992188 10.650390625 154.208007812 8.5498046875 140.275390625 c 5
 0.4501953125 140.275390625 l 5
 1.349609375 159.708007812 5.7001953125 174.55859375 13.5 184.825195312 c 4
 21.2998046875 195.091796875 30.599609375 200.224609375 41.400390625 200.224609375 c 4
 47.099609375 200.224609375 52.5 199.125 57.599609375 196.924804688 c 4
 63.599609375 195.091796875 70.5751953125 192.25 78.525390625 188.400390625 c 4
 86.474609375 184.549804688 95.5498046875 180.05859375 105.75 174.924804688 c 4
 125.25 164.658203125 139.200195312 159.525390625 147.599609375 159.525390625 c 4
 156.599609375 159.525390625 163.950195312 162.916992188 169.650390625 169.700195312 c 4
 175.349609375 176.483398438 178.950195312 186.474609375 180.450195312 199.674804688 c 5
EndSplineSet
Validated: 1
EndChar

StartChar: uniE2FF
Encoding: 58111 58111 183
Width: 258
Flags: W
HStem: 33.2754 19.25<117.57 168.938> 72.875 20.3496<20.0746 71.0252> 140.275 19.25<117.57 168.938> 179.875 20.3496<20.0746 71.0252> 237.275 19.25<117.57 168.938> 276.875 20.3496<20.0746 71.0252>
VStem: 0.450195 8.09961<33.2754 49.371 140.275 156.371 237.275 253.371> 180.45 8.09961<75.0551 92.6748 182.055 199.675 279.055 296.675>
LayerCount: 2
Fore
SplineSet
180.450195312 296.674804688 m 1
 188.549804688 296.674804688 l 1
 187.650390625 277.241210938 183.075195312 262.483398438 174.825195312 252.400390625 c 0
 166.575195312 242.31640625 156.75 237.275390625 145.349609375 237.275390625 c 0
 139.650390625 237.275390625 133.799804688 238.008789062 127.799804688 239.474609375 c 0
 124.5 240.94140625 118.875 243.599609375 110.924804688 247.450195312 c 0
 102.974609375 251.299804688 92.5498046875 256.341796875 79.650390625 262.575195312 c 0
 61.349609375 272.108398438 48.4501953125 276.875 40.9501953125 276.875 c 0
 32.849609375 276.875 25.9501953125 273.758789062 20.25 267.525390625 c 0
 14.5498046875 261.291992188 10.650390625 251.208007812 8.5498046875 237.275390625 c 1
 0.4501953125 237.275390625 l 1
 1.349609375 256.708007812 5.7001953125 271.55859375 13.5 281.825195312 c 0
 21.2998046875 292.091796875 30.599609375 297.224609375 41.400390625 297.224609375 c 0
 47.099609375 297.224609375 52.5 296.125 57.599609375 293.924804688 c 0
 63.599609375 292.091796875 70.5751953125 289.25 78.525390625 285.400390625 c 0
 86.474609375 281.549804688 95.5498046875 277.05859375 105.75 271.924804688 c 0
 125.25 261.658203125 139.200195312 256.525390625 147.599609375 256.525390625 c 0
 156.599609375 256.525390625 163.950195312 259.916992188 169.650390625 266.700195312 c 0
 175.349609375 273.483398438 178.950195312 283.474609375 180.450195312 296.674804688 c 1
180.450195312 92.6748046875 m 1
 188.549804688 92.6748046875 l 1
 187.650390625 73.2412109375 183.075195312 58.4833984375 174.825195312 48.400390625 c 0
 166.575195312 38.31640625 156.75 33.275390625 145.349609375 33.275390625 c 0
 139.650390625 33.275390625 133.799804688 34.0087890625 127.799804688 35.474609375 c 0
 124.5 36.94140625 118.875 39.599609375 110.924804688 43.4501953125 c 0
 102.974609375 47.2998046875 92.5498046875 52.341796875 79.650390625 58.5751953125 c 0
 61.349609375 68.1083984375 48.4501953125 72.875 40.9501953125 72.875 c 0
 32.849609375 72.875 25.9501953125 69.7587890625 20.25 63.525390625 c 0
 14.5498046875 57.2919921875 10.650390625 47.2080078125 8.5498046875 33.275390625 c 1
 0.4501953125 33.275390625 l 1
 1.349609375 52.7080078125 5.7001953125 67.55859375 13.5 77.8251953125 c 0
 21.2998046875 88.091796875 30.599609375 93.224609375 41.400390625 93.224609375 c 0
 47.099609375 93.224609375 52.5 92.125 57.599609375 89.9248046875 c 0
 63.599609375 88.091796875 70.5751953125 85.25 78.525390625 81.400390625 c 0
 86.474609375 77.5498046875 95.5498046875 73.05859375 105.75 67.9248046875 c 0
 125.25 57.658203125 139.200195312 52.525390625 147.599609375 52.525390625 c 0
 156.599609375 52.525390625 163.950195312 55.9169921875 169.650390625 62.7001953125 c 0
 175.349609375 69.4833984375 178.950195312 79.474609375 180.450195312 92.6748046875 c 1
180.450195312 199.674804688 m 1
 188.549804688 199.674804688 l 1
 187.650390625 180.241210938 183.075195312 165.483398438 174.825195312 155.400390625 c 0
 166.575195312 145.31640625 156.75 140.275390625 145.349609375 140.275390625 c 0
 139.650390625 140.275390625 133.799804688 141.008789062 127.799804688 142.474609375 c 0
 124.5 143.94140625 118.875 146.599609375 110.924804688 150.450195312 c 0
 102.974609375 154.299804688 92.5498046875 159.341796875 79.650390625 165.575195312 c 0
 61.349609375 175.108398438 48.4501953125 179.875 40.9501953125 179.875 c 0
 32.849609375 179.875 25.9501953125 176.758789062 20.25 170.525390625 c 0
 14.5498046875 164.291992188 10.650390625 154.208007812 8.5498046875 140.275390625 c 1
 0.4501953125 140.275390625 l 1
 1.349609375 159.708007812 5.7001953125 174.55859375 13.5 184.825195312 c 0
 21.2998046875 195.091796875 30.599609375 200.224609375 41.400390625 200.224609375 c 0
 47.099609375 200.224609375 52.5 199.125 57.599609375 196.924804688 c 0
 63.599609375 195.091796875 70.5751953125 192.25 78.525390625 188.400390625 c 0
 86.474609375 184.549804688 95.5498046875 180.05859375 105.75 174.924804688 c 0
 125.25 164.658203125 139.200195312 159.525390625 147.599609375 159.525390625 c 0
 156.599609375 159.525390625 163.950195312 162.916992188 169.650390625 169.700195312 c 0
 175.349609375 176.483398438 178.950195312 186.474609375 180.450195312 199.674804688 c 1
EndSplineSet
Validated: 1
EndChar

StartChar: uniEE4C
Encoding: 61004 61004 184
Width: 387
Flags: W
HStem: -96 191
VStem: -1 328
LayerCount: 2
Fore
SplineSet
197 -96 m 1
 -1 48 l 1
 -1 95 l 1
 197 -48 l 1
 197 -96 l 1
327 -96 m 1
 129 48 l 1
 129 95 l 1
 327 -48 l 1
 327 -96 l 1
EndSplineSet
Validated: 1
EndChar

StartChar: uniEE4D
Encoding: 61005 61005 185
Width: 389
Flags: W
HStem: -96 191
VStem: 0 329
LayerCount: 2
Fore
SplineSet
0 -48 m 1
 198 95 l 1
 198 48 l 1
 0 -96 l 1
 0 -48 l 1
131 -48 m 1
 329 95 l 1
 329 48 l 1
 131 -96 l 1
 131 -48 l 1
EndSplineSet
Validated: 1
EndChar

StartChar: uniEE4E
Encoding: 61006 61006 186
Width: 514
Flags: W
HStem: -96 191
LayerCount: 2
Fore
SplineSet
194 -96 m 1
 -4 48 l 1
 -4 95 l 1
 194 -48 l 1
 194 -96 l 1
324 -96 m 1
 126 48 l 1
 126 95 l 1
 324 -48 l 1
 324 -96 l 1
454 -96 m 1
 256 48 l 1
 256 95 l 1
 454 -48 l 1
 454 -96 l 1
EndSplineSet
Validated: 1
EndChar

StartChar: uniEE4F
Encoding: 61007 61007 187
Width: 520
Flags: W
HStem: -96 191
LayerCount: 2
Fore
SplineSet
0 -48 m 1
 198 95 l 1
 198 48 l 1
 0 -96 l 1
 0 -48 l 1
131 -48 m 1
 329 95 l 1
 329 48 l 1
 131 -96 l 1
 131 -48 l 1
262 -48 m 1
 460 95 l 1
 460 48 l 1
 262 -96 l 1
 262 -48 l 1
EndSplineSet
Validated: 1
EndChar

StartChar: uniEE50
Encoding: 61008 61008 188
Width: 302
VWidth: 1290
Flags: W
HStem: -341 21G<111 139.222> 57 20G<69 94 157 182>
VStem: 69 25<-161 77> 157 25<-161 77>
LayerCount: 2
Fore
SplineSet
-1 -161 m 1
 69 -185 l 1
 69 77 l 1
 94 77 l 1
 94 -161 l 2
 94 -161 104 -202 127 -202 c 27
 149 -202 157 -161 157 -161 c 2
 157 77 l 1
 182 77 l 1
 182 -185 l 1
 253 -161 l 1
 125 -341 l 1
 -1 -161 l 1
EndSplineSet
Validated: 1
EndChar

StartChar: uniEE51
Encoding: 61009 61009 189
Width: 303
VWidth: 1290
Flags: W
VStem: 69 25<-77 161> 157 25<-77 161>
LayerCount: 2
Fore
SplineSet
-0.5244140625 160.630859375 m 1
 125.430664062 341.3984375 l 1
 252.920898438 160.630859375 l 1
 182 185 l 1
 182 -77 l 1
 157 -77 l 1
 157 161 l 2
 157 161 149 202 127 202 c 31
 104 202 94 161 94 161 c 2
 94 -77 l 1
 69 -77 l 1
 69 185 l 1
 -0.5244140625 160.630859375 l 1
EndSplineSet
Validated: 1
EndChar

StartChar: uniEE52
Encoding: 61010 61010 190
Width: 318
Flags: W
HStem: -209 48<7.24168 100.845> 85 45<59.5 160.377> 356 20G<192 205>
VStem: 0 80<-27.0417 78.1249> 108 27<-152.382 -95.2907> 184 29<-337.047 62.8165 89 375.047>
LayerCount: 2
Fore
SplineSet
213 360 m 2
 213 -322 l 2
 213 -331 208 -338 202 -338 c 2
 195 -338 l 2
 189 -338 184 -331 184 -322 c 2
 184 19 l 1
 180 51 169 85 121 85 c 0
 108 85 80 73 80 39 c 0
 80 11 100 -25 113 -48 c 0
 132 -83 135 -97 135 -116 c 0
 135 -171 88 -209 43 -209 c 0
 28 -209 20 -207 13 -205 c 0
 5 -205 2 -188 2 -170 c 0
 2 -156 4 -144 7 -145 c 0
 12 -147 27 -157 48 -160 c 0
 51 -161 56 -161 62 -161 c 0
 81 -161 108 -155 108 -128 c 0
 108 -104 85 -81 56 -62 c 0
 25 -42 0 -10 0 41 c 0
 0 85 36 130 83 130 c 0
 122 130 151 121 184 89 c 1
 184 360 l 2
 184 369 189 376 195 376 c 2
 202 376 l 2
 208 376 213 369 213 360 c 2
EndSplineSet
Validated: 1
EndChar

StartChar: uniEE53
Encoding: 61011 61011 191
Width: 318
Flags: W
HStem: -130 45<59.5 160.377> 161 48<7.24168 100.845>
VStem: 0 80<-78.1249 27.0417> 108 27<95.2907 152.382> 184 29<-375.047 -89 -62.8165 337.047>
LayerCount: 2
Fore
SplineSet
213 -360 m 2
 213 -369 208 -376 202 -376 c 2
 195 -376 l 2
 189 -376 184 -369 184 -360 c 2
 184 -89 l 1
 151 -121 122 -130 83 -130 c 0
 36 -130 0 -85 0 -41 c 0
 0 10 25 42 56 62 c 0
 85 81 108 104 108 128 c 0
 108 155 81 161 62 161 c 0
 56 161 51 161 48 160 c 0
 27 157 12 147 7 145 c 0
 4 144 2 156 2 170 c 0
 2 188 5 205 13 205 c 0
 20 207 28 209 43 209 c 0
 88 209 135 171 135 116 c 0
 135 97 132 83 113 48 c 0
 100 25 80 -11 80 -39 c 0
 80 -73 108 -85 121 -85 c 0
 169 -85 180 -51 184 -19 c 1
 184 322 l 2
 184 331 189 338 195 338 c 2
 202 338 l 2
 208 338 213 331 213 322 c 2
 213 -360 l 2
EndSplineSet
Validated: 1
EndChar

StartChar: uniEE54
Encoding: 61012 61012 192
Width: 258
VWidth: 1199
Flags: W
HStem: -76 30<0 198>
VStem: 0 198<-76 -46>
LayerCount: 2
Fore
SplineSet
198 -46 m 1
 198 -76 l 1
 0 -76 l 1
 0 -46 l 1
 198 -46 l 1
EndSplineSet
Validated: 1
EndChar

StartChar: uniEE55
Encoding: 61013 61013 193
Width: 270
VWidth: 1199
Flags: W
HStem: 47 30<0 90 120 210>
VStem: 90 30<-49 47 77 173>
LayerCount: 2
Fore
SplineSet
120 47 m 1
 120 -49 l 1
 90 -49 l 1
 90 47 l 1
 0 47 l 1
 0 77 l 1
 90 77 l 1
 90 173 l 1
 120 173 l 1
 120 77 l 1
 210 77 l 5
 210 47 l 1
 120 47 l 1
EndSplineSet
Validated: 1
EndChar

StartChar: uniEE56
Encoding: 61014 61014 194
Width: 324
VWidth: 1330
Flags: W
VStem: 2.0791 251.736
LayerCount: 2
Fore
SplineSet
147.017578125 26.6044921875 m 28
 133.110351562 22.1884765625 122.78515625 22.1884765625 108.876953125 26.6044921875 c 28
 65.4296875 40.5634765625 2.0791015625 108.124023438 2.0791015625 108.124023438 c 1
 127.184570312 -108.479492188 l 1
 253.815429688 108.124023438 l 1
 253.815429688 108.124023438 190.465820312 40.5634765625 147.017578125 26.6044921875 c 28
EndSplineSet
Validated: 41
EndChar

StartChar: uniEE57
Encoding: 61015 61015 195
Width: 324
VWidth: 1290
Flags: W
HStem: -108.369 216.768
VStem: 0.475586 253.445
LayerCount: 2
Fore
SplineSet
146.3984375 -34.2158203125 m 24
 132.396484375 -30.01953125 122.000976562 -30.01953125 107.998046875 -34.2158203125 c 24
 64.2548828125 -47.48046875 0.4755859375 -108.369140625 0.4755859375 -108.369140625 c 1
 126.430664062 108.3984375 l 1
 253.920898438 -108.369140625 l 1
 253.920898438 -108.369140625 190.142578125 -47.48046875 146.3984375 -34.2158203125 c 24
EndSplineSet
Validated: 33
EndChar

StartChar: uniEE58
Encoding: 61016 61016 196
Width: 246
VWidth: 0
Flags: W
HStem: -235 74<0 146> -88 74<0 146> 323 20G<146 171> 323 20G<146 171>
VStem: 0 171<-235 -161 -88 -14> 146 25<-161 -88 -14 343>
LayerCount: 2
Fore
SplineSet
146 -14 m 1xe4
 146 343 l 1
 171 343 l 1xe4
 171 -235 l 1
 0 -235 l 1
 0 -161 l 1xe8
 146 -161 l 1
 146 -88 l 1xe4
 0 -88 l 1
 0 -14 l 1xe8
 146 -14 l 1xe4
EndSplineSet
Validated: 1
EndChar

StartChar: uniEE59
Encoding: 61017 61017 197
Width: 246
VWidth: 0
Flags: W
HStem: 14 74<0 146> 161 75<0 146>
VStem: 0 171<14 88 161 236> 146 25<-342 14 88 161>
LayerCount: 2
Fore
SplineSet
146 14 m 1xd0
 0 14 l 1
 0 88 l 1xe0
 146 88 l 1
 146 161 l 1xd0
 0 161 l 1
 0 236 l 1
 171 236 l 1xe0
 171 -342 l 1
 146 -342 l 1
 146 14 l 1xd0
EndSplineSet
Validated: 1
EndChar

StartChar: uniEEC0
Encoding: 61120 61120 198
Width: 502
Flags: W
HStem: -530.48 76.4404<244.815 291.448> 113 40<50.6314 133.618 253.631 336.988> 399 20G<-1 31 202 234> 399 20G<-1 31 202 234>
VStem: -1 32<104 419> -1 23<-124.56 69.2229 104 349> 202 32<118 419> 202 23<-124.56 -14.4137 118 349> 240 93.5898<-528.291 -465.213> 292.43 41.1602<-570.251 -544.805> 351 80<-7.74264 99.8506>
LayerCount: 2
Fore
SplineSet
284.58984375 -454.040039062 m 4xc0a0
 294.879882812 -454.040039062 306.150390625 -457.469726562 315.459960938 -464.8203125 c 4
 325.75 -473.150390625 333.58984375 -484.91015625 333.58984375 -504.01953125 c 6
 333.58984375 -509.900390625 l 6xc0a0
 333.58984375 -528.030273438 330.16015625 -552.040039062 317.419921875 -571.150390625 c 4
 307.129882812 -586.830078125 275.280273438 -615.25 254.700195312 -615.25 c 4
 252.25 -615.25 251.26953125 -613.780273438 250.290039062 -610.349609375 c 4
 250.290039062 -609.370117188 248.8203125 -607.900390625 248.8203125 -607.900390625 c 6
 248.8203125 -604.469726562 252.25 -603 254.700195312 -602.01953125 c 4
 255.6796875 -601.040039062 272.830078125 -591.240234375 283.120117188 -577.030273438 c 4
 289 -568.700195312 292.4296875 -561.349609375 292.4296875 -552.040039062 c 4xc060
 292.4296875 -549.58984375 292.4296875 -547.139648438 291.450195312 -544.690429688 c 6
 291.450195312 -544.690429688 289 -530.48046875 274.299804688 -530.48046875 c 4
 253.719726562 -530.48046875 240 -517.25 240 -494.709960938 c 4
 240 -472.169921875 257.150390625 -454.040039062 284.58984375 -454.040039062 c 4xc0a0
295 113 m 0
 267 113 245.666992188 99 231 71 c 1
 227 33 225 0.6669921875 225 -26 c 0xc120
 225 -49.3330078125 225.5 -69.3330078125 226.5 -86 c 0
 227.5 -102.666992188 228.666992188 -115.666992188 230 -125 c 1
 243.333007812 -117 257.166992188 -105.166992188 271.5 -89.5 c 0
 285.833007812 -73.8330078125 298.833007812 -57.1669921875 310.5 -39.5 c 0
 322.166992188 -21.8330078125 331.833007812 -4.1669921875 339.5 13.5 c 0
 347.166992188 31.1669921875 351 46.3330078125 351 59 c 0
 351 74.3330078125 345.833007812 87.1669921875 335.5 97.5 c 0
 325.166992188 107.833007812 311.666992188 113 295 113 c 0
-1 419 m 1xe820
 31 419 l 1
 24 104 l 1
 44 136.666992188 75 153 117 153 c 0
 150.333007812 153 178.666992188 141.333007812 202 118 c 1
 202 419 l 1
 234 419 l 1xea20
 227 104 l 1
 247 136.666992188 278 153 320 153 c 0
 334.666992188 153 348.833007812 150.5 362.5 145.5 c 0
 376.166992188 140.5 388 133.666992188 398 125 c 0
 408 116.333007812 416 106 422 94 c 0
 428 82 431 69 431 55 c 0
 430.333007812 35 423.166992188 13.8330078125 409.5 -8.5 c 0
 395.833007812 -30.8330078125 373.666992188 -54 343 -78 c 0
 319 -96 295.5 -113.333007812 272.5 -130 c 0
 249.5 -146.666992188 226 -164 202 -182 c 1
 202 -14 l 1
 194 -26 182.666992188 -38.8330078125 168 -52.5 c 0
 153.333007812 -66.1669921875 136.833007812 -80.3330078125 118.5 -95 c 0
 100.166992188 -109.666992188 80.6669921875 -124.333007812 60 -139 c 0
 39.3330078125 -153.666992188 19 -168 -1 -182 c 1xe520
 -1 419 l 1xe820
92 113 m 0
 64 113 42.6669921875 99 28 71 c 1
 24 33 22 0.6669921875 22 -26 c 0xc420
 22 -49.3330078125 22.5 -69.3330078125 23.5 -86 c 0
 24.5 -102.666992188 25.6669921875 -115.666992188 27 -125 c 1
 40.3330078125 -117 54.1669921875 -105.166992188 68.5 -89.5 c 0
 82.8330078125 -73.8330078125 95.8330078125 -57.1669921875 107.5 -39.5 c 0
 119.166992188 -21.8330078125 128.833007812 -4.1669921875 136.5 13.5 c 0
 144.166992188 31.1669921875 148 46.3330078125 148 59 c 0
 148 74.3330078125 142.833007812 87.1669921875 132.5 97.5 c 0
 122.166992188 107.833007812 108.666992188 113 92 113 c 0
EndSplineSet
Validated: 1
EndChar

StartChar: uniEEC1
Encoding: 61121 61121 199
Width: 299
Flags: W
HStem: -530.48 76.4404<67.8151 114.448> 113 40<50.6896 134.139> 399 20G<0 32> 399 20G<0 32>
VStem: 0 32<104 419> 0 23<-124.56 69.2229 104 349> 63 93.5898<-528.291 -465.213> 115.43 41.1602<-570.251 -544.805> 149 80<-6.73151 99.3248>
LayerCount: 2
Fore
SplineSet
107.58984375 -454.040039062 m 4xc2
 117.879882812 -454.040039062 129.150390625 -457.469726562 138.459960938 -464.8203125 c 4
 148.75 -473.150390625 156.58984375 -484.91015625 156.58984375 -504.01953125 c 6
 156.58984375 -509.900390625 l 6xc2
 156.58984375 -528.030273438 153.16015625 -552.040039062 140.419921875 -571.150390625 c 4
 130.129882812 -586.830078125 98.2802734375 -615.25 77.7001953125 -615.25 c 4
 75.25 -615.25 74.26953125 -613.780273438 73.2900390625 -610.349609375 c 4
 73.2900390625 -609.370117188 71.8203125 -607.900390625 71.8203125 -607.900390625 c 6
 71.8203125 -604.469726562 75.25 -603 77.7001953125 -602.01953125 c 4
 78.6796875 -601.040039062 95.830078125 -591.240234375 106.120117188 -577.030273438 c 4
 112 -568.700195312 115.4296875 -561.349609375 115.4296875 -552.040039062 c 4xc1
 115.4296875 -549.58984375 115.4296875 -547.139648438 114.450195312 -544.690429688 c 6
 114.450195312 -544.690429688 112 -530.48046875 97.2998046875 -530.48046875 c 4
 76.7197265625 -530.48046875 63 -517.25 63 -494.709960938 c 4
 63 -472.169921875 80.150390625 -454.040039062 107.58984375 -454.040039062 c 4xc2
0 419 m 1xe8
 32 419 l 1xe8
 25 104 l 1
 43.6669921875 136.666992188 74.6669921875 153 118 153 c 0
 132.666992188 153 146.833007812 150.5 160.5 145.5 c 0
 174.166992188 140.5 186 133.666992188 196 125 c 0
 206 116.333007812 214 106 220 94 c 0
 226 82 229 69 229 55 c 0
 227.666992188 35.6669921875 220.5 14.5 207.5 -8.5 c 0
 194.5 -31.5 172.333007812 -54.6669921875 141 -78 c 2
 0 -182 l 1xe480
 0 419 l 1xe8
93 113 m 0
 65 113 43.6669921875 99 29 71 c 1
 25 33 23 0.6669921875 23 -26 c 0
 23 -49.3330078125 23.5 -69.3330078125 24.5 -86 c 0
 25.5 -102.666992188 26.6669921875 -115.666992188 28 -125 c 1
 40.6669921875 -117 54.1669921875 -105.166992188 68.5 -89.5 c 0
 82.8330078125 -73.8330078125 96 -57 108 -39 c 0
 120 -21 129.833007812 -3.1669921875 137.5 14.5 c 0
 145.166992188 32.1669921875 149 47 149 59 c 0xc480
 149 74.3330078125 143.5 87.1669921875 132.5 97.5 c 0
 121.5 107.833007812 108.333007812 113 93 113 c 0
EndSplineSet
Validated: 1
EndChar

StartChar: uniEEC2
Encoding: 61122 61122 200
Width: 269
Flags: W
HStem: -530.48 76.4404<47.8151 94.4484> -340 21G<153 178> 323 20G<0 25> 323 20G<0 25>
VStem: 0 25<-105 61 142 343> 43 93.5898<-528.291 -465.213> 95.4297 41.1602<-570.251 -544.805> 153 25<-340 -140 -59 108>
LayerCount: 2
Fore
SplineSet
87.58984375 -454.040039062 m 4xcd
 97.8798828125 -454.040039062 109.150390625 -457.469726562 118.459960938 -464.8203125 c 4
 128.75 -473.150390625 136.58984375 -484.91015625 136.58984375 -504.01953125 c 6
 136.58984375 -509.900390625 l 6xcd
 136.58984375 -528.030273438 133.16015625 -552.040039062 120.419921875 -571.150390625 c 4
 110.129882812 -586.830078125 78.2802734375 -615.25 57.7001953125 -615.25 c 4
 55.25 -615.25 54.26953125 -613.780273438 53.2900390625 -610.349609375 c 4
 53.2900390625 -609.370117188 51.8203125 -607.900390625 51.8203125 -607.900390625 c 6
 51.8203125 -604.469726562 55.25 -603 57.7001953125 -602.01953125 c 4
 58.6796875 -601.040039062 75.830078125 -591.240234375 86.1201171875 -577.030273438 c 4
 92 -568.700195312 95.4296875 -561.349609375 95.4296875 -552.040039062 c 4xcb
 95.4296875 -549.58984375 95.4296875 -547.139648438 94.4501953125 -544.690429688 c 6
 94.4501953125 -544.690429688 92 -530.48046875 77.2998046875 -530.48046875 c 4
 56.7197265625 -530.48046875 43 -517.25 43 -494.709960938 c 4
 43 -472.169921875 60.150390625 -454.040039062 87.58984375 -454.040039062 c 4xcd
153 -340 m 1
 153 -140 l 1
 0 -193 l 1
 0 343 l 1
 25 343 l 1xe9
 25 142 l 1
 178 196 l 1
 178 -340 l 1
 153 -340 l 1
25 -105 m 1
 153 -59 l 1
 153 108 l 1
 25 61 l 1
 25 -105 l 1
EndSplineSet
Validated: 1
EndChar

StartChar: uniEEC3
Encoding: 61123 61123 201
Width: 320
Flags: W
HStem: -530.48 76.4404<90.8151 137.448> 323 20G<173 198> 323 20G<173 198>
VStem: 52 25<-342 -200 -102 63 161 311> 86 93.5898<-528.291 -465.213> 138.43 41.1602<-570.251 -544.805> 173 25<-311 -161 -63 102 200 343>
LayerCount: 2
Fore
SplineSet
130.58984375 -454.040039062 m 4x98
 140.879882812 -454.040039062 152.150390625 -457.469726562 161.459960938 -464.8203125 c 4
 171.75 -473.150390625 179.58984375 -484.91015625 179.58984375 -504.01953125 c 6
 179.58984375 -509.900390625 l 6x98
 179.58984375 -528.030273438 176.16015625 -552.040039062 163.419921875 -571.150390625 c 4
 153.129882812 -586.830078125 121.280273438 -615.25 100.700195312 -615.25 c 4
 98.25 -615.25 97.26953125 -613.780273438 96.2900390625 -610.349609375 c 4
 96.2900390625 -609.370117188 94.8203125 -607.900390625 94.8203125 -607.900390625 c 6
 94.8203125 -604.469726562 98.25 -603 100.700195312 -602.01953125 c 4
 101.6796875 -601.040039062 118.830078125 -591.240234375 129.120117188 -577.030273438 c 4
 135 -568.700195312 138.4296875 -561.349609375 138.4296875 -552.040039062 c 4x94
 138.4296875 -549.58984375 138.4296875 -547.139648438 137.450195312 -544.690429688 c 6
 137.450195312 -544.690429688 135 -530.48046875 120.299804688 -530.48046875 c 4
 99.7197265625 -530.48046875 86 -517.25 86 -494.709960938 c 4
 86 -472.169921875 103.150390625 -454.040039062 130.58984375 -454.040039062 c 4x98
173 102 m 1x92
 77 70 l 1
 77 -102 l 1
 173 -69 l 1
 173 102 l 1x92
198 343 m 1xd2
 198 200 l 1
 250 217 l 1
 250 126 l 1
 198 109 l 1
 198 -63 l 1
 250 -45 l 1
 250 -137 l 1
 198 -153 l 1
 198 -311 l 1
 173 -311 l 1
 173 -161 l 1
 77 -192 l 1
 77 -342 l 1
 52 -342 l 1
 52 -200 l 1
 0 -216 l 1
 0 -126 l 1
 52 -108 l 1
 52 63 l 1
 0 46 l 1
 0 137 l 1
 52 154 l 1
 52 311 l 1
 77 311 l 1
 77 161 l 1
 173 193 l 1
 173 343 l 1
 198 343 l 1xd2
EndSplineSet
Validated: 1
EndChar

StartChar: uniEEC4
Encoding: 61124 61124 202
Width: 323
Flags: W
HStem: -530.48 76.4404<90.8151 137.448> -127 73<0 72.2607 182.741 253> 50 73<0 73 180 253>
VStem: 0 73<-127 -54.7393 50.7393 123> 86 93.5898<-528.291 -465.213> 138.43 41.1602<-570.251 -544.805> 180 73<-127 -56.9219 52.9219 123>
LayerCount: 2
Fore
SplineSet
130.58984375 -454.040039062 m 4xfa
 140.879882812 -454.040039062 152.150390625 -457.469726562 161.459960938 -464.8203125 c 4
 171.75 -473.150390625 179.58984375 -484.91015625 179.58984375 -504.01953125 c 6
 179.58984375 -509.900390625 l 6xfa
 179.58984375 -528.030273438 176.16015625 -552.040039062 163.419921875 -571.150390625 c 4
 153.129882812 -586.830078125 121.280273438 -615.25 100.700195312 -615.25 c 4
 98.25 -615.25 97.26953125 -613.780273438 96.2900390625 -610.349609375 c 4
 96.2900390625 -609.370117188 94.8203125 -607.900390625 94.8203125 -607.900390625 c 6
 94.8203125 -604.469726562 98.25 -603 100.700195312 -602.01953125 c 4
 101.6796875 -601.040039062 118.830078125 -591.240234375 129.120117188 -577.030273438 c 4
 135 -568.700195312 138.4296875 -561.349609375 138.4296875 -552.040039062 c 4xf6
 138.4296875 -549.58984375 138.4296875 -547.139648438 137.450195312 -544.690429688 c 6
 137.450195312 -544.690429688 135 -530.48046875 120.299804688 -530.48046875 c 4
 99.7197265625 -530.48046875 86 -517.25 86 -494.709960938 c 4
 86 -472.169921875 103.150390625 -454.040039062 130.58984375 -454.040039062 c 4xfa
253 123 m 1
 253 50 l 1
 245 50 l 2
 211 50 176.666992188 33 142 -1 c 1
 175.333007812 -34.3330078125 212.333007812 -52 253 -54 c 1
 253 -127 l 1
 180 -127 l 1
 180 -89 162 -52 126 -16 c 1
 90.6669921875 -51.3330078125 73 -88.3330078125 73 -127 c 1
 0 -127 l 1
 0 -54 l 1
 38.6669921875 -54 75.6669921875 -36.3330078125 111 -1 c 1
 75.6669921875 33 38.6669921875 50 0 50 c 1
 0 123 l 1
 73 123 l 1
 73 84.3330078125 90.6669921875 47.3330078125 126 12 c 1
 162 48 180 85 180 123 c 1
 253 123 l 1
EndSplineSet
Validated: 1
EndChar

